<svg xmlns="http://www.w3.org/2000/svg"><defs><font id="Montserrat" horiz-adv-x="636"><font-face font-family="Montserrat Light" panose-1="0 0 4 0 0 0 0 0 0 0" ascent="968" descent="-251" alphabetic="0"/><glyph glyph-name="space" horiz-adv-x="257"/><glyph unicode="!" glyph-name="exclam" horiz-adv-x="252" d="M185 700h58L133 201H95l90 499zM64-4L52 7 40 35q0 18 12 30t30 13q17 0 29-11t12-28q0-18-12-30T80-4Q64-4 52 7z"/><glyph unicode="&quot;" glyph-name="quotedbl" horiz-adv-x="357" d="M162 700h46l-55-258h-39l48 258zm162 0h46l-55-258h-39l48 258z"/><glyph unicode="#" glyph-name="numbersign" horiz-adv-x="690" d="M550 462l-72-224h145l-8-40H465L401 0h-42l64 198H205L141 0h-41l63 198H20l8 40h148l72 224H104l8 40h149l63 198h42l-64-198h218l64 198h42l-64-198h145l-8-40H550zm-42 0H290l-72-224h218l72 224z"/><glyph unicode="$" glyph-name="dollar" horiz-adv-x="609" d="M507 655l-102 5-58-292q63-19 102-36t66-48 27-83q0-96-75-150T272-5l-23-115h-36L236-4q-69 5-129 30T18 88l27 39q29-34 84-57t116-29l58 290q-57 17-94 35t-63 50-25 82q0 94 71 148t186 59l23 115h36l-23-116q54-2 104-18t85-42l-24-42q-72 53-174 58zM172 453l36-27 105-48 56 281q-90-5-143-46t-54-110q0-50 36-77zm319-222l-20 23-52 38-82 29-56-281q96 2 153 43t57 112q0 36-20 59z"/><glyph unicode="%" glyph-name="percent" horiz-adv-x="817" d="M163 327l-35 39-36 108q0 60 22 112t65 85 97 32q61 0 96-39t36-108q0-60-22-112t-65-85-97-32q-61 0-96 39zm547 373h47L142 0H95l615 700zM270 360l33 28 50 73 17 92q0 55-25 86t-71 31q-44 0-77-28t-50-73-17-92q0-55 25-86t71-31q44 0 77 28zM515-4l-35 39-36 108q0 60 23 112t65 85 97 32q61 0 96-39t35-108q0-60-22-112t-65-85-97-32q-61 0-96 39zm108 33l33 28 50 73 17 92q0 55-25 86t-72 31q-44 0-77-28t-50-73-17-92q0-55 25-86t72-31q44 0 77 28z"/><glyph unicode="&amp;" glyph-name="ampersand" horiz-adv-x="655" d="M569 194l-55-65 82-108-35-31-79 104Q380-5 235-5 142-5 87 37T31 151q0 68 52 123t174 117l-1 1q-30 40-45 75t-15 70q0 77 51 122t134 45q65 0 104-32t39-85q0-42-20-75t-62-64-118-68l164-217q47 60 80 144l40-13q-39-100-94-165zM243 513l13-31 43-69 1-1q71 34 109 60t54 52 17 60q0 35-27 58t-74 23q-62 0-99-33t-37-90q0-29 13-60zM365 37l92 91-176 231q-76-38-119-69t-62-63-19-70q0-54 42-87t115-33q127 0 219 91z"/><glyph unicode="'" glyph-name="quotesingle" horiz-adv-x="194" d="M162 700h46l-55-258h-39l48 258z"/><glyph unicode="(" glyph-name="parenleft" horiz-adv-x="321" d="M117-138l-11 68L94 64q0 184 61 368t164 310h50Q266 614 204 428T141 62q0-126 41-256h-45q-20 56-31 124z"/><glyph unicode=")" glyph-name="parenright" horiz-adv-x="321" d="M116-66l62 186 63 366q0 126-41 256h45q20-56 31-124t12-134q0-184-61-368T63-194H13Q116-66 178 120z"/><glyph unicode="*" glyph-name="asterisk" horiz-adv-x="375" d="M285 564l111-71-21-31-116 76-29-149h-35l30 145-141-73-14 31 145 74-114 73 21 31 115-76 28 148h35l-29-147 143 75 14-33-143-73z"/><glyph unicode="+" glyph-name="plus" horiz-adv-x="569" d="M511 328H320l-37-185h-45l37 185H85l9 43h190l37 186h45l-37-186h190l-8-43z"/><glyph unicode="," glyph-name="comma" horiz-adv-x="200" d="M74 81l12-12 12-29q0-9-3-18T88 7 83-3L13-143h-36L38-1Q27 4 20 14t-7 23q0 19 13 31t31 13q17 0 29-12z"/><glyph unicode="-" glyph-name="hyphen" horiz-adv-x="381" d="M68 291h257l-9-45H59l9 45z"/><glyph unicode="." glyph-name="period" horiz-adv-x="200" d="M37-4L25 8 13 37q0 19 13 31t31 13q17 0 29-12t12-29q0-18-13-31T54-4Q37-4 25 8z"/><glyph unicode="/" glyph-name="slash" horiz-adv-x="320" d="M420 842h49L-46-100h-50l516 942z"/><glyph unicode="0" glyph-name="zero" horiz-adv-x="658" d="M179-5l-58 66-59 184q0 119 43 224t122 171 183 65q104 0 162-66t58-184q0-119-42-224T466 60 283-5Q179-5 121 61zm197 47l66 61 102 156 36 195q0 98-46 151t-129 53q-89 0-155-61T149 441t-36-195q0-98 45-151t130-53q88 0 154 61z"/><glyph unicode="1" glyph-name="one" horiz-adv-x="353" d="M319 700L179 0h-51l131 654H88l9 46h222z"/><glyph unicode="2" glyph-name="two" horiz-adv-x="563" d="M78 46h401l-9-46H-12l8 36 358 293q78 64 107 110t30 98q0 57-40 89t-123 33q-59 0-113-21t-90-61l-36 31q43 46 107 71t138 26q101 0 154-44t54-118q0-62-34-118T389 299L78 46z"/><glyph unicode="3" glyph-name="three" horiz-adv-x="558" d="M559 664L296 394q97-4 148-49t51-125q0-66-34-117t-98-79T217-5Q137-5 75 20t-94 70l31 38q26-39 80-62t128-24q103 0 163 47t60 129q0 134-182 134h-38l8 37 258 265H118l9 46h438l-6-36z"/><glyph unicode="4" glyph-name="four" horiz-adv-x="654" d="M626 194H479L440 0h-51l39 194H30l7 37 469 469h61L107 239h331l35 171h49l-34-171h147l-9-45z"/><glyph unicode="5" glyph-name="five" horiz-adv-x="558" d="M234 654l-77-247h100q128 0 190-47t62-134q0-70-34-122t-97-80T231-5Q151-5 89 20T-5 90l31 38q26-39 81-62t128-24q105 0 164 47t59 132q0 68-50 104t-160 36H93l104 339h371l-9-46H234z"/><glyph unicode="6" glyph-name="six" horiz-adv-x="602" d="M329 660l-71-54-106-138-37-178q31 63 91 93t131 31q64 0 114-23t80-67 29-105q0-68-31-119t-88-78T313-5Q199-5 131 64T62 266q0 109 38 209t124 165 216 65q101 0 162-37l-26-42q-50 34-139 34-108 0-179-54zm-61-290l-46-23-72-63-26-88q0-40 21-76t64-58 103-23q89 0 143 47t54 129q0 73-50 114t-131 41q-60 0-106-23z"/><glyph unicode="7" glyph-name="seven" horiz-adv-x="581" d="M624 700l-7-36L185 0h-58l426 654H162l-27-134H85l36 180h503z"/><glyph unicode="8" glyph-name="eight" horiz-adv-x="632" d="M507 339l30-39 30-95q0-64-34-111t-98-73T288-5Q170-5 104 43T37 177q0 77 49 128t139 68q-47 20-71 55t-25 82q0 59 31 103t88 68 133 24q104 0 166-45t63-122q0-68-42-114t-118-64q57-21 87-60zM181 454l47-34 132-34q92 0 145 39t54 107q0 60-49 94t-132 35q-90 0-143-40t-54-108q0-59 47-93zM395 39l60 44 61 121q0 65-54 102t-150 38q-104 0-164-44T88 180q0-66 53-103t149-38q105 0 165 44z"/><glyph unicode="9" glyph-name="nine" horiz-adv-x="602" d="M439 705l68-69 68-202q0-109-38-209T413 60 197-5Q96-5 36 32l25 42q52-34 140-34 108 0 179 54t105 138 37 178q-31-63-90-93t-132-31q-64 0-114 23t-80 67-29 105q0 68 31 119t88 78 129 27q114 0 182-69zm-70-375l46 23 72 63 26 88q0 40-21 76t-64 58-103 23q-89 0-142-47t-54-129q0-73 49-114t131-41q60 0 106 23z"/><glyph unicode=":" glyph-name="colon" horiz-adv-x="200" d="M126 441l-12 12-12 29q0 19 13 31t31 13q17 0 29-12t12-29q0-18-13-31t-31-13q-17 0-29 12zM37-4L25 8 13 37q0 19 13 31t31 13q17 0 29-12t12-29q0-18-13-31T54-4Q37-4 25 8z"/><glyph unicode=";" glyph-name="semicolon" horiz-adv-x="200" d="M126 441l-12 12-12 29q0 19 13 31t31 13q17 0 29-12t12-29q0-18-13-31t-31-13q-17 0-29 12zM74 81l12-12 12-29q0-9-3-18T88 7 83-3L13-143h-36L38-1Q27 4 20 14t-7 23q0 19 13 31t31 13q17 0 29-12z"/><glyph unicode="&lt;" glyph-name="less" horiz-adv-x="569" d="M543 499L137 347l346-151-8-43L84 326l10 48 459 173-10-48z"/><glyph unicode="=" glyph-name="equal" horiz-adv-x="569" d="M117 484h425l-9-43H109l8 43zM72 258h425l-9-42H63l9 42z"/><glyph unicode="&gt;" glyph-name="greater" horiz-adv-x="569" d="M520 374l-10-48L52 153l10 48 405 151-346 152 9 43 390-173z"/><glyph unicode="?" glyph-name="question" horiz-adv-x="562" d="M237 244l20 32 46 55 65 50q40 28 62 48t38 50 16 68q0 54-40 83t-113 30q-70 0-122-20t-93-63l-33 32q91 96 254 96 93 0 145-40t53-111q0-49-17-84t-43-59-68-54q-55-40-85-72t-41-84h-52q8 43 28 75zM205-4L193 7l-12 28q0 18 12 30t30 13q17 0 29-11t12-28q0-18-12-30T221-4q-16 0-28 11z"/><glyph unicode="@" glyph-name="at" horiz-adv-x="1033" d="M711 705l91-45 138-126 47-191q0-90-28-170T882 45 776-4q-42 0-67 22t-25 60q0 5 2 19-38-48-93-74T470-4q-99 0-158 57t-60 154q0 86 37 156t102 111 149 41q80 0 131-35t71-99l26 130h46l-79-396q-3-15-3-26 0-52 55-52 43 0 80 44t59 115 22 147q0 98-42 171T782 627t-203 40q-146 0-258-66T147 421 85 171q0-99 41-173t122-116 193-42q55 0 105 11t90 33l9-38q-42-21-97-33t-112-12q-121 0-209 46T91-24 44 169q0 145 66 268t189 195 284 73q128 0 219-45zM549 38l55 34 86 94 32 135q0 82-48 127t-135 45q-69 0-123-34t-86-94-31-135q0-82 47-127t134-45q69 0 124 34z"/><glyph unicode="A" glyph-name="A" horiz-adv-x="705" d="M546 197H139L10 0h-57l462 700h51L648 0h-52l-50 197zm-11 43L432 646 167 240h368z"/><glyph unicode="B" glyph-name="B" horiz-adv-x="752" d="M616 347l32-36 32-95q0-104-78-160T385 0H70l140 700h290q99 0 154-37t56-109q0-75-42-124t-112-70q60-13 92-49zm-420 30h239q100 0 161 43t61 126q0 55-43 82t-123 28H252l-56-279zM505 44l62 44 62 126q0 63-44 91t-133 28H188L130 44h260q115 0 177 44z"/><glyph unicode="C" glyph-name="C" horiz-adv-x="716" d="M287-5l-72 36-110 101-38 151q0 114 52 211t148 154 224 57q81 0 144-25t99-71l-36-33q-70 82-211 82-110 0-194-50T164 472t-46-187q0-112 71-177t204-66q144 0 231 84l31-35q-46-46-115-71T389-5Q287-5 215 31z"/><glyph unicode="D" glyph-name="D" horiz-adv-x="826" d="M210 700h260q103 0 176-35t112-99 38-149q0-121-54-216T589 53 360 0H70l140 700zM363 46q115 0 201 47t133 131 47 191q0 111-71 175t-209 64H252L130 46h233z"/><glyph unicode="E" glyph-name="E" horiz-adv-x="669" d="M252 654l-55-276h372l-9-45H188L130 46h432L552 0H70l140 700h468l-10-46H252z"/><glyph unicode="F" glyph-name="F" horiz-adv-x="631" d="M252 654l-60-299h372l-9-46H183L121 0H70l140 700h468l-10-46H252z"/><glyph unicode="G" glyph-name="G" horiz-adv-x="773" d="M576 705l64-25 103-72-36-32q-70 82-218 82-110 0-194-50T164 473t-46-188q0-112 71-177t206-66q110 0 196 64l49 241h49L636 84q-47-42-111-65T389-5Q288-5 216 31T105 132 67 283q0 115 52 211t148 154 225 57q84 0 148-25z"/><glyph unicode="H" glyph-name="H" horiz-adv-x="814" d="M780 700L640 0h-51l66 332H187L121 0H70l140 700h51l-64-321h468l64 321h51z"/><glyph unicode="I" glyph-name="I" horiz-adv-x="295" d="M210 700h51L121 0H70l140 700z"/><glyph unicode="J" glyph-name="J" horiz-adv-x="491" d="M83-5L36 22l-70 73 38 32q19-40 57-63t89-23q66 0 105 37t58 126l90 450H145l9 46h309L363 201Q341 90 289 43T147-5Q83-5 36 22z"/><glyph unicode="K" glyph-name="K" horiz-adv-x="703" d="M383 376L642 0h-59L346 345 158 184 121 0H70l140 700h51l-89-445 521 445h69L383 376z"/><glyph unicode="L" glyph-name="L" horiz-adv-x="585" d="M210 700h51L130 46h403L523 0H70l140 700z"/><glyph unicode="M" glyph-name="M" horiz-adv-x="956" d="M921 700L781 0h-50l119 595L463 93h-25L240 602 120 0H70l140 700h42l209-541 415 541h45z"/><glyph unicode="N" glyph-name="N" horiz-adv-x="814" d="M780 700L640 0h-43L244 616 121 0H70l140 700h42L606 84l123 616h51z"/><glyph unicode="O" glyph-name="O" horiz-adv-x="838" d="M286-5l-72 36-109 101-38 151q0 114 51 210t147 154 221 58q101 0 173-36t110-101 38-151q0-114-52-210T608 53 387-5Q286-5 214 31zm213 47l83 50 128 136 45 187q0 112-70 177t-203 66q-107 0-190-50T164 472t-46-187q0-111 71-177t203-66q107 0 190 50z"/><glyph unicode="P" glyph-name="P" horiz-adv-x="715" d="M570 700l64-50 64-143q0-133-86-205t-236-73H167L121 0H70l140 700h244q116 0 180-50zm-64-425l70 58 70 170q0 73-50 112t-145 39H252l-76-379h200q130 0 200 58z"/><glyph unicode="Q" glyph-name="Q" horiz-adv-x="838" d="M629-90l36 16 62 49 25-33q-31-37-74-56t-92-19q-65 0-118 32T367-5q-95 4-162 41T102 136 67 283q0 114 51 210t147 154 221 58q101 0 173-36t110-101 38-151q0-107-46-199T631 67 433-3q65-87 155-87 41 0 77 16zM118 174l71-66 203-66q107 0 190 50t128 136 45 187q0 112-70 177t-203 66q-107 0-190-50T164 472t-46-187q0-111 71-177z"/><glyph unicode="R" glyph-name="R" horiz-adv-x="720" d="M698 399l-57-68-163-91L613 0h-56L426 232q-32-2-49-2H167L121 0H70l140 700h245q116 0 179-50t64-143q0-108-57-176zM507 275l70 58 70 170q0 73-50 112t-145 39H252l-76-379h201q130 0 200 58z"/><glyph unicode="S" glyph-name="S" horiz-adv-x="609" d="M189-5l-69 26L18 88l27 39q32-38 94-62t130-25q101 0 161 41t61 114q0 38-22 62t-56 38-91 30q-66 20-106 37t-67 50-28 86q0 64 35 111t96 71 140 25q61 0 116-16t95-45l-24-42q-37 28-86 43t-103 15q-98 0-158-42t-60-115q0-39 23-64t56-39 93-31q66-20 105-36t66-49 27-83q0-98-77-152T265-5q-76 0-145 26z"/><glyph unicode="T" glyph-name="T" horiz-adv-x="563" d="M334 654H82l10 46h555l-9-46H386L255 0h-51l130 654z"/><glyph unicode="U" glyph-name="U" horiz-adv-x="793" d="M244-5l-64 59-65 165q0 33 8 78l81 403h51l-80-402q-8-36-8-76 0-88 51-134t146-46q110 0 176 62t93 194l80 402h51l-81-405Q624-5 361-5 244-5 180 54z"/><glyph unicode="V" glyph-name="V" horiz-adv-x="687" d="M769 700L316 0h-50L93 700h54L302 66l411 634h56z"/><glyph unicode="W" glyph-name="W" horiz-adv-x="1098" d="M1146 700L769 0h-54l-92 626L279 0h-54l-98 700h51l88-632 346 632h48l92-632 342 632h52z"/><glyph unicode="X" glyph-name="X" horiz-adv-x="642" d="M368 360L568 0h-54L335 324 30 0h-62l344 364-185 336h54l166-300 283 300h60L368 360z"/><glyph unicode="Y" glyph-name="Y" horiz-adv-x="625" d="M332 235L285 0h-51l48 241L92 700h53l171-414 335 414h57L332 235z"/><glyph unicode="Z" glyph-name="Z" horiz-adv-x="646" d="M681 664L77 46h491L558 0H-6l8 36 603 618H132l9 46h547l-7-36z"/><glyph unicode="[" glyph-name="bracketleft" horiz-adv-x="306" d="M217 742h161l-8-43H259L89-151h111l-8-43H30l187 936z"/><glyph unicode="\" glyph-name="backslash" horiz-adv-x="320" d="M227-100L83 842h44l144-942h-44z"/><glyph unicode="]" glyph-name="bracketright" horiz-adv-x="306" d="M-67-194l9 43H53l169 850H111l9 43h161L94-194H-67z"/><glyph unicode="^" glyph-name="asciicircum" horiz-adv-x="570" d="M416 144l-79 367-225-367H66l256 412h44l91-412h-41z"/><glyph unicode="_" glyph-name="underscore" horiz-adv-x="500" d="M-52 0h500l-7-36H-59l7 36z"/><glyph unicode="`" glyph-name="grave" horiz-adv-x="600" d="M238 725h72l116-118h-54L238 725z"/><glyph unicode="a" glyph-name="a" horiz-adv-x="675" d="M622 522L518 0h-48l20 102q-38-50-94-78T270-4Q168-4 107 54T45 213q0 89 38 160t105 112 152 41q81 0 134-35t72-99l26 130h50zM350 41l55 34 88 94 32 137q0 83-48 129t-137 46q-70 0-125-34t-88-95-32-136q0-83 48-129t137-46q70 0 125 34z"/><glyph unicode="b" glyph-name="b" horiz-adv-x="675" d="M507 526l62-58 62-159q0-89-38-160T487 37 335-4q-82 0-135 35t-72 102L102 0H53l148 742h50l-63-318q38 49 93 75t124 27q102 0 164-58zM406 41l55 34 87 95 32 136q0 83-48 129t-137 46q-70 0-125-34t-88-94-32-137q0-83 49-129t137-46q70 0 125 34z"/><glyph unicode="c" glyph-name="c" horiz-adv-x="555" d="M172-4l-63 59-64 158q0 89 38 160t107 112 155 41q70 0 120-24t78-74l-41-25q-47 78-160 78-71 0-127-34t-88-95-32-136q0-83 49-129t140-46q52 0 97 20t76 56l35-28q-34-44-90-68T280-4Q172-4 109 55z"/><glyph unicode="d" glyph-name="d" horiz-adv-x="675" d="M666 742L518 0h-48l20 102q-38-50-94-78T270-4Q168-4 107 54T45 213q0 89 38 160t105 112 152 41q81 0 134-35t72-100l70 351h50zM350 41l55 34 88 94 32 137q0 83-48 129t-137 46q-70 0-125-34t-88-95-32-136q0-83 48-129t137-46q70 0 125 34z"/><glyph unicode="e" glyph-name="e" horiz-adv-x="598" d="M96 250q-2-22-2-33 0-85 49-130t144-46q55 0 101 18t78 52l23-35q-35-38-89-59T283-4Q172-4 109 54T45 215q0 88 37 159t102 111 146 41q102 0 162-58t60-160q0-24-6-58H96zm148 233l-61-53-81-141h402q1 9 1 26 0 79-48 123t-128 45q-85 0-146-53z"/><glyph unicode="f" glyph-name="f" horiz-adv-x="328" d="M301 703l-29-26-40-83-15-72h167l-8-43H209L114 0H64l96 479H63l8 43h97l16 79q14 71 56 108t111 37q31 0 58-9t43-26l-24-36q-30 28-78 28-49 0-78-26z"/><glyph unicode="g" glyph-name="g" horiz-adv-x="682" d="M629 522L536 56q-26-133-98-193t-199-61q-72 0-130 21t-96 61l32 37q32-35 83-54t115-20q104 0 163 49t79 152l16 78q-39-51-97-79T275 19q-105 0-166 56T47 227q0 84 38 152t106 108 153 39q82 0 137-35t74-102l26 133h48zM355 64l56 32 88 90 32 130q0 78-49 121t-138 44q-71 0-127-32t-88-90-32-130q0-78 49-121t138-44q71 0 127 32z"/><glyph unicode="h" glyph-name="h" horiz-adv-x="673" d="M491 526l48-44 48-123q0-27-6-57L521 0h-50l60 302q5 23 5 50 0 62-37 95t-110 34q-90 0-150-50t-79-147L103 0H53l148 742h50l-63-317q74 101 214 101 89 0 137-44z"/><glyph unicode="i" glyph-name="i" horiz-adv-x="261" d="M157 522h50L103 0H53l104 522zm40 127l-11 11-11 26q0 18 12 31t32 13q16 0 27-11t12-26q0-19-13-31t-32-13q-16 0-27 11z"/><glyph unicode="j" glyph-name="j" horiz-adv-x="266" d="M-98-198l-27 9-47 25 26 38q32-29 82-29 46 0 73 26t39 81l114 570h50L97-52q-14-74-54-110t-109-36q-32 0-59 9zm299 847l-11 11-11 26q0 18 12 31t32 13q16 0 27-11t12-26q0-19-13-31t-32-13q-16 0-27 11z"/><glyph unicode="k" glyph-name="k" horiz-adv-x="576" d="M335 309L523 0h-58L296 279 134 154 103 0H53l148 742h50L147 219l389 303h73L335 309z"/><glyph unicode="l" glyph-name="l" horiz-adv-x="261" d="M201 742h50L103 0H53l148 742z"/><glyph unicode="m" glyph-name="m" horiz-adv-x="1064" d="M884 526l47-43 47-122q0-27-6-59L911 0h-50l61 302q5 23 5 51 0 61-36 94t-105 34q-86 0-143-47t-76-138L507 0h-50l61 302q5 23 5 51 0 61-36 94t-105 34q-87 0-145-50t-77-147L103 0H53l104 522h49l-20-98q37 52 90 77t119 25q72 0 116-30t58-87q39 58 97 87t130 30q88 0 135-43z"/><glyph unicode="n" glyph-name="n" horiz-adv-x="673" d="M491 526l48-44 48-123q0-27-6-57L521 0h-50l60 302q5 23 5 50 0 62-37 95t-110 34q-90 0-150-50t-79-147L103 0H53l104 522h49l-20-99q37 52 92 77t124 26q89 0 137-44z"/><glyph unicode="o" glyph-name="o" horiz-adv-x="620" d="M170-4l-62 59-63 158q0 89 38 160t107 112 154 41q106 0 168-58t63-159q0-89-38-160T430 37 276-4Q170-4 108 55zm180 45l55 34 88 94 32 137q0 83-48 129t-137 46q-70 0-125-34t-88-95-32-136q0-83 48-129t137-46q70 0 125 34z"/><glyph unicode="p" glyph-name="p" horiz-adv-x="675" d="M507 526l62-58 62-159q0-89-38-160T487 37 335-4q-81 0-133 34t-73 100L64-194H14l143 716h49l-20-101q38 50 94 77t125 28q102 0 164-58zM406 41l55 34 87 95 32 136q0 83-48 129t-137 46q-70 0-125-34t-88-94-32-137q0-83 49-129t137-46q70 0 125 34z"/><glyph unicode="q" glyph-name="q" horiz-adv-x="675" d="M622 522L479-194h-50l59 293q-38-49-94-76T270-4Q168-4 107 54T45 213q0 89 38 160t105 112 152 41q82 0 135-35t72-102l27 133h48zM350 41l55 34 88 94 32 137q0 83-48 129t-137 46q-70 0-125-34t-88-95-32-136q0-83 48-129t137-46q70 0 125 34z"/><glyph unicode="r" glyph-name="r" horiz-adv-x="394" d="M219 469l54 28 133 29-9-49-16 1q-89 0-146-53t-78-157L103 0H53l104 522h49l-22-110q35 57 89 85z"/><glyph unicode="s" glyph-name="s" horiz-adv-x="478" d="M135-4L80 14-7 62l27 39q29-28 77-44t103-17q81 0 125 28t45 80q0 29-18 46t-44 25-72 19q-54 11-87 23t-57 37-23 70q0 72 59 115t159 43q50 0 97-13t75-38l-23-39q-29 23-69 34t-84 12q-76 0-120-30t-45-79q0-30 18-47t45-27 74-19q54-11 86-22t56-37 23-68q0-73-61-115T196-4Q135-4 80 14z"/><glyph unicode="t" glyph-name="t" horiz-adv-x="398" d="M144 151q-4-19-4-37 0-75 80-75 48 0 85 29l15-37Q277-4 208-4q-56 0-87 29t-32 82q0 21 4 40l67 332H63l8 43h97l23 114h50l-23-114h166l-8-43H210l-66-328z"/><glyph unicode="u" glyph-name="u" horiz-adv-x="669" d="M616 522L512 0h-49l20 99Q410-4 269-4q-88 0-135 44T86 163q0 27 6 57l60 302h50l-60-302q-5-22-5-50 0-62 36-95t109-34q90 0 149 50t78 147l57 284h50z"/><glyph unicode="v" glyph-name="v" horiz-adv-x="528" d="M577 522L238 0h-51L55 522h51L222 55l302 467h53z"/><glyph unicode="w" glyph-name="w" horiz-adv-x="861" d="M908 522L613 0h-48l-95 454L210 0h-48L58 522h46l91-466 265 466h43l94-465 262 465h49z"/><glyph unicode="x" glyph-name="x" horiz-adv-x="519" d="M288 266L443 0h-54L255 233 30 0h-60l263 270L87 522h53l126-218 211 218h59L288 266z"/><glyph unicode="y" glyph-name="y" horiz-adv-x="528" d="M577 522L187-77q-44-68-83-94t-94-27q-36 0-68 12t-50 34l29 37q35-39 94-39 36 0 65 20t63 70l44 66L55 522h51L223 55l302 467h52z"/><glyph unicode="z" glyph-name="z" horiz-adv-x="503" d="M498 488L68 43h347l-9-43H-9l7 34 429 445H93l8 43h404l-7-34z"/><glyph unicode="{" glyph-name="braceleft" horiz-adv-x="320" d="M393 742l-9-43h-28q-76 0-91-73l-56-278q-7-34-20-51t-36-24q29-13 29-48 0-11-3-25L127-61q-3-17-3-30 0-30 16-45t45-15h30l-9-43h-32q-47 0-74 24t-28 69q0 19 4 36l53 266q2 14 2 18 0 34-36 34H60l9 43h35q23 0 36 12t18 39l57 283q11 57 46 84t100 28h32z"/><glyph unicode="|" glyph-name="bar" horiz-adv-x="291" d="M218 742h47L78-194H31l187 936z"/><glyph unicode="}" glyph-name="braceright" horiz-adv-x="320" d="M265 295l-9-43h-34q-24 0-37-12t-18-39L110-82q-11-57-46-84t-99-28h-33l9 43h29q76 0 91 73l56 278q7 35 19 51t36 24q-29 13-29 49 0 11 3 24l53 261q3 17 3 29 0 31-16 46t-46 15h-29l8 43h33q47 0 74-23t27-70q0-19-4-36l-53-266q-2-12-2-17 0-35 36-35h35z"/><glyph unicode="~" glyph-name="asciitilde" horiz-adv-x="569" d="M362 278l-23 15-51 43q-23 24-40 35t-40 12q-38 0-65-27t-37-74H69q13 67 50 104t89 37q35 0 58-15t50-43q23-24 40-35t40-12q38 0 65 27t38 73h36q-13-67-50-103t-88-37q-35 0-58 15z"/><glyph glyph-name="uni00A0" horiz-adv-x="257"/><glyph unicode="¡" glyph-name="exclamdown" horiz-adv-x="252" d="M153 444l-12 11-12 28q0 18 12 30t31 13q17 0 28-11t12-29q0-17-12-29t-30-13q-17 0-29 11zm-34-123h38L72-154H14l105 475z"/><glyph unicode="¢" glyph-name="cent" horiz-adv-x="555" d="M461 471l-92 9-88-439h3q52 0 97 20t76 56l35-28q-34-44-90-68T280-4h-8l-23-116h-37L236-1Q147 11 96 68T45 213q0 89 38 160t105 111 153 42l23 116h37l-23-117q115-11 165-97l-41-25q-41 68-133 77zM95 142l38-44 112-55 87 438q-68-2-122-37t-84-94-31-134q0-74 38-118z"/><glyph unicode="£" glyph-name="sterling" horiz-adv-x="629" d="M382 658l-62-47-82-148-19-95h285l-7-36H212L154 46h403l-9-46H-22l9 46h116l57 286H43l8 36h116l20 101q23 118 102 177t200 59q63 0 113-14t84-44l-26-41q-60 52-174 52-104 0-166-47z"/><glyph unicode="¤" glyph-name="currency" horiz-adv-x="700" d="M639 267l-18-45-52-82L675 35 644 3 536 110q-37-28-82-44t-93-16q-49 0-93 16t-82 45L77 3 47 35l106 106q-33 36-51 81t-18 95q0 50 18 95t51 82L47 600l30 32 108-107q37 30 82 46t94 16q49 0 94-16t82-45l107 106 31-32-106-105q33-36 51-82t19-96q0-50-18-95zm-512-11l31-51 86-81 117-31q63 0 117 30t87 82 32 112q0 61-32 113t-86 83-118 31q-63 0-117-30t-85-83-32-114q0-61 31-112z"/><glyph unicode="¥" glyph-name="yen" horiz-adv-x="685" d="M401 313h206l-7-34H372l-21-104h228l-7-34H344L316 0h-52l28 141H64l7 34h228l21 104H92l7 34h211L92 700h54l209-375 357 375h56L401 313z"/><glyph unicode="¦" glyph-name="brokenbar" horiz-adv-x="291" d="M218 742h47l-70-350h-47l70 350zM101 156h47L78-194H31l70 350z"/><glyph unicode="§" glyph-name="section" horiz-adv-x="482" d="M290 662l-40-16-62-43-21-60q0-31 17-50t42-29 70-23q50-13 81-26t53-41 22-71q0-52-32-91t-88-57q48-33 48-94 0-48-28-85t-79-59-118-21q-57 0-105 18t-79 49L-4 1q66-63 165-63 80 0 126 33t47 87q0 30-17 49t-44 30-69 23q-50 15-81 28t-53 40-22 70q0 49 32 89t89 58q-48 33-48 95 0 47 28 84t80 59 118 21q52 0 101-14t77-38l-24-37q-28 23-69 35t-88 12q-54 0-94-16zm117-331l-17 19-44 30-70 24q-36 9-62 19-56-13-88-46t-32-75q0-30 17-49t43-31 70-24q46-13 63-20 57 12 88 44t32 77q0 32-17 51z"/><glyph unicode="¨" glyph-name="dieresis" horiz-adv-x="600" d="M279 634l-10 9-10 24q0 16 11 27t27 12q14 0 24-9t10-24q0-16-11-27t-27-12q-14 0-24 9zm173 0l-10 9-10 24q0 16 11 27t26 12q14 0 24-9t11-24q0-16-11-27t-27-12q-14 0-24 9z"/><glyph unicode="©" glyph-name="copyright" horiz-adv-x="815" d="M326-3l-80 47-127 128-47 178q0 97 46 178t128 128 180 47q99 0 179-46t127-126 46-179q0-98-47-179T603 44 424-3q-98 0-178 47zm188 29l74 43 117 118 43 165q0 90-42 163T591 631t-165 43q-90 0-164-43T145 514t-43-164q0-89 42-163T261 69t163-43q90 0 164 43zM374 141l-47 26-74 74-27 109q0 61 27 108t74 74 106 27q49 0 89-19t67-54l-32-25q-21 30-53 45t-72 15q-47 0-84-21t-58-61-22-89q0-50 21-89t59-60 84-22q39 0 71 15t54 45l32-24q-26-36-66-55t-90-19q-59 0-106 26z"/><glyph unicode="ª" glyph-name="ordfeminine" horiz-adv-x="398" d="M336 745l31-23 31-70q0-13-3-30l-38-190h-38l10 50q-45-53-125-53-51 0-80 21t-29 56q0 47 36 73t100 26h121l4 20q3 14 3 24 0 32-22 48t-64 16q-32 0-64-10t-55-28l-14 28q26 19 63 30t76 12q57 0 88-23zm-47-287l45 60 13 61H230q-46 0-71-18t-26-51q0-52 79-52 77 0 122 60z"/><glyph unicode="«" glyph-name="guillemotleft" horiz-adv-x="455" d="M104 260L209 74h-48L53 261l183 188h51L104 260zm167 0L376 74h-48L220 261l183 188h51L271 260z"/><glyph unicode="¬" glyph-name="logicalnot" horiz-adv-x="569" d="M475 149h-45l36 180H85l9 42h425l-44-222z"/><glyph unicode="­" glyph-name="uni00AD" horiz-adv-x="381" d="M68 291h257l-9-45H59l9 45z"/><glyph unicode="®" glyph-name="registered" horiz-adv-x="815" d="M525 703l80-46 127-126 46-179q0-98-47-179T603 44 424-3q-98 0-178 47T119 172 72 350q0 97 46 178t128 128 180 47q99 0 179-46zM514 26l74 43 117 118 43 165q0 90-42 163T591 631t-165 43q-90 0-164-43T145 514t-43-164q0-89 42-163T261 69t163-43q90 0 164 43zm88 348l-25-33-70-47 97-149h-41l-92 142q-8-1-26-1H330V145h-39v410h154q72 0 114-36t43-98q0-47-25-80zm-102-54l32 26 32 75q0 47-32 73t-90 27H329V320h113q58 0 90 26z"/><glyph unicode="¯" glyph-name="overscore" horiz-adv-x="600" d="M237 684h294l-7-36H230l7 36z"/><glyph unicode="°" glyph-name="degree" horiz-adv-x="419" d="M225 394l-35 21-57 56-21 78q0 43 21 78t56 56 79 21q42 0 78-20t56-56 21-79q0-42-21-77t-56-57-78-21q-43 0-78 21zm94 32l35 36 36 87q0 52-35 87t-87 36q-52 0-87-35t-35-88q0-52 35-87t87-36q51 0 86 36z"/><glyph unicode="±" glyph-name="plusminus" horiz-adv-x="569" d="M523 390l-9-43H324l-37-183h-45l37 183H89l8 43h190l37 184h45l-37-184h191zM28 43h425l-9-43H20l8 43z"/><glyph unicode="²" glyph-name="uni00B2" horiz-adv-x="430" d="M133 361h259l-7-34H62l5 26 225 165q56 41 75 67t20 55q0 34-27 52t-79 19q-85 0-138-48l-24 24q29 28 71 43t95 15q67 0 104-27t37-75q0-36-22-68t-85-78L133 361z"/><glyph unicode="³" glyph-name="uni00B3" horiz-adv-x="430" d="M441 716L276 563q63-1 97-29t34-75q0-63-50-99t-135-36q-53 0-96 15t-66 40l21 29q22-23 59-36t85-14q67 0 105 26t38 73q0 36-27 55t-79 20h-43l5 27 160 149H132l7 34h307l-5-26z"/><glyph unicode="´" glyph-name="acute" horiz-adv-x="600" d="M462 725h75L367 607h-57l152 118z"/><glyph unicode="µ" glyph-name="uni00B5" horiz-adv-x="675" d="M621 522L517 0h-48l20 99q-37-52-90-77T283-4Q158-4 120 81L65-194H15l143 716h50l-60-302q-5-22-5-50 0-62 36-95t108-34q90 0 149 50t79 147l56 284h50z"/><glyph unicode="¶" glyph-name="paragraph" horiz-adv-x="619" d="M254 405q-76 1-123 39T83 549q0 94 67 143t178 50h265L425-100h-44l160 801H356L197-100h-44l101 505z"/><glyph unicode="·" glyph-name="middot" horiz-adv-x="240" d="M103 225l-12 12-12 29q0 19 12 32t31 13q17 0 29-12t12-29q0-19-12-32t-31-13q-17 0-29 12z"/><glyph unicode="¸" glyph-name="cedilla" horiz-adv-x="600" d="M142-217l-31 25 19 28q27-21 66-21 33 0 52 16t20 44q0 21-15 32t-43 12h-19l41 87h33l-27-59q33-4 51-22t19-48q0-41-32-67t-83-27q-51 0-82 25z"/><glyph unicode="¹" glyph-name="uni00B9" horiz-adv-x="430" d="M385 360l-7-33H99l6 33h127l70 349H183l6 33h159l-76-382h113z"/><glyph unicode="º" glyph-name="ordmasculine" horiz-adv-x="412" d="M182 429l-41 37-41 99q0 50 25 91t69 65 99 24q67 0 107-37t41-98q0-51-24-92t-69-65-99-24q-67 0-108 37zm114 34l34 19 54 53 19 74q0 46-31 74t-82 29q-44 0-78-19t-54-53-20-74q0-47 31-75t84-28q43 0 77 19z"/><glyph unicode="»" glyph-name="guillemotright" horiz-adv-x="455" d="M235 261L52 74H2l182 190L80 449h47l108-188zm167 0L219 74h-50l182 190-104 185h47l108-188z"/><glyph unicode="¼" glyph-name="onequarter" horiz-adv-x="1025" d="M377 318l-7-33H91l6 33h127l70 349H175l6 33h159l-76-382h113zm437 382h47L247 0h-47l614 700zm149-588h-94L847 0h-39l23 112H595l6 27 263 276h47L653 145h187l19 97h36l-19-97h94l-7-33z"/><glyph unicode="½" glyph-name="onehalf" horiz-adv-x="1025" d="M377 318l-7-33H91l6 33h127l70 349H175l6 33h159l-76-382h113zm437 382h47L247 0h-47l614 700zM663 34h259l-7-34H592l5 26 225 165q56 41 75 67t20 55q0 34-27 52t-79 19q-85 0-138-48l-24 24q29 28 71 43t95 15q67 0 104-27t37-75q0-36-22-68t-85-78L663 34z"/><glyph unicode="¾" glyph-name="threequarters" horiz-adv-x="1025" d="M433 674L268 521q63-1 97-29t34-75q0-63-50-99t-135-36q-53 0-96 15t-66 40l21 29q22-23 59-36t85-14q67 0 105 26t38 73q0 36-27 55t-79 20h-43l5 27 160 149H124l7 34h307l-5-26zm381 26h47L247 0h-47l614 700zm149-588h-94L847 0h-39l23 112H595l6 27 263 276h47L653 145h187l19 97h36l-19-97h94l-7-33z"/><glyph unicode="¿" glyph-name="questiondown" horiz-adv-x="562" d="M322 444l-11 11-12 28q0 18 12 30t30 13q17 0 28-11t12-28q0-18-12-30t-30-13q-17 0-28 11zM136-159l-52 40L31-9q0 46 18 80t44 57 69 54q52 36 81 66t38 73h52q-10-54-42-88t-91-75q-40-27-63-47T98 62 82-4q0-51 40-80t113-30q70 0 122 20t93 63l33-32q-91-96-254-96-93 0-145 40z"/><glyph unicode="À" glyph-name="Agrave" horiz-adv-x="705" d="M546 197H139L10 0h-57l462 700h51L648 0h-52l-50 197zm-11 43L432 646 167 240h368zM320 875h72l116-118h-54L320 875z"/><glyph unicode="Á" glyph-name="Aacute" horiz-adv-x="705" d="M546 197H139L10 0h-57l462 700h51L648 0h-52l-50 197zm-11 43L432 646 167 240h368zm9 635h75L449 757h-57l152 118z"/><glyph unicode="Â" glyph-name="Acircumflex" horiz-adv-x="705" d="M546 197H139L10 0h-57l462 700h51L648 0h-52l-50 197zm-11 43L432 646 167 240h368zm22 517l-95 87-113-87h-52l140 118h55l113-118h-48z"/><glyph unicode="Ã" glyph-name="Atilde" horiz-adv-x="705" d="M546 197H139L10 0h-57l462 700h51L648 0h-52l-50 197zm-11 43L432 646 167 240h368zm-30 525l-15 9-37 29q-16 15-28 23t-27 8q-22 0-37-17t-21-48h-33q7 46 31 73t61 27q21 0 36-9t37-29q16-15 28-23t27-8q22 0 38 17t21 46h33q-8-45-32-71t-60-27q-22 0-37 9z"/><glyph unicode="Ä" glyph-name="Adieresis" horiz-adv-x="705" d="M546 197H139L10 0h-57l462 700h51L648 0h-52l-50 197zm-11 43L432 646 167 240h368zM361 784l-10 9-10 24q0 16 11 27t27 12q14 0 24-9t10-24q0-16-11-27t-27-12q-14 0-24 9zm173 0l-10 9-10 24q0 16 11 27t26 12q14 0 24-9t11-24q0-16-11-27t-27-12q-14 0-24 9z"/><glyph unicode="Å" glyph-name="Aring" horiz-adv-x="705" d="M546 197H139L10 0h-57l462 700h51L648 0h-52l-50 197zm-11 43L432 646 167 240h368zM432 774l-28 28-29 69q0 41 28 70t71 30q42 0 71-29t29-71q0-40-28-68t-72-29q-42 0-70 28zm73 28l20 20 20 49q0 30-20 50t-51 21q-30 0-49-20t-20-51q0-30 19-49t50-20q31 0 51 20z"/><glyph unicode="Æ" glyph-name="AE" horiz-adv-x="1022" d="M605 654l-55-276h372l-9-45H541L483 46h432L905 0H423l39 197H172L12 0h-60l571 700h508l-10-46H605zM471 240l83 415h-9L207 240h264z"/><glyph unicode="Ç" glyph-name="Ccedilla" horiz-adv-x="716" d="M287-5l-72 36-110 101-38 151q0 114 52 211t148 154 224 57q81 0 144-25t99-71l-36-33q-70 82-211 82-110 0-194-50T164 472t-46-187q0-112 71-177t204-66q144 0 231 84l31-35q-46-46-115-71T389-5Q287-5 215 31zm-30-212l-31 25 19 28q27-21 66-21 33 0 52 16t20 44q0 21-15 32t-43 12h-19l41 87h33l-27-59q33-4 51-22t19-48q0-41-32-67t-83-27q-51 0-82 25z"/><glyph unicode="È" glyph-name="Egrave" horiz-adv-x="669" d="M252 654l-55-276h372l-9-45H188L130 46h432L552 0H70l140 700h468l-10-46H252zm72 221h72l116-118h-54L324 875z"/><glyph unicode="É" glyph-name="Eacute" horiz-adv-x="669" d="M252 654l-55-276h372l-9-45H188L130 46h432L552 0H70l140 700h468l-10-46H252zm296 221h75L453 757h-57l152 118z"/><glyph unicode="Ê" glyph-name="Ecircumflex" horiz-adv-x="669" d="M252 654l-55-276h372l-9-45H188L130 46h432L552 0H70l140 700h468l-10-46H252zm309 103l-95 87-113-87h-52l140 118h55l113-118h-48z"/><glyph unicode="Ë" glyph-name="Edieresis" horiz-adv-x="669" d="M252 654l-55-276h372l-9-45H188L130 46h432L552 0H70l140 700h468l-10-46H252zm113 130l-10 9-10 24q0 16 11 27t27 12q14 0 24-9t10-24q0-16-11-27t-27-12q-14 0-24 9zm173 0l-10 9-10 24q0 16 11 27t26 12q14 0 24-9t11-24q0-16-11-27t-27-12q-14 0-24 9z"/><glyph unicode="Ì" glyph-name="Igrave" horiz-adv-x="295" d="M210 700h51L121 0H70l140 700zm-95 175h72l116-118h-54L115 875z"/><glyph unicode="Í" glyph-name="Iacute" horiz-adv-x="295" d="M210 700h51L121 0H70l140 700zm129 175h75L244 757h-57l152 118z"/><glyph unicode="Î" glyph-name="Icircumflex" horiz-adv-x="295" d="M210 700h51L121 0H70l140 700zm142 57l-95 87-113-87H92l140 118h55l113-118h-48z"/><glyph unicode="Ï" glyph-name="Idieresis" horiz-adv-x="295" d="M210 700h51L121 0H70l140 700zm-54 84l-10 9-10 24q0 16 11 27t27 12q14 0 24-9t10-24q0-16-11-27t-27-12q-14 0-24 9zm173 0l-10 9-10 24q0 16 11 27t26 12q14 0 24-9t11-24q0-16-11-27t-27-12q-14 0-24 9z"/><glyph unicode="Ð" glyph-name="Eth" horiz-adv-x="829" d="M213 700h260q103 0 176-35t112-99 38-149q0-121-54-216T592 53 363 0H73l140 700zM366 46q115 0 201 47t133 131 47 191q0 111-71 175t-209 64H255L133 46h233zM39 377h376l-9-43H30l9 43z"/><glyph unicode="Ñ" glyph-name="Ntilde" horiz-adv-x="814" d="M780 700L640 0h-43L244 616 121 0H70l140 700h42L606 84l123 616h51zm-220 65l-15 9-37 29q-16 15-28 23t-27 8q-22 0-37-17t-21-48h-33q7 46 31 73t61 27q21 0 36-9t37-29q16-15 28-23t27-8q22 0 38 17t21 46h33q-8-45-32-71t-60-27q-22 0-37 9z"/><glyph unicode="Ò" glyph-name="Ograve" horiz-adv-x="838" d="M286-5l-72 36-109 101-38 151q0 114 51 210t147 154 221 58q101 0 173-36t110-101 38-151q0-114-52-210T608 53 387-5Q286-5 214 31zm213 47l83 50 128 136 45 187q0 112-70 177t-203 66q-107 0-190-50T164 472t-46-187q0-111 71-177t203-66q107 0 190 50zM386 875h72l116-118h-54L386 875z"/><glyph unicode="Ó" glyph-name="Oacute" horiz-adv-x="838" d="M286-5l-72 36-109 101-38 151q0 114 51 210t147 154 221 58q101 0 173-36t110-101 38-151q0-114-52-210T608 53 387-5Q286-5 214 31zm213 47l83 50 128 136 45 187q0 112-70 177t-203 66q-107 0-190-50T164 472t-46-187q0-111 71-177t203-66q107 0 190 50zm111 833h75L515 757h-57l152 118z"/><glyph unicode="Ô" glyph-name="Ocircumflex" horiz-adv-x="838" d="M286-5l-72 36-109 101-38 151q0 114 51 210t147 154 221 58q101 0 173-36t110-101 38-151q0-114-52-210T608 53 387-5Q286-5 214 31zm213 47l83 50 128 136 45 187q0 112-70 177t-203 66q-107 0-190-50T164 472t-46-187q0-111 71-177t203-66q107 0 190 50zm124 715l-95 87-113-87h-52l140 118h55l113-118h-48z"/><glyph unicode="Õ" glyph-name="Otilde" horiz-adv-x="838" d="M286-5l-72 36-109 101-38 151q0 114 51 210t147 154 221 58q101 0 173-36t110-101 38-151q0-114-52-210T608 53 387-5Q286-5 214 31zm213 47l83 50 128 136 45 187q0 112-70 177t-203 66q-107 0-190-50T164 472t-46-187q0-111 71-177t203-66q107 0 190 50zm72 723l-15 9-37 29q-16 15-28 23t-27 8q-22 0-37-17t-21-48h-33q7 46 31 73t61 27q21 0 36-9t37-29q16-15 28-23t27-8q22 0 38 17t21 46h33q-8-45-32-71t-60-27q-22 0-37 9z"/><glyph unicode="Ö" glyph-name="Odieresis" horiz-adv-x="838" d="M286-5l-72 36-109 101-38 151q0 114 51 210t147 154 221 58q101 0 173-36t110-101 38-151q0-114-52-210T608 53 387-5Q286-5 214 31zm213 47l83 50 128 136 45 187q0 112-70 177t-203 66q-107 0-190-50T164 472t-46-187q0-111 71-177t203-66q107 0 190 50zm-72 742l-10 9-10 24q0 16 11 27t27 12q14 0 24-9t10-24q0-16-11-27t-27-12q-14 0-24 9zm173 0l-10 9-10 24q0 16 11 27t26 12q14 0 24-9t11-24q0-16-11-27t-27-12q-14 0-24 9z"/><glyph unicode="×" glyph-name="multiply" horiz-adv-x="569" d="M331 348l117-135-31-29-117 136-149-136-27 32 149 136-117 135 31 29 117-136 149 136 27-32-149-136z"/><glyph unicode="Ø" glyph-name="Oslash" horiz-adv-x="838" d="M286-5l-72 36-109 101-38 151q0 114 51 210t147 154 221 58q101 0 173-36t110-101 38-151q0-114-52-210T608 53 387-5Q286-5 214 31zm213 47l83 50 128 136 45 187q0 112-70 177t-203 66q-107 0-190-50T164 472t-46-187q0-111 71-177t203-66q107 0 190 50zm302 728h47L72-70H25l776 840z"/><glyph unicode="Ù" glyph-name="Ugrave" horiz-adv-x="793" d="M244-5l-64 59-65 165q0 33 8 78l81 403h51l-80-402q-8-36-8-76 0-88 51-134t146-46q110 0 176 62t93 194l80 402h51l-81-405Q624-5 361-5 244-5 180 54zm120 880h72l116-118h-54L364 875z"/><glyph unicode="Ú" glyph-name="Uacute" horiz-adv-x="793" d="M244-5l-64 59-65 165q0 33 8 78l81 403h51l-80-402q-8-36-8-76 0-88 51-134t146-46q110 0 176 62t93 194l80 402h51l-81-405Q624-5 361-5 244-5 180 54zm344 880h75L493 757h-57l152 118z"/><glyph unicode="Û" glyph-name="Ucircumflex" horiz-adv-x="793" d="M244-5l-64 59-65 165q0 33 8 78l81 403h51l-80-402q-8-36-8-76 0-88 51-134t146-46q110 0 176 62t93 194l80 402h51l-81-405Q624-5 361-5 244-5 180 54zm357 762l-95 87-113-87h-52l140 118h55l113-118h-48z"/><glyph unicode="Ü" glyph-name="Udieresis" horiz-adv-x="793" d="M244-5l-64 59-65 165q0 33 8 78l81 403h51l-80-402q-8-36-8-76 0-88 51-134t146-46q110 0 176 62t93 194l80 402h51l-81-405Q624-5 361-5 244-5 180 54zm161 789l-10 9-10 24q0 16 11 27t27 12q14 0 24-9t10-24q0-16-11-27t-27-12q-14 0-24 9zm173 0l-10 9-10 24q0 16 11 27t26 12q14 0 24-9t11-24q0-16-11-27t-27-12q-14 0-24 9z"/><glyph unicode="Ý" glyph-name="Yacute" horiz-adv-x="625" d="M332 235L285 0h-51l48 241L92 700h53l171-414 335 414h57L332 235zm172 640h75L409 757h-57l152 118z"/><glyph unicode="Þ" glyph-name="Thorn" horiz-adv-x="715" d="M552 605l63-50 64-144q0-133-86-205t-236-72H148L121 0H70l140 700h51l-19-95h195q115 0 178-50zm-65-426l70 58 70 171q0 73-50 112t-144 39H233l-76-380h201q129 0 199 58z"/><glyph unicode="ß" glyph-name="germandbls" horiz-adv-x="661" d="M531 372l35-39 35-101q0-71-34-124t-95-83T333-4q-29 0-61 5t-51 13l15 43q41-17 97-17 99 0 158 51t60 140q0 61-43 92t-118 32h-58l9 43q100 1 162 51t62 136q0 55-36 86t-104 31q-86 0-143-47t-79-150L102 0H52l101 503q25 124 96 183t179 60q86 0 136-42t50-115q0-70-40-125t-105-79q62-13 97-52z"/><glyph unicode="à" glyph-name="agrave" horiz-adv-x="675" d="M622 522L518 0h-48l20 102q-38-50-94-78T270-4Q168-4 107 54T45 213q0 89 38 160t105 112 152 41q81 0 134-35t72-99l26 130h50zM350 41l55 34 88 94 32 137q0 83-48 129t-137 46q-70 0-125-34t-88-95-32-136q0-83 48-129t137-46q70 0 125 34zm-88 684h72l116-118h-54L262 725z"/><glyph unicode="á" glyph-name="aacute" horiz-adv-x="675" d="M622 522L518 0h-48l20 102q-38-50-94-78T270-4Q168-4 107 54T45 213q0 89 38 160t105 112 152 41q81 0 134-35t72-99l26 130h50zM350 41l55 34 88 94 32 137q0 83-48 129t-137 46q-70 0-125-34t-88-95-32-136q0-83 48-129t137-46q70 0 125 34zm136 684h75L391 607h-57l152 118z"/><glyph unicode="â" glyph-name="acircumflex" horiz-adv-x="675" d="M622 522L518 0h-48l20 102q-38-50-94-78T270-4Q168-4 107 54T45 213q0 89 38 160t105 112 152 41q81 0 134-35t72-99l26 130h50zM350 41l55 34 88 94 32 137q0 83-48 129t-137 46q-70 0-125-34t-88-95-32-136q0-83 48-129t137-46q70 0 125 34zm149 566l-95 87-113-87h-52l140 118h55l113-118h-48z"/><glyph unicode="ã" glyph-name="atilde" horiz-adv-x="675" d="M622 522L518 0h-48l20 102q-38-50-94-78T270-4Q168-4 107 54T45 213q0 89 38 160t105 112 152 41q81 0 134-35t72-99l26 130h50zM350 41l55 34 88 94 32 137q0 83-48 129t-137 46q-70 0-125-34t-88-95-32-136q0-83 48-129t137-46q70 0 125 34zm97 574l-15 9-37 29q-16 15-28 23t-27 8q-22 0-37-17t-21-48h-33q7 46 31 73t61 27q21 0 36-9t37-29q16-15 28-23t27-8q22 0 38 17t21 46h33q-8-45-32-71t-60-27q-22 0-37 9z"/><glyph unicode="ä" glyph-name="adieresis" horiz-adv-x="675" d="M622 522L518 0h-48l20 102q-38-50-94-78T270-4Q168-4 107 54T45 213q0 89 38 160t105 112 152 41q81 0 134-35t72-99l26 130h50zM350 41l55 34 88 94 32 137q0 83-48 129t-137 46q-70 0-125-34t-88-95-32-136q0-83 48-129t137-46q70 0 125 34zm-47 593l-10 9-10 24q0 16 11 27t27 12q14 0 24-9t10-24q0-16-11-27t-27-12q-14 0-24 9zm173 0l-10 9-10 24q0 16 11 27t26 12q14 0 24-9t11-24q0-16-11-27t-27-12q-14 0-24 9z"/><glyph unicode="å" glyph-name="aring" horiz-adv-x="675" d="M622 522L518 0h-48l20 102q-38-50-94-78T270-4Q168-4 107 54T45 213q0 89 38 160t105 112 152 41q81 0 134-35t72-99l26 130h50zM350 41l55 34 88 94 32 137q0 83-48 129t-137 46q-70 0-125-34t-88-95-32-136q0-83 48-129t137-46q70 0 125 34zm18 555l-28 28-29 69q0 41 28 70t71 30q42 0 71-29t29-71q0-40-28-68t-72-29q-42 0-70 28zm73 28l20 20 20 49q0 30-20 50t-51 21q-30 0-49-20t-20-51q0-30 19-49t50-20q31 0 51 20z"/><glyph unicode="æ" glyph-name="ae" horiz-adv-x="985" d="M482 251q-2-22-2-34 0-86 49-131t145-45q55 0 100 18t77 52l25-35q-36-38-90-59T669-4q-85 0-144 36t-80 106q-33-72-94-107T214-4Q130-4 83 31t-48 98q0 75 57 118t162 43h184l8 37q5 27 5 44 0 54-34 82t-102 28q-51 0-100-17t-86-47l-19 38q41 33 97 52t115 19q77 0 120-30t52-86q39 55 97 85t126 31q103 0 163-58t60-160q0-29-7-57H482zm149 232l-61-53-82-140h403q1 9 1 25 0 80-48 124t-129 44q-84 0-145-53zM293 37l55 43 72 122 10 49H251q-79 0-122-31t-44-88q0-46 33-70t100-25q75 0 130 43z"/><glyph unicode="ç" glyph-name="ccedilla" horiz-adv-x="555" d="M172-4l-63 59-64 158q0 89 38 160t107 112 155 41q70 0 120-24t78-74l-41-25q-47 78-160 78-71 0-127-34t-88-95-32-136q0-83 49-129t140-46q52 0 97 20t76 56l35-28q-34-44-90-68T280-4Q172-4 109 55zm3-215l-31 25 19 28q27-21 66-21 33 0 52 16t20 44q0 21-15 32t-43 12h-19l41 87h33l-27-59q33-4 51-22t19-48q0-41-32-67t-83-27q-51 0-82 25z"/><glyph unicode="è" glyph-name="egrave" horiz-adv-x="598" d="M96 250q-2-22-2-33 0-85 49-130t144-46q55 0 101 18t78 52l23-35q-35-38-89-59T283-4Q172-4 109 54T45 215q0 88 37 159t102 111 146 41q102 0 162-58t60-160q0-24-6-58H96zm148 233l-61-53-81-141h402q1 9 1 26 0 79-48 123t-128 45q-85 0-146-53zm-13 242h72l116-118h-54L231 725z"/><glyph unicode="é" glyph-name="eacute" horiz-adv-x="598" d="M96 250q-2-22-2-33 0-85 49-130t144-46q55 0 101 18t78 52l23-35q-35-38-89-59T283-4Q172-4 109 54T45 215q0 88 37 159t102 111 146 41q102 0 162-58t60-160q0-24-6-58H96zm148 233l-61-53-81-141h402q1 9 1 26 0 79-48 123t-128 45q-85 0-146-53zm211 242h75L360 607h-57l152 118z"/><glyph unicode="ê" glyph-name="ecircumflex" horiz-adv-x="598" d="M96 250q-2-22-2-33 0-85 49-130t144-46q55 0 101 18t78 52l23-35q-35-38-89-59T283-4Q172-4 109 54T45 215q0 88 37 159t102 111 146 41q102 0 162-58t60-160q0-24-6-58H96zm148 233l-61-53-81-141h402q1 9 1 26 0 79-48 123t-128 45q-85 0-146-53zm224 124l-95 87-113-87h-52l140 118h55l113-118h-48z"/><glyph unicode="ë" glyph-name="edieresis" horiz-adv-x="598" d="M96 250q-2-22-2-33 0-85 49-130t144-46q55 0 101 18t78 52l23-35q-35-38-89-59T283-4Q172-4 109 54T45 215q0 88 37 159t102 111 146 41q102 0 162-58t60-160q0-24-6-58H96zm148 233l-61-53-81-141h402q1 9 1 26 0 79-48 123t-128 45q-85 0-146-53zm28 151l-10 9-10 24q0 16 11 27t27 12q14 0 24-9t10-24q0-16-11-27t-27-12q-14 0-24 9zm173 0l-10 9-10 24q0 16 11 27t26 12q14 0 24-9t11-24q0-16-11-27t-27-12q-14 0-24 9z"/><glyph unicode="ì" glyph-name="igrave" horiz-adv-x="261" d="M157 522h50L103 0H53l104 522zM68 725h72l116-118h-54L68 725z"/><glyph unicode="í" glyph-name="iacute" horiz-adv-x="261" d="M157 522h50L103 0H53l104 522zm135 203h75L197 607h-57l152 118z"/><glyph unicode="î" glyph-name="icircumflex" horiz-adv-x="261" d="M157 522h50L103 0H53l104 522zm124 85l-71 86-90-86H70l116 118h53l89-118h-47z"/><glyph unicode="ï" glyph-name="idieresis" horiz-adv-x="261" d="M157 522h50L103 0H53l104 522zm-24 112l-9 9-10 24q0 16 11 27t27 12q14 0 23-9t9-24q0-16-11-27t-26-12q-14 0-23 9zm125 0l-9 9-10 24q0 17 10 28t27 11q14 0 23-9t9-24q0-16-10-27t-27-12q-13 0-22 9z"/><glyph unicode="ð" glyph-name="eth" horiz-adv-x="627" d="M537 638q67-70 67-190 0-111-41-215T443 62 255-5q-65 0-114 23T65 85t-27 99q0 74 36 131t99 88 144 31q88 0 144-45t62-121q30 83 30 179 0 114-65 171L205 505l-14 36 257 103q-51 24-122 24-37 0-74-6t-66-16l-3 43q29 11 68 17t78 6q104 0 173-46l102 41 14-37-81-32zM318 39l53 27 86 73 33 102q0 69-46 109t-125 40q-68 0-120-25t-82-71-29-106q0-70 45-109t127-40q58 0 111 27z"/><glyph unicode="ñ" glyph-name="ntilde" horiz-adv-x="673" d="M491 526l48-44 48-123q0-27-6-57L521 0h-50l60 302q5 23 5 50 0 62-37 95t-110 34q-90 0-150-50t-79-147L103 0H53l104 522h49l-20-99q37 52 92 77t124 26q89 0 137-44zm-30 89l-15 9-37 29q-16 15-28 23t-27 8q-22 0-37-17t-21-48h-33q7 46 31 73t61 27q21 0 36-9t37-29q16-15 28-23t27-8q22 0 38 17t21 46h33q-8-45-32-71t-60-27q-22 0-37 9z"/><glyph unicode="ò" glyph-name="ograve" horiz-adv-x="620" d="M170-4l-62 59-63 158q0 89 38 160t107 112 154 41q106 0 168-58t63-159q0-89-38-160T430 37 276-4Q170-4 108 55zm180 45l55 34 88 94 32 137q0 83-48 129t-137 46q-70 0-125-34t-88-95-32-136q0-83 48-129t137-46q70 0 125 34zM247 725h72l116-118h-54L247 725z"/><glyph unicode="ó" glyph-name="oacute" horiz-adv-x="620" d="M170-4l-62 59-63 158q0 89 38 160t107 112 154 41q106 0 168-58t63-159q0-89-38-160T430 37 276-4Q170-4 108 55zm180 45l55 34 88 94 32 137q0 83-48 129t-137 46q-70 0-125-34t-88-95-32-136q0-83 48-129t137-46q70 0 125 34zm121 684h75L376 607h-57l152 118z"/><glyph unicode="ô" glyph-name="ocircumflex" horiz-adv-x="620" d="M170-4l-62 59-63 158q0 89 38 160t107 112 154 41q106 0 168-58t63-159q0-89-38-160T430 37 276-4Q170-4 108 55zm180 45l55 34 88 94 32 137q0 83-48 129t-137 46q-70 0-125-34t-88-95-32-136q0-83 48-129t137-46q70 0 125 34zm134 566l-95 87-113-87h-52l140 118h55l113-118h-48z"/><glyph unicode="õ" glyph-name="otilde" horiz-adv-x="620" d="M170-4l-62 59-63 158q0 89 38 160t107 112 154 41q106 0 168-58t63-159q0-89-38-160T430 37 276-4Q170-4 108 55zm180 45l55 34 88 94 32 137q0 83-48 129t-137 46q-70 0-125-34t-88-95-32-136q0-83 48-129t137-46q70 0 125 34zm82 574l-15 9-37 29q-16 15-28 23t-27 8q-22 0-37-17t-21-48h-33q7 46 31 73t61 27q21 0 36-9t37-29q16-15 28-23t27-8q22 0 38 17t21 46h33q-8-45-32-71t-60-27q-22 0-37 9z"/><glyph unicode="ö" glyph-name="odieresis" horiz-adv-x="620" d="M170-4l-62 59-63 158q0 89 38 160t107 112 154 41q106 0 168-58t63-159q0-89-38-160T430 37 276-4Q170-4 108 55zm180 45l55 34 88 94 32 137q0 83-48 129t-137 46q-70 0-125-34t-88-95-32-136q0-83 48-129t137-46q70 0 125 34zm-62 593l-10 9-10 24q0 16 11 27t27 12q14 0 24-9t10-24q0-16-11-27t-27-12q-14 0-24 9zm173 0l-10 9-10 24q0 16 11 27t26 12q14 0 24-9t11-24q0-16-11-27t-27-12q-14 0-24 9z"/><glyph unicode="÷" glyph-name="divide" horiz-adv-x="569" d="M322 497l-11 11-11 27q0 17 12 29t28 12q16 0 27-10t11-27q0-17-12-29t-28-13q-16 0-27 11zM94 371h425l-8-43H85l9 43zm154-247l-11 11-11 27q0 17 11 29t29 12q15 0 26-11t11-27q0-17-11-29t-29-12q-15 0-26 11z"/><glyph unicode="ø" glyph-name="oslash" horiz-adv-x="620" d="M170-4l-62 59-63 158q0 89 38 160t107 112 154 41q106 0 168-58t63-159q0-89-38-160T430 37 276-4Q170-4 108 55zm180 45l55 34 88 94 32 137q0 83-48 129t-137 46q-70 0-125-34t-88-95-32-136q0-83 48-129t137-46q70 0 125 34zm225 551h40L42-70H2l573 662z"/><glyph unicode="ù" glyph-name="ugrave" horiz-adv-x="669" d="M616 522L512 0h-49l20 99Q410-4 269-4q-88 0-135 44T86 163q0 27 6 57l60 302h50l-60-302q-5-22-5-50 0-62 36-95t109-34q90 0 149 50t78 147l57 284h50zM270 725h72l116-118h-54L270 725z"/><glyph unicode="ú" glyph-name="uacute" horiz-adv-x="669" d="M616 522L512 0h-49l20 99Q410-4 269-4q-88 0-135 44T86 163q0 27 6 57l60 302h50l-60-302q-5-22-5-50 0-62 36-95t109-34q90 0 149 50t78 147l57 284h50zM494 725h75L399 607h-57l152 118z"/><glyph unicode="û" glyph-name="ucircumflex" horiz-adv-x="669" d="M616 522L512 0h-49l20 99Q410-4 269-4q-88 0-135 44T86 163q0 27 6 57l60 302h50l-60-302q-5-22-5-50 0-62 36-95t109-34q90 0 149 50t78 147l57 284h50zm-109 85l-95 87-113-87h-52l140 118h55l113-118h-48z"/><glyph unicode="ü" glyph-name="udieresis" horiz-adv-x="669" d="M616 522L512 0h-49l20 99Q410-4 269-4q-88 0-135 44T86 163q0 27 6 57l60 302h50l-60-302q-5-22-5-50 0-62 36-95t109-34q90 0 149 50t78 147l57 284h50zM311 634l-10 9-10 24q0 16 11 27t27 12q14 0 24-9t10-24q0-16-11-27t-27-12q-14 0-24 9zm173 0l-10 9-10 24q0 16 11 27t26 12q14 0 24-9t11-24q0-16-11-27t-27-12q-14 0-24 9z"/><glyph unicode="ý" glyph-name="yacute" horiz-adv-x="528" d="M577 522L187-77q-44-68-83-94t-94-27q-36 0-68 12t-50 34l29 37q35-39 94-39 36 0 65 20t63 70l44 66L55 522h51L223 55l302 467h52zM411 725h75L316 607h-57l152 118z"/><glyph unicode="þ" glyph-name="thorn" horiz-adv-x="675" d="M507 526l62-58 62-159q0-89-38-160T487 37 335-4q-81 0-133 34t-73 100L64-194H14l187 936h50l-63-318q38 49 93 75t124 27q102 0 164-58zM406 41l55 34 87 95 32 136q0 83-48 129t-137 46q-70 0-125-34t-88-94-32-137q0-83 49-129t137-46q70 0 125 34z"/><glyph unicode="ÿ" glyph-name="ydieresis" horiz-adv-x="528" d="M577 522L187-77q-44-68-83-94t-94-27q-36 0-68 12t-50 34l29 37q35-39 94-39 36 0 65 20t63 70l44 66L55 522h51L223 55l302 467h52zM228 634l-10 9-10 24q0 16 11 27t27 12q14 0 24-9t10-24q0-16-11-27t-27-12q-14 0-24 9zm173 0l-10 9-10 24q0 16 11 27t26 12q14 0 24-9t11-24q0-16-11-27t-27-12q-14 0-24 9z"/><glyph unicode="–" glyph-name="endash" horiz-adv-x="500" d="M5 287h500l-7-37H-2l7 37z"/><glyph unicode="—" glyph-name="emdash" horiz-adv-x="1000" d="M5 287h1000l-7-37H-2l7 37z"/><glyph unicode="‘" glyph-name="quoteleft" horiz-adv-x="200" d="M188 595l7-10 7-23q0-18-13-31t-31-13q-17 0-29 11t-12 30q0 9 3 18t7 15 5 10l70 140h35l-60-142q11-5 18-15z"/><glyph unicode="’" glyph-name="quoteright" horiz-adv-x="200" d="M207 746l11-12 12-29q0-10-3-19t-11-24l-70-140h-36l61 142q-11 5-18 15t-7 23q0 19 13 31t31 13q17 0 28-12z"/><glyph unicode="‚" glyph-name="quotesinglbase" horiz-adv-x="200" d="M74 81l12-12 12-29q0-9-3-18T88 7 83-3L13-143h-36L38-1Q27 4 20 14t-7 23q0 19 13 31t31 13q17 0 29-12z"/><glyph unicode="“" glyph-name="quotedblleft" horiz-adv-x="353" d="M188 595l7-10 7-23q0-18-13-31t-31-13q-17 0-29 11t-12 30q0 9 3 18t7 15 5 10l70 140h35l-60-142q11-5 18-15zm153 0l7-10 7-23q0-18-13-31t-31-13q-17 0-29 11t-12 30q0 9 3 18t7 15 5 10l70 140h35l-60-142q11-5 18-15z"/><glyph unicode="”" glyph-name="quotedblright" horiz-adv-x="353" d="M207 746l11-12 12-29q0-10-3-19t-11-24l-70-140h-36l61 142q-11 5-18 15t-7 23q0 19 13 31t31 13q17 0 28-12zm153 0l11-12 12-29q0-10-3-19t-11-24l-70-140h-36l61 142q-11 5-18 15t-7 23q0 19 13 31t31 13q17 0 28-12z"/><glyph unicode="„" glyph-name="quotedblbase" horiz-adv-x="353" d="M74 81l12-12 12-29q0-9-3-18T88 7 83-3L13-143h-36L38-1Q27 4 20 14t-7 23q0 19 13 31t31 13q17 0 29-12zm153 0l12-12 12-29q0-9-3-18t-7-15-5-10l-70-140h-36L191-1q-11 5-18 15t-7 23q0 19 13 31t31 13q17 0 29-12z"/><glyph unicode="•" glyph-name="bullet" horiz-adv-x="280" d="M114 208l-17 17-17 42q0 28 19 47t46 20q25 0 42-17t17-42q0-28-19-47t-46-20q-25 0-42 17z"/><glyph unicode="‹" glyph-name="guilsinglleft" horiz-adv-x="288" d="M104 260L209 74h-48L53 261l183 188h51L104 260z"/><glyph unicode="›" glyph-name="guilsinglright" horiz-adv-x="289" d="M235 261L52 74H2l182 190L80 449h47l108-188z"/></font>
</defs>
</svg>
