<svg xmlns="http://www.w3.org/2000/svg"><defs><font id="Montserrat" horiz-adv-x="665"><font-face font-family="Montserrat" panose-1="0 0 8 0 0 0 0 0 0 0" ascent="968" descent="-251" alphabetic="0"/><glyph glyph-name="space" horiz-adv-x="283"/><glyph unicode="!" glyph-name="exclam" horiz-adv-x="289" d="M138 700h186L201 243H77l61 457zM63-8L37 16 11 76q0 42 29 69t72 27q39 0 65-23t26-59q0-41-29-69T103-8Q63-8 37 16z"/><glyph unicode="&quot;" glyph-name="quotedbl" horiz-adv-x="437" d="M135 700h133l-67-284H90l45 284zm206 0h133l-67-284H296l45 284z"/><glyph unicode="#" glyph-name="numbersign" horiz-adv-x="720" d="M589 431l-51-162h129l-22-109H503L452 0H336l51 160H243L192 0H77l51 160H-1l21 109h143l52 162H86l22 109h142l51 160h115l-51-160h144l51 160h115l-51-160h130l-21-109H589zm-115 0H330l-52-162h144l52 162z"/><glyph unicode="$" glyph-name="dollar" horiz-adv-x="638" d="M463 387l40-19 66-53 27-89q0-99-74-162T322-10l-22-110H200l22 110Q152-3 92 17T-8 67l67 124q40-29 88-47t101-24l34 169q-59 18-99 37t-68 56-28 93q0 66 34 117t97 81 148 37l22 110h100l-22-111q110-11 184-57l-61-124q-63 42-149 52l-35-176q58-17 98-36zm-214 87l15-15 46-27 29 144q-42-8-65-29t-25-51q0-22 15-37zm141-343l22 20 22 49q0 38-58 60l-27-137q41 8 63 28z"/><glyph unicode="%" glyph-name="percent" horiz-adv-x="878" d="M157 322l-41 42-42 116q0 63 24 115t69 82 107 31q69 0 110-42t42-116q0-64-24-115t-69-82-107-31q-69 0-110 42zm540 378h126L213 0H86l611 700zM279 404l23 43 23 97q0 41-16 61t-44 21q-44 0-67-43t-23-97q0-41 16-61t44-21q44 0 67 43zM566-8l-41 42-41 116q0 63 24 115t69 82 106 30q70 0 111-42t42-116q0-64-24-115t-69-82T636-8q-70 0-111 42zm122 81l23 43 24 98q0 41-16 61t-44 21q-44 0-67-43t-24-98q0-41 16-61t45-21q43 0 66 43z"/><glyph unicode="&amp;" glyph-name="ampersand" horiz-adv-x="728" d="M663 229l-57-71 63-72-104-98-64 72Q395-12 267-12q-73 0-129 21T50 70t-32 94q0 72 49 126t146 101q-44 59-44 120 0 60 31 105t85 69 119 24q84 0 136-38t53-105q0-64-43-110t-131-88l104-117q35 49 58 110l119-39q-37-93-94-164zM359 603l-23-21-24-56q0-17 8-35t29-43q64 29 88 52t24 53q0 22-17 36t-46 14q-39 0-62-21zm-2-493l65 41-139 158q-56-27-82-54t-27-64q0-36 29-58t84-23q70 0 135 41z"/><glyph unicode="'" glyph-name="quotesingle" horiz-adv-x="230" d="M135 700h133l-67-284H90l45 284z"/><glyph unicode="(" glyph-name="parenleft" horiz-adv-x="357" d="M87-142L72-63 57 95q0 180 60 351t168 296h156Q326 593 267 427T208 87q0-140 46-281H111Q87-142 72-63z"/><glyph unicode=")" glyph-name="parenright" horiz-adv-x="357" d="M56-45l59 166 59 340q0 140-46 281h143q24-52 39-131t15-158q0-180-60-351T97-194H-59Q56-45 115 121z"/><glyph unicode="*" glyph-name="asterisk" horiz-adv-x="434" d="M368 543l93-57-57-83-102 69-22-125h-95l26 120-118-63-39 79 126 62-96 58 58 84 100-69 22 124h94l-26-123 121 66 37-82-122-60z"/><glyph unicode="+" glyph-name="plus" horiz-adv-x="600" d="M542 289H369l-34-170H205l34 170H66l24 122h173l34 170h130l-34-170h173l-24-122z"/><glyph unicode="," glyph-name="comma" horiz-adv-x="262" d="M142 186l25-25 26-65q0-21-7-39T158 7L58-154h-98L37 7Q19 19 9 38T-2 82q0 46 30 75t74 29q40 0 65-25z"/><glyph unicode="-" glyph-name="hyphen" horiz-adv-x="386" d="M67 344h283l-25-125H42l25 125z"/><glyph unicode="." glyph-name="period" horiz-adv-x="262" d="M50-8L24 17-2 82q0 46 30 75t74 29q40 0 65-25t26-65q0-45-30-74T90-8Q50-8 24 17z"/><glyph unicode="/" glyph-name="slash" horiz-adv-x="392" d="M405 842h146L37-100h-145l513 942z"/><glyph unicode="0" glyph-name="zero" horiz-adv-x="678" d="M182-12l-68 70-68 195q0 126 46 231t130 166 189 62q117 0 185-70t68-195q0-126-46-231T488 50 299-12q-117 0-185 70zm190 137l42 50 65 124 22 144q0 67-27 99t-78 33q-58 0-100-50t-65-124-22-144q0-67 27-99t78-33q58 0 100 50z"/><glyph unicode="1" glyph-name="one" horiz-adv-x="392" d="M395 700L255 0H93l114 570H67l26 130h302z"/><glyph unicode="2" glyph-name="two" horiz-adv-x="590" d="M241 132h294L509 0H-21L0 105l319 250q58 47 80 79t23 67q0 35-26 56t-77 21q-42 0-81-19t-68-54L61 584q43 59 118 93t164 35q73 0 128-24t86-67 31-97q0-65-36-122T427 276L241 132z"/><glyph unicode="3" glyph-name="three" horiz-adv-x="592" d="M590 595L394 412q73-17 113-63t40-114q0-71-41-127T390 20 222-12Q145-12 78 9T-34 69l78 119q35-30 84-47t105-17q72 0 111 26t39 75q0 38-28 56t-87 19h-74l21 107 174 163H93l27 130h490l-20-105z"/><glyph unicode="4" glyph-name="four" horiz-adv-x="689" d="M656 147H541L512 0H354l30 147H7l21 109 412 444h177L233 279h184l26 131h151l-26-131h115l-27-132z"/><glyph unicode="5" glyph-name="five" horiz-adv-x="595" d="M294 570l-38-133h42q129 0 195-50t67-142q0-77-41-135T405 20 236-12Q158-12 92 9T-21 69l78 119q35-30 84-47t105-17q72 0 111 26t39 76q0 80-136 80H70l114 394h428l-27-130H294z"/><glyph unicode="6" glyph-name="six" horiz-adv-x="637" d="M445 439l51-24 82-69 31-109q0-75-36-131T473 19 329-12q-84 0-148 33t-99 97-36 157q0 106 45 206t140 166 236 65q58 0 110-12t85-35l-73-119q-50 34-132 34-97 0-155-55t-78-141q62 55 161 55 60 0 111-24zm-65-330l34 31 35 83q0 44-30 69t-81 26q-56 0-91-31t-35-79q0-42 30-70t85-29q53 0 87 31z"/><glyph unicode="7" glyph-name="seven" horiz-adv-x="620" d="M673 700l-21-105L278 0H98l359 568H230l-23-114H63l49 246h561z"/><glyph unicode="8" glyph-name="eight" horiz-adv-x="660" d="M611 305v-87q0-70-38-122T465 16 306-12q-86 0-150 24T57 81 22 185q0 69 37 119t106 77q-57 45-57 117 0 65 35 113t99 75 145 26q77 0 136-22t92-64 33-96q0-60-29-104t-85-70q77-51 77-138zM332 593l-31-25-32-71q0-36 27-57t76-21q52 0 83 25t32 69q0 37-28 58t-75 22q-52 0-83-25zm40-486l37 29 38 81q0 42-33 66t-91 25q-63 0-100-29t-38-79q0-43 34-68t90-25q63 0 100 29z"/><glyph unicode="9" glyph-name="nine" horiz-adv-x="637" d="M426 712l63-33 99-97 36-157q0-106-45-206T439 53 204-12Q146-12 94 0T8 35l74 119q50-34 131-34 98 0 156 55t78 142q-60-56-157-56-63 0-115 24t-83 69-31 109q0 75 36 131t101 87 144 31q84 0 147-33zm-37-330l35 31 35 79q0 42-31 70t-84 29q-54 0-88-31t-34-83q0-44 30-69t80-26q57 0 92 31z"/><glyph unicode=":" glyph-name="colon" horiz-adv-x="262" d="M122 351l-26 25-26 65q0 46 30 75t74 29q40 0 65-25t26-65q0-45-30-74t-73-30q-40 0-66 25zM50-8L24 17-2 82q0 46 30 75t74 29q40 0 65-25t26-65q0-45-30-74T90-8Q50-8 24 17z"/><glyph unicode=";" glyph-name="semicolon" horiz-adv-x="262" d="M122 351l-26 25-26 65q0 46 30 75t74 29q40 0 65-25t26-65q0-45-30-74t-73-30q-40 0-66 25zm20-165l25-25 26-65q0-21-7-39T158 7L58-154h-98L37 7Q19 19 9 38T-2 82q0 46 30 75t74 29q40 0 65-25z"/><glyph unicode="&lt;" glyph-name="less" horiz-adv-x="599" d="M577 465L219 343l310-121-24-118L65 285l26 130 512 181-26-131z"/><glyph unicode="=" glyph-name="equal" horiz-adv-x="599" d="M115 534h476l-25-121H90l25 121zM65 287h476l-24-122H41l24 122z"/><glyph unicode="&gt;" glyph-name="greater" horiz-adv-x="599" d="M567 415l-26-130L29 104l27 131 355 122-307 121 24 118 439-181z"/><glyph unicode="?" glyph-name="question" horiz-adv-x="589" d="M222 295l30 33 82 72q44 33 65 56t21 57q0 31-25 49t-72 19q-48 0-88-19t-69-57L61 582q45 61 121 95t173 35q106 0 169-45t63-123q0-47-17-81t-43-57-66-52q-44-32-67-55t-31-56H212q10 52 40 85zM211-8l-26 24-26 60q0 42 29 69t72 27q39 0 65-23t26-59q0-41-29-69T251-8q-40 0-66 24z"/><glyph unicode="@" glyph-name="at" horiz-adv-x="1035" d="M716 710l93-46 143-128 49-193q0-92-31-172T882 42 753-7q-52 0-85 18t-47 52Q557-7 450-7q-58 0-104 26t-74 74-27 113q0 79 34 146t95 106 136 40q111 0 157-79l15 72h136l-65-325q-3-13-3-23 0-40 41-40 33 0 58 36t38 91 13 107q0 131-83 204t-243 74q-127 0-224-56T198 406t-54-218q0-89 37-156T289-73t170-37q101 0 189 38l22-92q-46-19-104-30t-115-12q-128 0-223 49T83-21 32 180q0 151 71 272t197 189 288 69q128 0 221-46zM535 108l33 22 51 60 19 83q0 52-29 80t-82 29q-63 0-103-44t-40-120q0-53 29-81t79-29q43 0 76 22z"/><glyph unicode="A" glyph-name="A" horiz-adv-x="766" d="M527 150H201L110 0H-63l453 700h160L722 0H560l-33 150zm-27 123l-59 270-165-270h224z"/><glyph unicode="B" glyph-name="B" horiz-adv-x="765" d="M662 343l24-35 25-87q0-109-86-165T396 0H29l140 700h338q113 0 174-41t61-119q0-64-33-109t-92-70q45-18 69-53zM305 578l-33-165h165q64 0 99 25t36 74q0 66-103 66H305zm169-456l38 26 38 75q0 72-105 72H249l-34-173h191q68 0 106 26z"/><glyph unicode="C" glyph-name="C" horiz-adv-x="733" d="M292-12l-78 38L93 133 51 292q0 119 54 214t154 151 227 55q94 0 166-32t109-92l-117-96q-56 82-169 82-77 0-136-36t-91-98-33-138q0-81 51-128t145-48q111 0 186 81l96-98Q589-12 397-12q-105 0-183 38z"/><glyph unicode="D" glyph-name="D" horiz-adv-x="826" d="M169 700h293q107 0 184-35t119-102 42-155q0-122-55-214T599 51 371 0H29l140 700zm207-567q82 0 142 34t93 95 32 137q0 79-51 123t-148 45H305l-87-434h158z"/><glyph unicode="E" glyph-name="E" horiz-adv-x="671" d="M304 570l-30-152h325l-25-126H248l-32-162h382L571 0H29l140 700h529l-27-130H304z"/><glyph unicode="F" glyph-name="F" horiz-adv-x="639" d="M305 570l-37-185h325l-27-130H243L192 0H29l140 700h529l-27-130H305z"/><glyph unicode="G" glyph-name="G" horiz-adv-x="771" d="M575 361h148L665 73q-53-41-123-63T397-12q-105 0-183 38T94 133 51 292q0 119 55 215t155 150 230 55q100 0 173-31t119-91l-116-94q-35 41-79 59t-104 19q-80 0-141-35t-94-98-34-139q0-81 52-128t151-48q62 0 116 25l41 210z"/><glyph unicode="H" glyph-name="H" horiz-adv-x="808" d="M811 700L671 0H509l57 285H249L192 0H29l140 700h163l-55-275h317l55 275h162z"/><glyph unicode="I" glyph-name="I" horiz-adv-x="328" d="M169 700h163L192 0H29l140 700z"/><glyph unicode="J" glyph-name="J" horiz-adv-x="541" d="M99-12L41 15l-90 78L58 195q46-74 123-74 94 0 116 109l67 340H119l26 130h406l-93-462q-26-134-94-192T179-12Q99-12 41 15z"/><glyph unicode="K" glyph-name="K" horiz-adv-x="740" d="M457 376L700 0H518L338 274 225 174 190 0H29l140 700h161l-64-321 363 321h196L457 376z"/><glyph unicode="L" glyph-name="L" horiz-adv-x="604" d="M169 700h163L218 132h351L542 0H29l140 700z"/><glyph unicode="M" glyph-name="M" horiz-adv-x="955" d="M957 700L818 0H666l82 416L481 74h-72L265 420 181 0H29l140 700h132l175-436 342 436h139z"/><glyph unicode="N" glyph-name="N" horiz-adv-x="808" d="M811 700L671 0H538L277 438 189 0H29l140 700h134l261-439 87 439h160z"/><glyph unicode="O" glyph-name="O" horiz-adv-x="844" d="M287-12l-77 38L92 133 51 292q0 119 54 214t153 151 226 55q105 0 182-38t118-107 41-159q0-119-54-214T618 43 392-12q-105 0-182 38zm196 138l58 37 89 99 31 137q0 80-50 127t-141 48q-77 0-135-37t-89-99-31-137q0-80 50-127t141-48q77 0 135 37z"/><glyph unicode="P" glyph-name="P" horiz-adv-x="732" d="M583 700l71-57 72-161q0-88-41-153T567 228t-181-35H230L192 0H29l140 700h283q131 0 202-57zM474 325l44 37 44 106q0 50-33 75t-97 25H305l-49-243h137q81 0 125 37z"/><glyph unicode="Q" glyph-name="Q" horiz-adv-x="844" d="M630-41l31 12 55 37 61-97q-33-35-82-53t-107-19Q412-161 316-6 191 13 121 93T51 292q0 119 54 214t153 151 226 55q105 0 182-38t118-107 41-159q0-100-39-184T676 82 508 1q34-42 90-42 32 0 63 12zM215 221l50-47 141-48q77 0 135 37t89 99 31 137q0 80-50 127t-141 48q-77 0-135-37t-89-99-31-137q0-80 50-127z"/><glyph unicode="R" glyph-name="R" horiz-adv-x="735" d="M728 385l-53-70-147-99L650 0H479L369 196H231L192 0H29l140 700h285q130 0 202-57t72-160q0-98-53-168zm-253-60l44 37 45 106q0 50-34 75t-97 25H305l-49-243h138q81 0 125 37z"/><glyph unicode="S" glyph-name="S" horiz-adv-x="638" d="M190-12l-76 22L-8 66l66 125q48-35 108-54t123-19q67 0 106 22t39 60q0 31-31 47t-99 36q-68 20-111 38t-74 56-32 98q0 71 39 125t112 83 169 29q71 0 134-15t108-45l-61-124q-39 27-88 40t-102 14q-69 0-109-24t-40-62q0-23 17-38t43-25 73-23q67-18 110-36t73-54 31-94q0-72-40-125T443 18 273-12q-83 0-159 22z"/><glyph unicode="T" glyph-name="T" horiz-adv-x="618" d="M287 568H63l27 132h610l-27-132H450L336 0H174l113 568z"/><glyph unicode="U" glyph-name="U" horiz-adv-x="788" d="M227-12l-75 65-75 180q0 33 8 75l78 392h163l-78-389q-6-33-6-59 0-63 34-94t101-32q74 0 118 44t64 141l78 389h159l-79-399Q653-12 359-12q-132 0-207 65z"/><glyph unicode="V" glyph-name="V" horiz-adv-x="746" d="M842 700L399 0H240L77 700h167l113-499 317 499h168z"/><glyph unicode="W" glyph-name="W" horiz-adv-x="1163" d="M1228 700L858 0H685l-61 471L371 0H197l-89 700h160l62-492 263 492h150l60-496 264 496h161z"/><glyph unicode="X" glyph-name="X" horiz-adv-x="714" d="M463 353L655 0H480L356 238 144 0H-50l335 363-181 337h173l117-225 204 225h184L463 353z"/><glyph unicode="Y" glyph-name="Y" horiz-adv-x="676" d="M413 243L365 0H203l49 250L72 700h162l125-312 251 312h167L413 243z"/><glyph unicode="Z" glyph-name="Z" horiz-adv-x="671" d="M701 595L230 132h392L595 0H-17L4 105l472 463H107l27 132h588l-21-105z"/><glyph unicode="[" glyph-name="bracketleft" horiz-adv-x="369" d="M176 742h271l-24-123H309L171-71h114l-24-123H-11l187 936z"/><glyph unicode="\" glyph-name="backslash" horiz-adv-x="392" d="M218-100L71 842h134l147-942H218z"/><glyph unicode="]" glyph-name="bracketright" horiz-adv-x="368" d="M-76-194l24 123H62l138 690H85l25 123h271L194-194H-76z"/><glyph unicode="^" glyph-name="asciicircum" horiz-adv-x="600" d="M404 141l-64 296-182-296H32l264 418h124l97-418H404z"/><glyph unicode="_" glyph-name="underscore" horiz-adv-x="500" d="M-54 0h500l-18-90H-72l18 90z"/><glyph unicode="`" glyph-name="grave" horiz-adv-x="600" d="M185 751h167l106-144H337L185 751z"/><glyph unicode="a" glyph-name="a" horiz-adv-x="690" d="M672 538L565 0H417l10 53Q360-8 262-8q-63 0-116 29t-84 83-32 129q0 89 39 160t108 112 150 41q124 0 175-81l14 73h156zM356 121l36 22 56 63 20 92q0 55-32 87t-91 32q-46 0-82-22t-56-63-20-92q0-55 32-87t91-32q46 0 82 22z"/><glyph unicode="b" glyph-name="b" horiz-adv-x="690" d="M491 546l53-29 85-83 32-129q0-89-39-160T514 33 363-8q-63 0-109 22t-71 66L167 0H19l148 742h156l-50-250q65 54 155 54 63 0 116-29zM391 121l36 22 56 63 20 92q0 55-32 87t-91 32q-45 0-81-22t-56-63-20-92q0-55 32-87t90-32q46 0 82 22z"/><glyph unicode="c" glyph-name="c" horiz-adv-x="591" d="M220-8l-62 30-95 84-34 127q0 89 42 160t117 112 169 41q86 0 148-35t94-101l-132-66q-35 73-120 73-46 0-82-22t-57-63-21-91q0-55 33-87t92-33q86 0 132 72l115-72q-39-61-106-95T303-8q-83 0-145 30z"/><glyph unicode="d" glyph-name="d" horiz-adv-x="692" d="M714 742L566 0H418l11 54Q361-8 264-8q-63 0-116 29t-84 83-32 129q0 89 39 160t108 112 150 41q59 0 103-20t71-59l55 275h156zM358 121l36 22 56 63 20 92q0 55-32 87t-91 32q-46 0-82-22t-56-63-20-92q0-55 32-87t91-32q46 0 82 22z"/><glyph unicode="e" glyph-name="e" horiz-adv-x="628" d="M603 272l-9-45H182q8-110 139-110 41 0 78 13t66 37l65-103q-45-36-103-54T305-8q-83 0-145 29t-96 85-34 127q0 89 40 160t113 112 164 41q78 0 135-29t89-83 32-125q0-37-9-82zM285 429l-38-29-54-82h267q0 52-32 81t-88 30q-55 0-93-29z"/><glyph unicode="f" glyph-name="f" horiz-adv-x="387" d="M348 627l-20-19-29-62-4-20h137l-24-120H275L194 0H38l81 406H35l24 120h84l6 31q19 90 78 141t156 52q36 0 68-8t56-22l-61-112q-25 19-62 19-36 0-56-19z"/><glyph unicode="g" glyph-name="g" horiz-adv-x="700" d="M681 538L592 90Q562-62 477-132t-229-70q-78 0-143 18T-8-131L66-18q32-27 82-42t107-16q79 0 120 34t56 105l4 23q-65-60-164-60-67 0-121 27t-85 79-32 120q0 82 39 149t107 106 154 39q63 0 110-23t72-73l17 88h149zM381 154l44 44 44 113q0 49-32 77t-89 29q-69 0-113-44t-45-113q0-49 33-77t90-29q68 0 112 44z"/><glyph unicode="h" glyph-name="h" horiz-adv-x="691" d="M529 546l53-48 53-136q0-32-7-64L568 0H412l58 288q4 17 4 37 0 42-23 64t-69 22q-60 0-99-34t-54-104L175 0H19l148 742h156l-50-253q69 57 166 57 90 0 143-48z"/><glyph unicode="i" glyph-name="i" horiz-adv-x="300" d="M126 538h155L174 0H19l107 538zm64 75l-25 23-26 58q0 40 28 66t75 27q41 0 66-22t26-56q0-43-29-69t-75-27q-40 0-65 23z"/><glyph unicode="j" glyph-name="j" horiz-adv-x="306" d="M-129-202l-51 30 62 113q27-19 65-19 32 0 50 19T24 1l108 537h156L181 5Q140-202-51-202q-78 0-129 30zm325 815l-25 23-26 58q0 40 28 66t75 27q41 0 66-22t26-56q0-43-29-69t-75-27q-40 0-65 23z"/><glyph unicode="k" glyph-name="k" horiz-adv-x="645" d="M420 304L605 0H424L296 209l-95-79L175 0H19l148 742h156l-83-415 258 211h203L420 304z"/><glyph unicode="l" glyph-name="l" horiz-adv-x="301" d="M167 742h156L175 0H19l148 742z"/><glyph unicode="m" glyph-name="m" horiz-adv-x="1049" d="M889 546l52-47 52-135q0-32-7-66L927 0H771l57 287q4 20 4 41 0 41-21 62t-64 21q-113 0-141-135L551 0H395l57 287q4 20 4 40 0 41-21 62t-64 22q-113 0-142-137L175 0H19l107 538h148l-12-56q70 64 169 64 56 0 99-22t66-66q39 43 91 65t114 23q88 0 140-47z"/><glyph unicode="n" glyph-name="n" horiz-adv-x="691" d="M529 546l53-47 53-136q0-33-7-65L568 0H412l58 288q4 17 4 37 0 42-23 64t-69 22q-60 0-99-34t-54-104L175 0H19l107 538h148l-12-58q72 66 177 66 90 0 143-47z"/><glyph unicode="o" glyph-name="o" horiz-adv-x="654" d="M219-8l-61 30-95 84-34 127q0 89 42 160t116 112 167 41q82 0 143-30t94-84 34-127q0-89-41-160T468 33 300-8q-81 0-142 30zm136 129l36 22 56 63 20 92q0 55-32 87t-90 32q-46 0-82-22t-56-63-20-92q0-55 32-87t91-32q45 0 81 22z"/><glyph unicode="p" glyph-name="p" horiz-adv-x="690" d="M491 546l53-29 85-83 32-129q0-89-39-160T514 33 363-8Q240-8 189 72l-53-266H-20l146 732h148l-11-53q67 61 165 61 63 0 116-29zM391 121l36 22 56 63 20 92q0 55-32 87t-91 32q-45 0-81-22t-56-63-20-92q0-55 32-87t90-32q46 0 82 22z"/><glyph unicode="q" glyph-name="q" horiz-adv-x="690" d="M672 538L526-194H370l47 238Q353-8 262-8q-63 0-116 29t-84 83-32 129q0 89 39 160t108 112 150 41q63 0 109-22t71-68l16 82h149zM187 185l32-32 91-32q46 0 82 22t56 63 20 92q0 55-32 87t-91 32q-46 0-82-22t-56-63-20-92q0-55 32-87z"/><glyph unicode="r" glyph-name="r" horiz-adv-x="431" d="M296 512l49 17 117 17-28-144q-28 2-36 2-71 0-113-35t-58-109L175 0H19l107 538h148l-13-64q35 38 84 55z"/><glyph unicode="s" glyph-name="s" horiz-adv-x="531" d="M145-8L83 7l-98 41 60 113q35-23 85-37t102-14q53 0 79 13t26 39q0 20-23 29t-74 19q-58 11-95 24t-65 42-28 81q0 89 74 139t196 50q56 0 109-12t90-33l-56-114q-66 41-159 41-51 0-77-15t-27-38q0-21 23-30t77-21q57-11 93-23t64-42 27-79q0-90-75-139T215-8Q145-8 83 7z"/><glyph unicode="t" glyph-name="t" horiz-adv-x="435" d="M231 190q-2-8-2-22 0-52 57-52 31 0 63 19l23-111Q320-8 238-8q-76 0-122 40T70 142q0 20 5 47l43 217H35l24 120h83l26 131h156l-26-131h134l-24-120H274l-43-216z"/><glyph unicode="u" glyph-name="u" horiz-adv-x="687" d="M668 538L561 0H413l11 58q-35-33-80-49T249-8q-88 0-140 48T56 175q0 33 7 65l59 298h156l-57-288q-4-19-4-39 0-84 90-84 59 0 97 34t53 104l55 273h156z"/><glyph unicode="v" glyph-name="v" horiz-adv-x="598" d="M660 538L326 0H165L46 538h154l78-367 226 367h156z"/><glyph unicode="w" glyph-name="w" horiz-adv-x="941" d="M997 538L700 0H546l-62 335L299 0H147L52 538h142l59-362 202 362h134l61-362 200 362h147z"/><glyph unicode="x" glyph-name="x" horiz-adv-x="595" d="M383 269L533 0H368l-88 165L125 0H-53l269 276L73 538h162l85-158 150 158h172L383 269z"/><glyph unicode="y" glyph-name="y" horiz-adv-x="598" d="M660 538L302-36q-58-94-112-130T56-202q-42 0-82 13t-64 34l72 112q36-33 86-33 30 0 52 15t45 51l5 9L46 538h156l80-366 224 366h154z"/><glyph unicode="z" glyph-name="z" horiz-adv-x="543" d="M541 444L209 120h276L461 0H-19L0 94l332 324H73l24 120h462l-18-94z"/><glyph unicode="{" glyph-name="braceleft" horiz-adv-x="392" d="M470 742l-24-123h-17q-40 0-60-17t-27-53l-33-163q-11-53-31-78t-59-36q49-18 49-75 0-18-4-35L233 8q-2-8-2-23 0-28 15-42t43-14h19l-25-123h-57q-74 0-115 37T69-55q0 17 5 44l35 177q1 5 1 14 0 33-35 33H41l24 122h34q43 0 53 47l37 184q18 93 71 134t153 42h57z"/><glyph unicode="|" glyph-name="bar" horiz-adv-x="309" d="M178 742h142L133-194H-9l187 936z"/><glyph unicode="}" glyph-name="braceright" horiz-adv-x="392" d="M353 335l-25-122h-33q-44 0-53-47L204-18q-18-92-70-134t-153-42h-58l24 123h18q39 0 59 17T52-1l33 163q10 53 30 78t60 36q-50 20-50 75 0 18 4 35l31 154q2 8 2 23 0 28-15 42t-43 14H86l24 123h58q74 0 115-37t42-102q0-19-5-44l-36-177q-1-5-1-14 0-33 35-33h35z"/><glyph unicode="~" glyph-name="asciitilde" horiz-adv-x="599" d="M371 251l-26 14-56 39q-21 17-35 25t-31 9q-30 0-50-21t-27-57H48q13 91 62 141t113 50q39 0 65-14t56-39q21-17 35-25t31-9q30 0 49 20t27 58h98q-13-91-61-141t-113-50q-39 0-65 14z"/><glyph glyph-name="uni00A0" horiz-adv-x="283"/><glyph unicode="¡" glyph-name="exclamdown" horiz-adv-x="289" d="M137 365l-25 24-26 59q0 41 29 69t72 29q39 0 65-24t26-61q0-41-29-68t-71-28q-41 0-66 24zm-49-70h123l-58-449H-33L88 295z"/><glyph unicode="¢" glyph-name="cent" horiz-adv-x="591" d="M407 134l37 59 115-72q-37-58-101-92T315-8l-22-112h-99L218 1Q130 22 80 83T29 233q0 84 37 152t106 111 154 49l23 113h100l-24-118q61-12 105-45t69-85l-132-66q-23 48-68 65l-57-286q65 11 102 70zm-220 70l15-27 43-42 55 275q-51-15-82-60t-31-109q0-37 15-64z"/><glyph unicode="£" glyph-name="sterling" horiz-adv-x="668" d="M435 574l-47-36-65-117-4-22h239l-19-97H299l-34-172h343L582 0H-24L3 130h100l34 172H36l19 97h102l5 26q29 144 127 215t238 72q128 0 203-49l-68-124q-60 35-146 35-81 0-128-36z"/><glyph unicode="¤" glyph-name="currency" horiz-adv-x="700" d="M623 248l-40-64L684 83 597-8 491 97q-60-35-131-35-70 0-132 35L122-8 35 83l102 102q-40 60-40 136 0 72 37 132l-99 99 87 91 101-100q63 38 137 38t136-38l101 100 87-91-98-98q37-63 37-133 0-73-40-137zm-225-63l32 18 52 50 19 68q0 37-19 68t-51 49-71 19q-38 0-70-18t-51-50-19-68q0-37 18-68t51-49 71-19q38 0 70 18z"/><glyph unicode="¥" glyph-name="yen" horiz-adv-x="736" d="M495 311h150l-17-83H441l-11-55h187l-17-83H414L396 0H233l18 90H63l17 83h187l11 55H91l17 83h158L72 700h166l153-315 277 315h169L495 311z"/><glyph unicode="¦" glyph-name="brokenbar" horiz-adv-x="309" d="M178 742h142l-70-350H108l70 350zM61 156h142l-70-350H-9l70 350z"/><glyph unicode="§" glyph-name="section" horiz-adv-x="522" d="M300 594l-31-19-31-46q0-24 23-36t74-24q51-13 85-27t58-43 24-78q0-48-25-86t-70-65q28-33 28-83 0-59-34-103t-94-67-136-24q-62 0-117 15t-92 45L21 62Q95 7 184 7q54 0 83 18t29 47q0 24-23 36t-75 25q-53 15-86 28t-57 42-24 76q0 47 25 86t71 66q-28 33-28 83 0 61 35 104t99 67 143 23q52 0 107-12t93-36l-59-108q-65 42-159 42-58 0-89-19zm65-268l-24 13-78 28-30 8q-32-12-48-31t-16-43q0-26 24-38t79-28q10-2 30-8 31 12 47 30t16 42q0 27-24 40z"/><glyph unicode="¨" glyph-name="dieresis" horiz-adv-x="600" d="M248 612l-18 17-19 45q0 33 22 54t52 22q28 0 47-17t19-45q0-33-22-54t-53-22q-28 0-46 17zm203 0l-18 17-19 45q0 34 21 55t53 21q28 0 46-17t19-45q0-33-22-54t-52-22q-28 0-46 17z"/><glyph unicode="©" glyph-name="copyright" horiz-adv-x="785" d="M309-3l-80 47-127 128-47 178q0 97 46 178t128 128 180 47q99 0 179-46t127-126 46-179q0-98-47-179T586 44 407-3q-98 0-178 47zm178 65l65 38 103 105 38 147q0 81-36 146T555 600t-146 38q-81 0-146-38T161 496t-37-146q0-80 37-146t101-104 145-38q80 0 145 38zm-128 86l-48 26-76 72-28 104q0 58 27 104t76 72 110 26q59 0 104-25t67-70l-90-53q-27 47-82 47-40 0-67-27t-28-74q0-46 27-73t68-28q55 0 82 47l90-52q-21-45-66-70t-105-26q-61 0-109 26z"/><glyph unicode="ª" glyph-name="ordfeminine" horiz-adv-x="413" d="M352 750l39-28 40-85q0-20-4-39l-35-174H292l7 37q-37-42-107-42-54 0-84 24t-31 61q0 54 45 81t118 28h83l1 9q0 24-17 37t-52 13q-27 0-55-8t-48-21l-24 68q28 18 68 28t82 11q74 0 113-28zm-75-264l26 33 8 37h-65q-65 0-65-39 0-31 47-31 49 0 75 33z"/><glyph unicode="«" glyph-name="guillemotleft" horiz-adv-x="568" d="M181 265l94-191H138L36 269l180 196h143L181 265zm226 0l94-191H364L262 269l180 196h143L407 265z"/><glyph unicode="¬" glyph-name="logicalnot" horiz-adv-x="600" d="M508 115H379l35 175H66l24 121h476l-58-296z"/><glyph unicode="­" glyph-name="uni00AD" horiz-adv-x="386" d="M67 344h283l-25-125H42l25 125z"/><glyph unicode="®" glyph-name="registered" horiz-adv-x="785" d="M508 703l80-46 127-126 46-179q0-98-47-179T586 44 407-3q-98 0-178 47T102 172 55 350q0 97 46 178t128 128 180 47q99 0 179-46zM487 62l65 38 103 105 38 147q0 81-36 146T555 600t-146 38q-81 0-146-38T161 496t-37-146q0-80 37-146t101-104 145-38q80 0 145 38zm106 302l-18-30-55-48 85-130H501l-73 112h-69V156H255v388h169q79 0 124-37t45-101q0-42-18-72zm-176-18q35 0 54 15t20 45q0 29-19 45t-55 16h-59V346h59z"/><glyph unicode="¯" glyph-name="overscore" horiz-adv-x="600" d="M206 723h369l-17-88H189l17 88z"/><glyph unicode="°" glyph-name="degree" horiz-adv-x="417" d="M215 366l-40 22-64 62-24 87q0 47 23 86t64 63 89 23q48 0 88-23t63-62 24-87q0-47-23-86t-64-62-88-23q-48 0-88 22zm88 77l26 27 27 67q0 40-26 67t-67 27q-40 0-66-27t-27-67q0-40 26-67t67-27q40 0 66 27z"/><glyph unicode="±" glyph-name="plusminus" horiz-adv-x="599" d="M581 490l-24-118H384l-32-164H222l33 164H81l24 118h173l33 164h129l-32-164h173zM32 123h476L484 0H8l24 123z"/><glyph unicode="²" glyph-name="uni00B2" horiz-adv-x="430" d="M233 411h184l-16-84H52l13 67 204 145q36 26 49 43t14 37q0 21-17 32t-50 12q-59 0-99-42l-68 51q29 36 77 57t110 21q73 0 116-32t44-86q0-25-8-45t-30-44-68-56l-106-76z"/><glyph unicode="³" glyph-name="uni00B3" horiz-adv-x="430" d="M455 675L336 575q49-10 74-37t25-69q0-44-27-78t-75-53-111-19q-54 0-102 13t-75 36l45 79q27-19 65-30t75-11q45 0 69 14t25 42q0 40-65 40h-65l14 68 105 89H114l16 83h339l-14-67z"/><glyph unicode="´" glyph-name="acute" horiz-adv-x="600" d="M425 751h172L401 607H275l150 144z"/><glyph unicode="µ" glyph-name="uni00B5" horiz-adv-x="690" d="M672 538L565 0H424l12 60q-31-34-69-51T288-8q-69 0-108 33l-44-219H-20l146 732h156l-57-288q-4-19-4-39 0-84 91-84 58 0 96 34t53 104l55 273h156z"/><glyph unicode="¶" glyph-name="paragraph" horiz-adv-x="686" d="M245 360q-77 3-127 45T68 521q0 111 77 166t209 55h343L529-100H402l146 729H426L280-100H153l92 460z"/><glyph unicode="·" glyph-name="middot" horiz-adv-x="302" d="M108 184l-26 26-26 64q0 46 30 75t73 29q41 0 66-25t26-65q0-45-30-74t-73-30q-40 0-66 26z"/><glyph unicode="¸" glyph-name="cedilla" horiz-adv-x="600" d="M120-232l-39 21 34 67q30-15 67-15 27 0 40 9t15 24q3 28-43 28h-35L207 8h83l-25-58q33-4 51-23t19-46q0-53-43-83t-117-30q-55 0-94 21z"/><glyph unicode="¹" glyph-name="uni00B9" horiz-adv-x="430" d="M405 409l-16-82H84l16 82h103l50 251h-93l16 82h206l-67-333h90z"/><glyph unicode="º" glyph-name="ordmasculine" horiz-adv-x="428" d="M181 419l-47 41-48 107q0 53 27 94t76 65 108 24q76 0 123-41t47-106q0-54-27-95t-75-65-108-24q-76 0-123 41zm126 83l27 26 27 70q0 32-20 50t-53 19q-43 0-69-27t-27-69q0-31 20-50t54-19q41 0 68 26z"/><glyph unicode="»" glyph-name="guillemotright" horiz-adv-x="569" d="M307 269L127 74H-16l178 200-94 191h137l102-196zm226 0L353 74H210l178 200-94 191h137l102-196z"/><glyph unicode="¼" glyph-name="onequarter" horiz-adv-x="1044" d="M397 367l-16-82H76l16 82h103l50 251h-93l16 82h206l-67-333h90zm384 333h126L295 0H170l611 700zM989 84h-68L904 0H796l18 84H588l14 70 237 261h124L738 169h104l14 70h95l-14-70h68l-16-85z"/><glyph unicode="½" glyph-name="onehalf" horiz-adv-x="1044" d="M397 367l-16-82H76l16 82h103l50 251h-93l16 82h206l-67-333h90zm384 333h126L295 0H170l611 700zm1-616h184L950 0H601l13 67 204 145q36 26 49 43t14 37q0 21-17 32t-50 12q-59 0-99-42l-68 51q29 36 77 57t110 21q73 0 116-32t44-86q0-25-8-45t-30-44-68-56L782 84z"/><glyph unicode="¾" glyph-name="threequarters" horiz-adv-x="1044" d="M447 633L328 533q49-10 74-37t25-69q0-44-27-78t-75-53-111-19q-54 0-102 13t-75 36l45 79q27-19 65-30t75-11q45 0 69 14t25 42q0 40-65 40h-65l14 68 105 89H106l16 83h339l-14-67zm334 67h126L295 0H170l611 700zM989 84h-68L904 0H796l18 84H588l14 70 237 261h124L738 169h104l14 70h95l-14-70h68l-16-85z"/><glyph unicode="¿" glyph-name="questiondown" horiz-adv-x="589" d="M290 365l-25 24-26 59q0 41 28 69t72 29q40 0 65-24t26-60q0-42-28-69t-72-28q-40 0-65 24zM129-165l-63 45L3 0q0 46 17 79t43 57 67 53q45 33 67 54t30 52h151q-10-50-40-82t-82-71q-45-33-66-56t-21-56q0-29 25-46t73-18q48 0 88 19t69 56l104-76q-45-61-121-95t-172-35q-106 0-169 45z"/><glyph unicode="À" glyph-name="Agrave" horiz-adv-x="766" d="M527 150H201L110 0H-63l453 700h160L722 0H560l-33 150zm-27 123l-59 270-165-270h224zM297 901h167l106-144H449L297 901z"/><glyph unicode="Á" glyph-name="Aacute" horiz-adv-x="766" d="M527 150H201L110 0H-63l453 700h160L722 0H560l-33 150zm-27 123l-59 270-165-270h224zm37 628h172L513 757H387l150 144z"/><glyph unicode="Â" glyph-name="Acircumflex" horiz-adv-x="766" d="M527 150H201L110 0H-63l453 700h160L722 0H560l-33 150zm-27 123l-59 270-165-270h224zm70 484l-77 75-97-75H279l152 144h137l113-144H570z"/><glyph unicode="Ã" glyph-name="Atilde" horiz-adv-x="766" d="M527 150H201L110 0H-63l453 700h160L722 0H560l-33 150zm-27 123l-59 270-165-270h224zm37 481l-19 10-43 28q-19 14-29 19t-22 6q-20 0-34-15t-19-41h-79q11 71 46 108t87 38q26 0 45-10t43-28q18-14 28-20t23-6q21 0 34 14t19 40h79q-11-68-45-105t-87-38q-27 0-46 10z"/><glyph unicode="Ä" glyph-name="Adieresis" horiz-adv-x="766" d="M527 150H201L110 0H-63l453 700h160L722 0H560l-33 150zm-27 123l-59 270-165-270h224zM360 762l-18 17-19 45q0 33 22 54t52 22q28 0 47-17t19-45q0-33-22-54t-53-22q-28 0-46 17zm203 0l-18 17-19 45q0 34 21 55t53 21q28 0 46-17t19-45q0-33-22-54t-52-22q-28 0-46 17z"/><glyph unicode="Å" glyph-name="Aring" horiz-adv-x="766" d="M527 150H201L110 0H-63l453 700h160L722 0H560l-33 150zm-27 123l-59 270-165-270h224zm-49 481l-36 35-36 86q0 50 36 85t88 36q53 0 89-35t36-86q0-51-36-86t-89-35q-52 0-88 35zm78 60l17 17 18 44q0 26-17 43t-44 18q-25 0-42-17t-18-44q0-26 17-43t43-18q26 0 43 17z"/><glyph unicode="Æ" glyph-name="AE" horiz-adv-x="1082" d="M715 570l-30-152h325l-25-126H659l-32-162h382L983 0H441l30 150H225L114 0H-64l530 700h643l-26-130H715zM496 273l59 298h-18L316 273h180z"/><glyph unicode="Ç" glyph-name="Ccedilla" horiz-adv-x="733" d="M292-12l-78 38L93 133 51 292q0 119 54 214t154 151 227 55q94 0 166-32t109-92l-117-96q-56 82-169 82-77 0-136-36t-91-98-33-138q0-81 51-128t145-48q111 0 186 81l96-98Q589-12 397-12q-105 0-183 38zm-65-220l-39 21 34 67q30-15 67-15 27 0 40 9t15 24q3 28-43 28h-35L314 8h83l-25-58q33-4 51-23t19-46q0-53-43-83t-117-30q-55 0-94 21z"/><glyph unicode="È" glyph-name="Egrave" horiz-adv-x="671" d="M304 570l-30-152h325l-25-126H248l-32-162h382L571 0H29l140 700h529l-27-130H304zm-42 331h167l106-144H414L262 901z"/><glyph unicode="É" glyph-name="Eacute" horiz-adv-x="671" d="M304 570l-30-152h325l-25-126H248l-32-162h382L571 0H29l140 700h529l-27-130H304zm198 331h172L478 757H352l150 144z"/><glyph unicode="Ê" glyph-name="Ecircumflex" horiz-adv-x="671" d="M304 570l-30-152h325l-25-126H248l-32-162h382L571 0H29l140 700h529l-27-130H304zm231 187l-77 75-97-75H244l152 144h137l113-144H535z"/><glyph unicode="Ë" glyph-name="Edieresis" horiz-adv-x="671" d="M304 570l-30-152h325l-25-126H248l-32-162h382L571 0H29l140 700h529l-27-130H304zm21 192l-18 17-19 45q0 33 22 54t52 22q28 0 47-17t19-45q0-33-22-54t-53-22q-28 0-46 17zm203 0l-18 17-19 45q0 34 21 55t53 21q28 0 46-17t19-45q0-33-22-54t-52-22q-28 0-46 17z"/><glyph unicode="Ì" glyph-name="Igrave" horiz-adv-x="328" d="M169 700h163L192 0H29l140 700zM78 901h167l106-144H230L78 901z"/><glyph unicode="Í" glyph-name="Iacute" horiz-adv-x="328" d="M169 700h163L192 0H29l140 700zm149 201h172L294 757H168l150 144z"/><glyph unicode="Î" glyph-name="Icircumflex" horiz-adv-x="328" d="M169 700h163L192 0H29l140 700zm182 57l-77 75-97-75H60l152 144h137l113-144H351z"/><glyph unicode="Ï" glyph-name="Idieresis" horiz-adv-x="328" d="M169 700h163L192 0H29l140 700zm-28 62l-18 17-19 45q0 33 22 54t52 22q28 0 47-17t19-45q0-33-22-54t-53-22q-28 0-46 17zm203 0l-18 17-19 45q0 34 21 55t53 21q28 0 46-17t19-45q0-33-22-54t-52-22q-28 0-46 17z"/><glyph unicode="Ð" glyph-name="Eth" horiz-adv-x="839" d="M182 700h293q107 0 184-35t119-102 42-155q0-122-55-214T612 51 384 0H42l140 700zm207-567q82 0 142 34t93 95 32 137q0 79-51 123t-148 45H318l-87-434h158zM29 410h432l-21-108H7l22 108z"/><glyph unicode="Ñ" glyph-name="Ntilde" horiz-adv-x="808" d="M811 700L671 0H538L277 438 189 0H29l140 700h134l261-439 87 439h160zm-252 54l-19 10-43 28q-19 14-29 19t-22 6q-20 0-34-15t-19-41h-79q11 71 46 108t87 38q26 0 45-10t43-28q18-14 28-20t23-6q21 0 34 14t19 40h79q-11-68-45-105t-87-38q-27 0-46 10z"/><glyph unicode="Ò" glyph-name="Ograve" horiz-adv-x="844" d="M287-12l-77 38L92 133 51 292q0 119 54 214t153 151 226 55q105 0 182-38t118-107 41-159q0-119-54-214T618 43 392-12q-105 0-182 38zm196 138l58 37 89 99 31 137q0 80-50 127t-141 48q-77 0-135-37t-89-99-31-137q0-80 50-127t141-48q77 0 135 37zM336 901h167l106-144H488L336 901z"/><glyph unicode="Ó" glyph-name="Oacute" horiz-adv-x="844" d="M287-12l-77 38L92 133 51 292q0 119 54 214t153 151 226 55q105 0 182-38t118-107 41-159q0-119-54-214T618 43 392-12q-105 0-182 38zm196 138l58 37 89 99 31 137q0 80-50 127t-141 48q-77 0-135-37t-89-99-31-137q0-80 50-127t141-48q77 0 135 37zm93 775h172L552 757H426l150 144z"/><glyph unicode="Ô" glyph-name="Ocircumflex" horiz-adv-x="844" d="M287-12l-77 38L92 133 51 292q0 119 54 214t153 151 226 55q105 0 182-38t118-107 41-159q0-119-54-214T618 43 392-12q-105 0-182 38zm196 138l58 37 89 99 31 137q0 80-50 127t-141 48q-77 0-135-37t-89-99-31-137q0-80 50-127t141-48q77 0 135 37zm126 631l-77 75-97-75H318l152 144h137l113-144H609z"/><glyph unicode="Õ" glyph-name="Otilde" horiz-adv-x="844" d="M287-12l-77 38L92 133 51 292q0 119 54 214t153 151 226 55q105 0 182-38t118-107 41-159q0-119-54-214T618 43 392-12q-105 0-182 38zm196 138l58 37 89 99 31 137q0 80-50 127t-141 48q-77 0-135-37t-89-99-31-137q0-80 50-127t141-48q77 0 135 37zm93 628l-19 10-43 28q-19 14-29 19t-22 6q-20 0-34-15t-19-41h-79q11 71 46 108t87 38q26 0 45-10t43-28q18-14 28-20t23-6q21 0 34 14t19 40h79q-11-68-45-105t-87-38q-27 0-46 10z"/><glyph unicode="Ö" glyph-name="Odieresis" horiz-adv-x="844" d="M287-12l-77 38L92 133 51 292q0 119 54 214t153 151 226 55q105 0 182-38t118-107 41-159q0-119-54-214T618 43 392-12q-105 0-182 38zm196 138l58 37 89 99 31 137q0 80-50 127t-141 48q-77 0-135-37t-89-99-31-137q0-80 50-127t141-48q77 0 135 37zm-84 636l-18 17-19 45q0 33 22 54t52 22q28 0 47-17t19-45q0-33-22-54t-53-22q-28 0-46 17zm203 0l-18 17-19 45q0 34 21 55t53 21q28 0 46-17t19-45q0-33-22-54t-52-22q-28 0-46 17z"/><glyph unicode="×" glyph-name="multiply" horiz-adv-x="599" d="M402 346l107-125-92-84-108 126-142-126-78 91 141 126-107 125 92 84 108-126 142 126 78-91-141-126z"/><glyph unicode="Ø" glyph-name="Oslash" horiz-adv-x="844" d="M287-12l-77 38L92 133 51 292q0 119 54 214t153 151 226 55q105 0 182-38t118-107 41-159q0-119-54-214T618 43 392-12q-105 0-182 38zm196 138l58 37 89 99 31 137q0 80-50 127t-141 48q-77 0-135-37t-89-99-31-137q0-80 50-127t141-48q77 0 135 37zm283 644h108L110-70H1l765 840z"/><glyph unicode="Ù" glyph-name="Ugrave" horiz-adv-x="788" d="M227-12l-75 65-75 180q0 33 8 75l78 392h163l-78-389q-6-33-6-59 0-63 34-94t101-32q74 0 118 44t64 141l78 389h159l-79-399Q653-12 359-12q-132 0-207 65zm82 913h167l106-144H461L309 901z"/><glyph unicode="Ú" glyph-name="Uacute" horiz-adv-x="788" d="M227-12l-75 65-75 180q0 33 8 75l78 392h163l-78-389q-6-33-6-59 0-63 34-94t101-32q74 0 118 44t64 141l78 389h159l-79-399Q653-12 359-12q-132 0-207 65zm322 913h172L525 757H399l150 144z"/><glyph unicode="Û" glyph-name="Ucircumflex" horiz-adv-x="788" d="M227-12l-75 65-75 180q0 33 8 75l78 392h163l-78-389q-6-33-6-59 0-63 34-94t101-32q74 0 118 44t64 141l78 389h159l-79-399Q653-12 359-12q-132 0-207 65zm355 769l-77 75-97-75H291l152 144h137l113-144H582z"/><glyph unicode="Ü" glyph-name="Udieresis" horiz-adv-x="788" d="M227-12l-75 65-75 180q0 33 8 75l78 392h163l-78-389q-6-33-6-59 0-63 34-94t101-32q74 0 118 44t64 141l78 389h159l-79-399Q653-12 359-12q-132 0-207 65zm145 774l-18 17-19 45q0 33 22 54t52 22q28 0 47-17t19-45q0-33-22-54t-53-22q-28 0-46 17zm203 0l-18 17-19 45q0 34 21 55t53 21q28 0 46-17t19-45q0-33-22-54t-52-22q-28 0-46 17z"/><glyph unicode="Ý" glyph-name="Yacute" horiz-adv-x="676" d="M413 243L365 0H203l49 250L72 700h162l125-312 251 312h167L413 243zm79 658h172L468 757H342l150 144z"/><glyph unicode="Þ" glyph-name="Thorn" horiz-adv-x="732" d="M569 623l71-57 71-161q0-88-41-153T552 152t-181-36H215L192 0H29l140 700h163l-15-77h123q129 0 200-57zM459 248l44 36 44 106q0 50-33 75t-97 26H290l-48-243h136q81 0 125 36z"/><glyph unicode="ß" glyph-name="germandbls" horiz-adv-x="693" d="M597 362l25-39 26-93q0-71-36-125t-99-83T370-8q-39 0-74 5t-55 15l40 121q33-13 84-13 58 0 92 27t35 77q0 38-28 58t-77 20h-53l25 123q66 2 105 34t39 88q0 35-23 55t-67 21q-55 0-90-30t-48-90L174 0H18l98 490q26 131 107 195t203 65q104 0 166-50t62-135q0-57-27-104t-77-78q47-21 72-60z"/><glyph unicode="à" glyph-name="agrave" horiz-adv-x="690" d="M672 538L565 0H417l10 53Q360-8 262-8q-63 0-116 29t-84 83-32 129q0 89 39 160t108 112 150 41q124 0 175-81l14 73h156zM356 121l36 22 56 63 20 92q0 55-32 87t-91 32q-46 0-82-22t-56-63-20-92q0-55 32-87t91-32q46 0 82 22zM234 751h167l106-144H386L234 751z"/><glyph unicode="á" glyph-name="aacute" horiz-adv-x="690" d="M672 538L565 0H417l10 53Q360-8 262-8q-63 0-116 29t-84 83-32 129q0 89 39 160t108 112 150 41q124 0 175-81l14 73h156zM356 121l36 22 56 63 20 92q0 55-32 87t-91 32q-46 0-82-22t-56-63-20-92q0-55 32-87t91-32q46 0 82 22zm118 630h172L450 607H324l150 144z"/><glyph unicode="â" glyph-name="acircumflex" horiz-adv-x="690" d="M672 538L565 0H417l10 53Q360-8 262-8q-63 0-116 29t-84 83-32 129q0 89 39 160t108 112 150 41q124 0 175-81l14 73h156zM356 121l36 22 56 63 20 92q0 55-32 87t-91 32q-46 0-82-22t-56-63-20-92q0-55 32-87t91-32q46 0 82 22zm151 486l-77 75-97-75H216l152 144h137l113-144H507z"/><glyph unicode="ã" glyph-name="atilde" horiz-adv-x="690" d="M672 538L565 0H417l10 53Q360-8 262-8q-63 0-116 29t-84 83-32 129q0 89 39 160t108 112 150 41q124 0 175-81l14 73h156zM356 121l36 22 56 63 20 92q0 55-32 87t-91 32q-46 0-82-22t-56-63-20-92q0-55 32-87t91-32q46 0 82 22zm118 483l-19 10-43 28q-19 14-29 19t-22 6q-20 0-34-15t-19-41h-79q11 71 46 108t87 38q26 0 45-10t43-28q18-14 28-20t23-6q21 0 34 14t19 40h79q-11-68-45-105t-87-38q-27 0-46 10z"/><glyph unicode="ä" glyph-name="adieresis" horiz-adv-x="690" d="M672 538L565 0H417l10 53Q360-8 262-8q-63 0-116 29t-84 83-32 129q0 89 39 160t108 112 150 41q124 0 175-81l14 73h156zM356 121l36 22 56 63 20 92q0 55-32 87t-91 32q-46 0-82-22t-56-63-20-92q0-55 32-87t91-32q46 0 82 22zm-59 491l-18 17-19 45q0 33 22 54t52 22q28 0 47-17t19-45q0-33-22-54t-53-22q-28 0-46 17zm203 0l-18 17-19 45q0 34 21 55t53 21q28 0 46-17t19-45q0-33-22-54t-52-22q-28 0-46 17z"/><glyph unicode="å" glyph-name="aring" horiz-adv-x="690" d="M672 538L565 0H417l10 53Q360-8 262-8q-63 0-116 29t-84 83-32 129q0 89 39 160t108 112 150 41q124 0 175-81l14 73h156zM356 121l36 22 56 63 20 92q0 55-32 87t-91 32q-46 0-82-22t-56-63-20-92q0-55 32-87t91-32q46 0 82 22zm29 471l-36 35-36 86q0 50 36 85t88 36q53 0 89-35t36-86q0-51-36-86t-89-35q-52 0-88 35zm78 60l17 17 18 44q0 26-17 43t-44 18q-25 0-42-17t-18-44q0-26 17-43t43-18q26 0 43 17z"/><glyph unicode="æ" glyph-name="ae" horiz-adv-x="995" d="M970 269l-10-43H543q4-56 38-82t102-27q90 0 144 50l68-103q-47-36-105-54T667-8q-68 0-125 23t-93 72q-39-51-94-73T229-8Q130-8 73 34T16 146q0 80 63 125t183 46h138q2 16 2 22 0 40-28 61t-84 21q-42 0-83-11t-73-32L93 489q44 27 105 42t119 15q141 0 195-74 80 74 198 74 78 0 137-29t91-83 32-125q0-40-10-83zM647 429l-38-30-55-82h269q1 52-32 82t-89 30q-55 0-93-30zM301 97l32 25 43 79 5 25H265q-46 0-71-18t-26-51q0-28 21-44t64-16q48 0 80 25z"/><glyph unicode="ç" glyph-name="ccedilla" horiz-adv-x="591" d="M220-8l-62 30-95 84-34 127q0 89 42 160t117 112 169 41q86 0 148-35t94-101l-132-66q-35 73-120 73-46 0-82-22t-57-63-21-91q0-55 33-87t92-33q86 0 132 72l115-72q-39-61-106-95T303-8q-83 0-145 30zm-65-224l-39 21 34 67q30-15 67-15 27 0 40 9t15 24q3 28-43 28h-35L242 8h83l-25-58q33-4 51-23t19-46q0-53-43-83t-117-30q-55 0-94 21z"/><glyph unicode="è" glyph-name="egrave" horiz-adv-x="628" d="M603 272l-9-45H182q8-110 139-110 41 0 78 13t66 37l65-103q-45-36-103-54T305-8q-83 0-145 29t-96 85-34 127q0 89 40 160t113 112 164 41q78 0 135-29t89-83 32-125q0-37-9-82zM285 429l-38-29-54-82h267q0 52-32 81t-88 30q-55 0-93-29zm-87 321h167l106-144H350L198 750z"/><glyph unicode="é" glyph-name="eacute" horiz-adv-x="628" d="M603 272l-9-45H182q8-110 139-110 41 0 78 13t66 37l65-103q-45-36-103-54T305-8q-83 0-145 29t-96 85-34 127q0 89 40 160t113 112 164 41q78 0 135-29t89-83 32-125q0-37-9-82zM285 429l-38-29-54-82h267q0 52-32 81t-88 30q-55 0-93-29zm153 321h172L414 606H288l150 144z"/><glyph unicode="ê" glyph-name="ecircumflex" horiz-adv-x="628" d="M603 272l-9-45H182q8-110 139-110 41 0 78 13t66 37l65-103q-45-36-103-54T305-8q-83 0-145 29t-96 85-34 127q0 89 40 160t113 112 164 41q78 0 135-29t89-83 32-125q0-37-9-82zM285 429l-38-29-54-82h267q0 52-32 81t-88 30q-55 0-93-29zm186 177l-77 75-97-75H180l152 144h137l113-144H471z"/><glyph unicode="ë" glyph-name="edieresis" horiz-adv-x="628" d="M603 272l-9-45H182q8-110 139-110 41 0 78 13t66 37l65-103q-45-36-103-54T305-8q-83 0-145 29t-96 85-34 127q0 89 40 160t113 112 164 41q78 0 135-29t89-83 32-125q0-37-9-82zM285 429l-38-29-54-82h267q0 52-32 81t-88 30q-55 0-93-29zm-24 182l-18 17-19 45q0 33 22 54t52 22q28 0 47-17t19-45q0-33-22-54t-53-22q-28 0-46 17zm203 0l-18 17-19 45q0 34 21 55t53 21q28 0 46-17t19-45q0-33-22-54t-52-22q-28 0-46 17z"/><glyph unicode="ì" glyph-name="igrave" horiz-adv-x="300" d="M126 538h155L174 0H19l107 538zM35 751h167l106-144H187L35 751z"/><glyph unicode="í" glyph-name="iacute" horiz-adv-x="300" d="M126 538h155L174 0H19l107 538zm149 213h172L251 607H125l150 144z"/><glyph unicode="î" glyph-name="icircumflex" horiz-adv-x="300" d="M126 538h155L174 0H19l107 538zm160 69l-56 70-74-70H42l129 144h134l89-144H286z"/><glyph unicode="ï" glyph-name="idieresis" horiz-adv-x="300" d="M126 538h155L174 0H19l107 538zm-6 74l-18 17-18 45q0 33 20 54t51 22q26 0 43-18t17-46q0-32-20-53t-49-21q-26 0-44 17zm164 0l-17 17-18 45q0 33 20 54t50 22q26 0 43-17t17-45q0-33-19-54t-50-22q-26 0-43 17z"/><glyph unicode="ð" glyph-name="eth" horiz-adv-x="657" d="M602 610q45-71 45-169 0-124-45-227T470 49 270-12q-73 0-129 26T54 87 23 195q0 73 36 130t102 89 147 32q57 0 101-19t71-54q3 15 5 49 1 8 1 23 0 70-31 111l-251-91-28 79 190 70q-33 7-65 7-72 0-132-19l5 120q70 19 152 19 132 0 214-64l109 40 28-80-75-27zM350 109l41 34 41 86q0 45-29 71t-82 26q-64 0-103-33t-39-87q0-45 29-71t82-26q60 0 101 34z"/><glyph unicode="ñ" glyph-name="ntilde" horiz-adv-x="691" d="M529 546l53-47 53-136q0-33-7-65L568 0H412l58 288q4 17 4 37 0 42-23 64t-69 22q-60 0-99-34t-54-104L175 0H19l107 538h148l-12-58q72 66 177 66 90 0 143-47zm-56 58l-19 10-43 28q-19 14-29 19t-22 6q-20 0-34-15t-19-41h-79q11 71 46 108t87 38q26 0 45-10t43-28q18-14 28-20t23-6q21 0 34 14t19 40h79q-11-68-45-105t-87-38q-27 0-46 10z"/><glyph unicode="ò" glyph-name="ograve" horiz-adv-x="654" d="M219-8l-61 30-95 84-34 127q0 89 42 160t116 112 167 41q82 0 143-30t94-84 34-127q0-89-41-160T468 33 300-8q-81 0-142 30zm136 129l36 22 56 63 20 92q0 55-32 87t-90 32q-46 0-82-22t-56-63-20-92q0-55 32-87t91-32q45 0 81 22zM209 751h167l106-144H361L209 751z"/><glyph unicode="ó" glyph-name="oacute" horiz-adv-x="654" d="M219-8l-61 30-95 84-34 127q0 89 42 160t116 112 167 41q82 0 143-30t94-84 34-127q0-89-41-160T468 33 300-8q-81 0-142 30zm136 129l36 22 56 63 20 92q0 55-32 87t-90 32q-46 0-82-22t-56-63-20-92q0-55 32-87t91-32q45 0 81 22zm94 630h172L425 607H299l150 144z"/><glyph unicode="ô" glyph-name="ocircumflex" horiz-adv-x="654" d="M219-8l-61 30-95 84-34 127q0 89 42 160t116 112 167 41q82 0 143-30t94-84 34-127q0-89-41-160T468 33 300-8q-81 0-142 30zm136 129l36 22 56 63 20 92q0 55-32 87t-90 32q-46 0-82-22t-56-63-20-92q0-55 32-87t91-32q45 0 81 22zm127 486l-77 75-97-75H191l152 144h137l113-144H482z"/><glyph unicode="õ" glyph-name="otilde" horiz-adv-x="654" d="M219-8l-61 30-95 84-34 127q0 89 42 160t116 112 167 41q82 0 143-30t94-84 34-127q0-89-41-160T468 33 300-8q-81 0-142 30zm136 129l36 22 56 63 20 92q0 55-32 87t-90 32q-46 0-82-22t-56-63-20-92q0-55 32-87t91-32q45 0 81 22zm94 483l-19 10-43 28q-19 14-29 19t-22 6q-20 0-34-15t-19-41h-79q11 71 46 108t87 38q26 0 45-10t43-28q18-14 28-20t23-6q21 0 34 14t19 40h79q-11-68-45-105t-87-38q-27 0-46 10z"/><glyph unicode="ö" glyph-name="odieresis" horiz-adv-x="654" d="M219-8l-61 30-95 84-34 127q0 89 42 160t116 112 167 41q82 0 143-30t94-84 34-127q0-89-41-160T468 33 300-8q-81 0-142 30zm136 129l36 22 56 63 20 92q0 55-32 87t-90 32q-46 0-82-22t-56-63-20-92q0-55 32-87t91-32q45 0 81 22zm-83 491l-18 17-19 45q0 33 22 54t52 22q28 0 47-17t19-45q0-33-22-54t-53-22q-28 0-46 17zm203 0l-18 17-19 45q0 34 21 55t53 21q28 0 46-17t19-45q0-33-22-54t-52-22q-28 0-46 17z"/><glyph unicode="÷" glyph-name="divide" horiz-adv-x="599" d="M318 475l-22 21-22 55q0 40 25 65t64 25q34 0 55-20t22-54q0-39-26-65t-63-27q-33 0-55 21zM90 411h476l-24-122H66l24 122zM235 59l-22 21-22 55q0 39 26 64t63 26q33 0 55-21t22-54q0-39-26-65t-63-26q-33 0-55 21z"/><glyph unicode="ø" glyph-name="oslash" horiz-adv-x="654" d="M219-8l-61 30-95 84-34 127q0 89 42 160t116 112 167 41q82 0 143-30t94-84 34-127q0-89-41-160T468 33 300-8q-81 0-142 30zm136 129l36 22 56 63 20 92q0 55-32 87t-90 32q-46 0-82-22t-56-63-20-92q0-55 32-87t91-32q45 0 81 22zm214 484h82L80-70H-2l571 675z"/><glyph unicode="ù" glyph-name="ugrave" horiz-adv-x="687" d="M668 538L561 0H413l11 58q-35-33-80-49T249-8q-88 0-140 48T56 175q0 33 7 65l59 298h156l-57-288q-4-19-4-39 0-84 90-84 59 0 97 34t53 104l55 273h156zM226 751h167l106-144H378L226 751z"/><glyph unicode="ú" glyph-name="uacute" horiz-adv-x="687" d="M668 538L561 0H413l11 58q-35-33-80-49T249-8q-88 0-140 48T56 175q0 33 7 65l59 298h156l-57-288q-4-19-4-39 0-84 90-84 59 0 97 34t53 104l55 273h156zM466 751h172L442 607H316l150 144z"/><glyph unicode="û" glyph-name="ucircumflex" horiz-adv-x="687" d="M668 538L561 0H413l11 58q-35-33-80-49T249-8q-88 0-140 48T56 175q0 33 7 65l59 298h156l-57-288q-4-19-4-39 0-84 90-84 59 0 97 34t53 104l55 273h156zm-169 69l-77 75-97-75H208l152 144h137l113-144H499z"/><glyph unicode="ü" glyph-name="udieresis" horiz-adv-x="687" d="M668 538L561 0H413l11 58q-35-33-80-49T249-8q-88 0-140 48T56 175q0 33 7 65l59 298h156l-57-288q-4-19-4-39 0-84 90-84 59 0 97 34t53 104l55 273h156zm-379 74l-18 17-19 45q0 33 22 54t52 22q28 0 47-17t19-45q0-33-22-54t-53-22q-28 0-46 17zm203 0l-18 17-19 45q0 34 21 55t53 21q28 0 46-17t19-45q0-33-22-54t-52-22q-28 0-46 17z"/><glyph unicode="ý" glyph-name="yacute" horiz-adv-x="598" d="M660 538L302-36q-58-94-112-130T56-202q-42 0-82 13t-64 34l72 112q36-33 86-33 30 0 52 15t45 51l5 9L46 538h156l80-366 224 366h154zM412 751h172L388 607H262l150 144z"/><glyph unicode="þ" glyph-name="thorn" horiz-adv-x="690" d="M491 546l53-29 85-83 32-129q0-89-39-160T514 33 363-8Q238-8 189 73l-53-267H-20l187 936h156l-50-249q64 53 155 53 63 0 116-29zM391 121l36 22 56 63 20 92q0 55-32 87t-91 32q-45 0-81-22t-56-63-20-92q0-55 32-87t90-32q46 0 82 22z"/><glyph unicode="ÿ" glyph-name="ydieresis" horiz-adv-x="598" d="M660 538L302-36q-58-94-112-130T56-202q-42 0-82 13t-64 34l72 112q36-33 86-33 30 0 52 15t45 51l5 9L46 538h156l80-366 224 366h154zm-425 74l-18 17-19 45q0 33 22 54t52 22q28 0 47-17t19-45q0-33-22-54t-53-22q-28 0-46 17zm203 0l-18 17-19 45q0 34 21 55t53 21q28 0 46-17t19-45q0-33-22-54t-52-22q-28 0-46 17z"/><glyph unicode="–" glyph-name="endash" horiz-adv-x="500" d="M12 330h500l-19-97H-7l19 97z"/><glyph unicode="—" glyph-name="emdash" horiz-adv-x="1000" d="M12 330h1000l-19-97H-7l19 97z"/><glyph unicode="‘" glyph-name="quoteleft" horiz-adv-x="262" d="M253 569l10-19 11-44q0-46-30-75t-74-29q-40 0-65 25t-26 65q0 21 7 40t27 49l100 161h98l-76-161q18-12 28-31z"/><glyph unicode="’" glyph-name="quoteright" horiz-adv-x="262" d="M254 750l25-25 26-65q0-21-7-40t-27-49l-99-161H73l76 161q-18 12-28 31t-11 44q0 46 30 75t74 29q40 0 65-25z"/><glyph unicode="‚" glyph-name="quotesinglbase" horiz-adv-x="262" d="M142 186l25-25 26-65q0-21-7-39T158 7L58-154h-98L37 7Q19 19 9 38T-2 82q0 46 30 75t74 29q40 0 65-25z"/><glyph unicode="“" glyph-name="quotedblleft" horiz-adv-x="498" d="M253 569l10-19 11-44q0-46-30-75t-74-29q-40 0-65 25t-26 65q0 21 7 40t27 49l100 161h98l-76-161q18-12 28-31zm236 0l10-19 11-44q0-46-30-75t-74-29q-40 0-65 25t-26 65q0 21 7 40t27 49l100 161h98l-76-161q18-12 28-31z"/><glyph unicode="”" glyph-name="quotedblright" horiz-adv-x="498" d="M254 750l25-25 26-65q0-21-7-40t-27-49l-99-161H73l76 161q-18 12-28 31t-11 44q0 46 30 75t74 29q40 0 65-25zm236 0l25-25 26-65q0-21-7-40t-27-49l-99-161h-99l76 161q-18 12-28 31t-11 44q0 46 30 75t74 29q40 0 65-25z"/><glyph unicode="„" glyph-name="quotedblbase" horiz-adv-x="498" d="M142 186l25-25 26-65q0-21-7-39T158 7L58-154h-98L37 7Q19 19 9 38T-2 82q0 46 30 75t74 29q40 0 65-25zm236 0l25-25 26-65q0-21-7-39T394 7L294-154h-98L273 7q-18 12-28 31t-11 44q0 46 30 75t74 29q40 0 65-25z"/><glyph unicode="•" glyph-name="bullet" horiz-adv-x="358" d="M124 153l-34 33-35 84q0 59 38 97t96 38q49 0 83-33t35-83q0-39-18-70t-48-48-67-18q-50 0-84 33z"/><glyph unicode="‹" glyph-name="guilsinglleft" horiz-adv-x="342" d="M181 265l94-191H138L36 269l180 196h143L181 265z"/><glyph unicode="›" glyph-name="guilsinglright" horiz-adv-x="343" d="M307 269L127 74H-16l178 200-94 191h137l102-196z"/></font>
</defs>
</svg>
