<svg xmlns="http://www.w3.org/2000/svg"><defs><font id="Montserrat" horiz-adv-x="628"><font-face font-family="Montserrat Thin" panose-1="0 0 3 0 0 0 0 0 0 0" ascent="968" descent="-251" alphabetic="0"/><glyph glyph-name="space" horiz-adv-x="250"/><glyph unicode="!" glyph-name="exclam" horiz-adv-x="242" d="M198 700h22L114 188h-14l98 512zM64-3l-8 8-8 18q0 11 8 18t18 8q11 0 18-7t8-19q0-10-7-18T74-3Q64-3 56 5z"/><glyph unicode="&quot;" glyph-name="quotedbl" horiz-adv-x="334" d="M169 700h22l-52-250h-18l48 250zm150 0h22l-52-250h-18l48 250z"/><glyph unicode="#" glyph-name="numbersign" horiz-adv-x="682" d="M538 471l-77-242h149l-4-19H455L387 0h-21l68 210H195L127 0h-21l68 210H26l4 19h150l77 242H109l4 19h151l67 210h21l-67-210h239l67 210h21l-67-210h148l-4-19H538zm-21 0H278l-77-242h239l77 242z"/><glyph unicode="$" glyph-name="dollar" horiz-adv-x="601" d="M542 652l-46 15-100 17-65-326q65-19 103-35t66-47 27-81q0-95-74-146T263-3h-5l-23-117h-19L240-2q-69 5-128 31T26 95l16 13q25-37 81-62t120-29l66 327q-56 16-93 33t-61 47-24 79q0 93 69 145t181 55l23 117h19l-23-117q55-2 105-18t85-44l-13-17q-35 28-81 43zM150 464l21-27 56-43 86-31 64 321q-101-3-164-50t-63-129q0-41 21-68zm357-227l-24 27-60 42-96 32-65-322h2q109 0 176 47t67 131q0 43-24 70z"/><glyph unicode="%" glyph-name="percent" horiz-adv-x="800" d="M165 328l-34 38-34 106q0 59 22 112t64 85 94 33q58 0 92-38t34-106q0-59-22-112t-64-85-94-33q-58 0-92 38zm549 372h24L122 0H98l616 700zM272 346l36 30 56 79 19 101q0 60-28 94t-79 34q-48 0-84-30t-56-79-19-101q0-60 28-94t79-34q48 0 84 30zM501-3l-34 38-34 106q0 59 22 112t64 85 94 33q58 0 92-38t34-106q0-59-22-112t-64-85-94-33q-58 0-92 38zm107 18l36 30 56 79 19 101q0 60-28 94t-79 34q-48 0-84-30t-56-79-19-101q0-60 28-94t79-34q48 0 84 30z"/><glyph unicode="&amp;" glyph-name="ampersand" horiz-adv-x="634" d="M544 188l-56-67L575 1l-15-11-85 117Q375-3 223-3 137-3 86 38T35 147q0 44 22 82t73 78 140 84l-7 9q-30 41-44 76t-15 69q0 72 46 115t124 43q60 0 95-30t36-80q0-41-19-73t-63-63-125-73l179-248q51 62 87 154l18-4q-38-98-94-165zM224 485l56-77 6-9q79 40 121 69t60 58 19 67q0 40-30 65t-82 26q-68 0-109-37t-41-100q0-62 56-139zM367 14l98 107-184 254q-88-44-137-80t-69-71-20-77q0-60 45-96t124-37q143 0 241 107z"/><glyph unicode="'" glyph-name="quotesingle" horiz-adv-x="184" d="M169 700h22l-52-250h-18l48 250z"/><glyph unicode="(" glyph-name="parenleft" horiz-adv-x="311" d="M125-137l-10 65-11 127q0 185 62 373t163 314h20q-66-81-117-196t-81-243-29-248q0-123 39-249h-17q-19 57-29 122z"/><glyph unicode=")" glyph-name="parenright" horiz-adv-x="311" d="M99-113L150 2l81 243 29 248q0 123-39 249h17q19-57 29-122t11-127q0-185-62-373T53-194H33Q99-113 150 2z"/><glyph unicode="*" glyph-name="asterisk" horiz-adv-x="358" d="M261 571l117-76-11-15-119 78-32-156h-18l31 153-147-76-8 16 151 78-119 77 11 15 119-78 30 155h18l-30-155 149 78 7-17-149-77z"/><glyph unicode="+" glyph-name="plus" horiz-adv-x="560" d="M502 340H306l-38-190h-20l38 190H91l4 19h195l38 191h20l-38-191h196l-4-19z"/><glyph unicode="," glyph-name="comma" horiz-adv-x="182" d="M55 49l7-7 8-19q0-10-4-18T61-6L0-140h-18L39-2q-9 1-15 8t-6 17q0 11 8 18t18 8q11 0 18-7z"/><glyph unicode="-" glyph-name="hyphen" horiz-adv-x="380" d="M68 274h250l-4-19H64l4 19z"/><glyph unicode="." glyph-name="period" horiz-adv-x="182" d="M34-3l-8 8-8 18q0 11 8 18t18 8q11 0 18-7t8-19q0-10-7-18T44-3Q34-3 26 5z"/><glyph unicode="/" glyph-name="slash" horiz-adv-x="300" d="M424 842h22L-70-100h-22l516 942z"/><glyph unicode="0" glyph-name="zero" horiz-adv-x="652" d="M178-3l-55 65-56 181q0 116 42 222t120 172 181 66q100 0 155-65t56-181q0-116-42-222T459 63 278-3Q178-3 123 62zm200 19l73 64 113 167 39 211q0 107-51 166t-145 60q-97 0-170-64T124 453 85 242q0-107 51-166t145-60q97 0 170 64z"/><glyph unicode="1" glyph-name="one" horiz-adv-x="342" d="M297 700L157 0h-19l136 681H94l4 19h199z"/><glyph unicode="2" glyph-name="two" horiz-adv-x="555" d="M29 19h434l-4-19H-9l3 15 370 306q82 69 114 119t32 108q0 64-44 100t-135 36q-65 0-122-22t-96-63l-15 14q42 43 103 66t131 24q98 0 148-41t50-113q0-61-34-116T378 307L29 19z"/><glyph unicode="3" glyph-name="three" horiz-adv-x="548" d="M549 685L265 387q106-1 160-45t55-126q0-65-33-114t-93-77T215-3Q134-3 73 24t-88 72l17 13q24-42 80-67t134-26q74 0 129 25t85 70 30 105q0 75-49 113t-151 39h-28l3 15 284 298H125l4 19h423l-3-15z"/><glyph unicode="4" glyph-name="four" horiz-adv-x="644" d="M617 208H461L419 0h-20l42 208H36l3 15 486 477h27L70 227h374l37 183h20l-37-183h157l-4-19z"/><glyph unicode="5" glyph-name="five" horiz-adv-x="548" d="M216 681l-90-284h122q126 0 186-46t61-131q0-103-71-163T230-3Q149-3 88 24T0 96l17 13q24-42 80-67t135-26q114 0 178 54t65 150q0 77-54 117t-176 41H100l101 322h355l-4-19H216z"/><glyph unicode="6" glyph-name="six" horiz-adv-x="592" d="M308 684l-77-63-111-161-34-206v-16q24 84 91 126t149 42q98 0 159-51t61-140q0-101-66-159T306-3Q196-3 131 64T66 260q0 111 36 211t119 166 212 66q95 0 152-35l-12-18q-52 34-142 34-123 0-200-63zm-49-297l-51-26-81-72-29-98q0-44 23-84t71-65 115-26q100 0 159 53t60 144q0 83-55 128t-146 46q-66 0-117-26z"/><glyph unicode="7" glyph-name="seven" horiz-adv-x="570" d="M610 700l-3-15L159 0h-25l445 681H140l-28-141H92l32 160h486z"/><glyph unicode="8" glyph-name="eight" horiz-adv-x="624" d="M481 345l37-42 37-102q0-62-33-108t-95-71T283-3Q169-3 105 44T41 174q0 81 57 133t159 63q-59 16-90 53t-32 91q0 87 66 138t178 51q100 0 160-43t61-119q0-73-49-120t-139-59q69-17 106-59zM156 452l52-38 149-39q103 0 163 44t60 119q0 67-54 106t-149 40q-101 0-161-45t-60-121q0-66 52-104zM401 16l67 50 68 134q0 72-60 114t-167 42q-116 0-182-49T60 173q0-73 59-115t166-42q116 0 183 50z"/><glyph unicode="9" glyph-name="nine" horiz-adv-x="592" d="M432 703l65-67 65-196q0-111-36-211T407 63 195-3Q100-3 43 32l12 18q52-34 142-34 123 0 200 63t111 161 34 206v16q-24-84-91-126t-149-42q-98 0-159 51T82 485q0 101 66 159t174 59q110 0 175-67zm-63-390l51 26 81 72 29 98q0 44-23 84t-71 65-115 26q-100 0-159-53t-60-144q0-83 55-128t146-46q66 0 117 26z"/><glyph unicode=":" glyph-name="colon" horiz-adv-x="182" d="M129 468l-8 8-8 18q0 11 8 18t18 8q11 0 18-7t8-19q0-10-7-18t-19-8q-10 0-18 8zM34-3l-8 8-8 18q0 11 8 18t18 8q11 0 18-7t8-19q0-10-7-18T44-3Q34-3 26 5z"/><glyph unicode=";" glyph-name="semicolon" horiz-adv-x="182" d="M129 468l-8 8-8 18q0 11 8 18t18 8q11 0 18-7t8-19q0-10-7-18t-19-8q-10 0-18 8zM55 49l7-7 8-19q0-10-4-18T61-6L0-140h-18L39-2q-9 1-15 8t-6 17q0 11 8 18t18 8q11 0 18-7z"/><glyph unicode="&lt;" glyph-name="less" horiz-adv-x="560" d="M533 509L114 349l356-161-4-20L90 339l4 22 444 171-5-23z"/><glyph unicode="=" glyph-name="equal" horiz-adv-x="560" d="M118 469h410l-4-19H114l4 19zM74 250h410l-4-19H70l4 19z"/><glyph unicode="&gt;" glyph-name="greater" horiz-adv-x="560" d="M506 361l-4-22L58 168l5 23 419 160-356 161 4 20 376-171z"/><glyph unicode="?" glyph-name="question" horiz-adv-x="554" d="M244 233l21 33 48 57 66 51q42 31 66 53t40 54 17 77q0 60-44 93t-125 33q-76 0-132-21t-99-64l-13 15q91 89 244 89 90 0 139-37t49-108q0-49-17-85t-43-59-71-56q-40-29-63-49t-44-51-27-70h-20q8 45 29 78zM203-3l-8 8-8 18q0 11 8 18t18 8q11 0 18-7t8-19q0-10-7-18t-19-8q-10 0-18 8z"/><glyph unicode="@" glyph-name="at" horiz-adv-x="1032" d="M709 703l90-44 137-126 47-190q0-90-28-170T881 45 783-3q-35 0-56 19t-21 52q0 7 2 21l9 46Q680 71 617 34T474-3Q373-3 314 53t-60 154q0 89 37 160t104 112 151 41q92 0 147-44t66-127l34 168h20L730 99q-3-15-3-28 0-55 58-55 46 0 87 46t66 123 25 160q0 102-43 178T790 641t-210 43q-152 0-268-70T131 425 67 165q0-102 43-179t126-120 200-43q56 0 107 12t90 34l5-20q-42-22-95-34t-111-12q-119 0-206 45T93-24 47 166q0 144 65 267t187 196 283 74q127 0 217-44zM553 16l61 38 97 105 35 150q0 91-53 141t-150 51q-76 0-137-38t-97-105-35-150q0-91 53-141t150-51q76 0 137 38z"/><glyph unicode="A" glyph-name="A" horiz-adv-x="688" d="M550 211H121L-19 0h-24l465 700h20L627 0h-21l-56 211zm-5 19L429 674 134 230h411z"/><glyph unicode="B" glyph-name="B" horiz-adv-x="748" d="M596 349l38-36 38-99q0-103-75-158T382 0H81l140 700h277q95 0 149-36t54-105q0-81-48-132t-127-69q70-9 108-45zm-422 16h261q110 0 178 49t68 142q0 62-47 93t-136 32H237l-63-316zM514 19l69 50 69 143q0 71-48 102t-149 32H170L105 19h281q128 0 197 50z"/><glyph unicode="C" glyph-name="C" horiz-adv-x="711" d="M286-3l-71 35-107 99-37 149q0 113 51 210t147 155 223 58q78 0 139-23t96-65l-14-13q-73 82-223 82-119 0-209-54T141 483 91 280q0-121 76-192t221-72q152 0 244 86l12-16q-44-41-112-65T386-3Q286-3 215 32z"/><glyph unicode="D" glyph-name="D" horiz-adv-x="826" d="M221 700h251q103 0 175-35t109-98 37-147q0-121-53-216T587 54 357 0H81l140 700zM359 19q124 0 218 51t145 142 51 208q0 121-77 191t-226 70H237L105 19h254z"/><glyph unicode="E" glyph-name="E" horiz-adv-x="668" d="M237 681l-63-316h386l-4-19H170L105 19h446l-4-19H81l140 700h451l-4-19H237z"/><glyph unicode="F" glyph-name="F" horiz-adv-x="629" d="M237 681l-67-336h386l-4-19H166L101 0H81l140 700h451l-4-19H237z"/><glyph unicode="G" glyph-name="G" horiz-adv-x="774" d="M572 703l62-23 98-66-14-13q-72 83-228 83-119 0-209-54T141 483 91 280q0-121 76-192t221-72q125 0 223 80l49 247h19L628 87q-46-42-108-66T386-3Q286-3 215 32t-107 99-37 149q0 113 51 210t147 155 223 58q80 0 142-23z"/><glyph unicode="H" glyph-name="H" horiz-adv-x="816" d="M771 700L631 0h-20l69 346H170L101 0H81l140 700h20l-67-335h510l67 335h20z"/><glyph unicode="I" glyph-name="I" horiz-adv-x="286" d="M221 700h20L101 0H81l140 700z"/><glyph unicode="J" glyph-name="J" horiz-adv-x="477" d="M79-3L34 24l-64 72 18 10Q7 64 46 40t94-24q72 0 114 41t63 139l97 485H152l4 19h282L336 190Q316 87 268 42T137-3Q79-3 34 24z"/><glyph unicode="K" glyph-name="K" horiz-adv-x="693" d="M363 378L625 0h-24L348 365 138 187 101 0H81l140 700h20l-97-483 568 483h30L363 378z"/><glyph unicode="L" glyph-name="L" horiz-adv-x="580" d="M221 700h20L105 19h417l-4-19H81l140 700z"/><glyph unicode="M" glyph-name="M" horiz-adv-x="956" d="M911 700L771 0h-20l130 652L458 99h-12L232 658 101 0H81l140 700h17l218-572 436 572h19z"/><glyph unicode="N" glyph-name="N" horiz-adv-x="816" d="M771 700L631 0h-17L234 667 101 0H81l140 700h17L618 33l133 667h20z"/><glyph unicode="O" glyph-name="O" horiz-adv-x="836" d="M286-3l-71 35-107 99-37 149q0 113 51 210t145 155 220 58q100 0 171-35t107-99 37-149q0-113-51-210T606 55 386-3Q286-3 215 32zm218 19l90 54 139 147 49 203q0 121-76 192t-221 72q-116 0-206-54T140 483 91 280q0-121 76-192t221-72q116 0 206 54z"/><glyph unicode="P" glyph-name="P" horiz-adv-x="710" d="M567 700l61-48 62-138q0-133-84-203t-233-71H149L101 0H81l140 700h235q111 0 172-48zm-52-441l77 65 78 190q0 80-55 123t-158 44H237l-84-422h219q143 0 220 65z"/><glyph unicode="Q" glyph-name="Q" horiz-adv-x="836" d="M676-105l55 70 14-13q-31-37-73-56t-88-20q-59 0-108 30T380-3q-98 1-167 36t-106 99-36 148q0 113 51 210t145 155 220 58q100 0 171-35t107-99 37-149q0-109-48-204T617 62 409-2q75-103 176-103 91 0 146 70zM91 159l76-71 221-72q116 0 206 54t139 147 49 203q0 121-76 192t-221 72q-116 0-206-54T140 483 91 280q0-121 76-192z"/><glyph unicode="R" glyph-name="R" horiz-adv-x="716" d="M690 402l-59-67-168-87L603 0h-23L442 244q-29-4-69-4H149L101 0H81l140 700h235q111 0 172-48t62-138q0-112-59-179zM515 259l77 65 78 190q0 80-55 123t-158 44H237l-84-422h219q143 0 220 65z"/><glyph unicode="S" glyph-name="S" horiz-adv-x="601" d="M189-3l-67 28-96 70 16 13q28-40 91-66t131-26q109 0 176 47t67 131q0 43-24 70t-60 42-97 32q-64 19-102 35t-66 48-27 82q0 95 72 147t185 53q58 0 112-16t90-46l-13-17q-37 29-85 44t-104 16q-106 0-172-48t-66-131q0-44 24-72t61-43 98-33q65-19 103-35t64-47 27-80q0-95-74-146T263-3q-74 0-141 28z"/><glyph unicode="T" glyph-name="T" horiz-adv-x="548" d="M348 681H88l4 19h540l-4-19H368L232 0h-20l136 681z"/><glyph unicode="U" glyph-name="U" horiz-adv-x="794" d="M248-3l-61 56-61 160q0 41 8 80l81 407h20l-81-405q-9-43-9-81 0-96 55-147t160-51q120 0 193 68t101 210l81 406h20l-81-407Q615-3 360-3 248-3 187 53z"/><glyph unicode="V" glyph-name="V" horiz-adv-x="670" d="M748 700L293 0h-20L98 700h21L287 27l437 673h24z"/><glyph unicode="W" glyph-name="W" horiz-adv-x="1080" d="M1123 700L743 0h-20L622 670 253 0h-20L133 700h20l95-670 369 670h20L738 31l363 669h22z"/><glyph unicode="X" glyph-name="X" horiz-adv-x="621" d="M342 362L544 0h-21L330 348-3 0h-24l347 365-187 335h21l179-322 307 322h24L342 362z"/><glyph unicode="Y" glyph-name="Y" horiz-adv-x="610" d="M310 235L263 0h-20l48 238L98 700h22l184-442 359 442h25L310 235z"/><glyph unicode="Z" glyph-name="Z" horiz-adv-x="639" d="M675 685L32 19h520l-4-19H-2l3 15 642 666H139l4 19h535l-3-15z"/><glyph unicode="[" glyph-name="bracketleft" horiz-adv-x="288" d="M229 742h130l-4-19H245L66-175h110l-4-19H42l187 936z"/><glyph unicode="\" glyph-name="backslash" horiz-adv-x="300" d="M229-100L86 842h19l143-942h-19z"/><glyph unicode="]" glyph-name="bracketright" horiz-adv-x="288" d="M-64-194l4 19H50l179 898H119l4 19h130L66-194H-64z"/><glyph unicode="^" glyph-name="asciicircum" horiz-adv-x="562" d="M419 145l-82 387L99 145H76l253 410h22l89-410h-21z"/><glyph unicode="_" glyph-name="underscore" horiz-adv-x="500" d="M-51 0h500l-4-19H-55l4 19z"/><glyph unicode="`" glyph-name="grave" horiz-adv-x="600" d="M256 717h40l118-110h-30L256 717z"/><glyph unicode="a" glyph-name="a" horiz-adv-x="671" d="M608 517L505 0h-20l27 135Q475 70 412 34T269-3Q168-3 109 53T49 207q0 89 37 160t104 112 151 41q92 0 147-44t66-127l34 168h20zM348 16l61 38 97 105 35 150q0 91-53 141t-150 51q-76 0-137-38t-97-105-35-150q0-91 53-141t150-51q76 0 137 38z"/><glyph unicode="b" glyph-name="b" horiz-adv-x="671" d="M503 520l59-56 60-154q0-89-37-160T481 38 330-3q-92 0-147 44t-66 127L83 0H63l148 742h20l-72-360q37 65 100 101t143 37q101 0 160-56zM409 16l61 38 97 105 35 150q0 91-53 141t-150 51q-76 0-137-38t-97-105-35-150q0-91 53-141t150-51q76 0 137 38z"/><glyph unicode="c" glyph-name="c" horiz-adv-x="545" d="M169-3l-60 56-60 154q0 89 37 160t105 112 151 41q65 0 112-22t73-65l-15-12q-52 80-171 80-78 0-140-38t-97-105-35-150q0-92 54-142t154-50q55 0 103 20t80 58l12-14q-32-39-84-61T274-3Q169-3 109 53z"/><glyph unicode="d" glyph-name="d" horiz-adv-x="671" d="M653 742L505 0h-20l27 135Q475 70 412 34T269-3Q168-3 109 53T49 207q0 89 37 160t104 112 151 41q92 0 147-44t66-127l79 393h20zM348 16l61 38 97 105 35 150q0 91-53 141t-150 51q-76 0-137-38t-97-105-35-150q0-91 53-141t150-51q76 0 137 38z"/><glyph unicode="e" glyph-name="e" horiz-adv-x="589" d="M72 259q-3-24-3-49 0-94 54-144t156-50q58 0 107 20t81 57l12-13q-32-38-85-60T278-3Q170-3 110 52T50 210q0 87 36 158t99 111 141 41q98 0 154-56t57-154q0-26-5-51H72zm160 242l-68-61-89-162h441q2 13 2 38 0 88-52 136t-140 49q-94 0-162-61z"/><glyph unicode="f" glyph-name="f" horiz-adv-x="311" d="M371 745l25-9 41-28-14-13q-29 31-82 31-54 0-85-28t-43-89l-18-92h174l-3-19H191L91 0H71l100 498H71l3 19h100l20 98q13 64 50 97t98 33q29 0 54-9z"/><glyph unicode="g" glyph-name="g" horiz-adv-x="677" d="M615 517L521 46q-25-128-93-185t-191-58q-70 0-126 22t-90 64l18 14q31-40 82-60t117-21q112 0 176 53t87 168l23 115Q486 92 421 55T274 17q-103 0-163 54T51 219q0 85 38 154t105 108 151 39q94 0 150-45t67-126l33 168h20zM353 36l62 36 98 101 35 144q0 88-54 136t-151 48q-77 0-139-36t-98-101-35-144q0-88 54-136t151-48q77 0 139 36z"/><glyph unicode="h" glyph-name="h" horiz-adv-x="668" d="M482 520l46-43 46-117q0-26-6-55L507 0h-20l61 305q6 29 6 53 0 68-41 105t-122 38q-99 0-164-55t-87-159L83 0H63l148 742h20l-70-351q73 129 232 129 89 0 135-43z"/><glyph unicode="i" glyph-name="i" horiz-adv-x="250" d="M166 517h20L83 0H63l103 517zm32 143l-7 7-7 17q0 11 8 19t20 9q10 0 17-7t7-17q0-11-8-19t-20-9q-10 0-17 7z"/><glyph unicode="j" glyph-name="j" horiz-adv-x="255" d="M-100-197l-26 9-43 27 15 15q34-32 86-32 50 0 80 27t43 88l116 580h20L74-69Q49-197-70-197q-30 0-56 9zm303 857l-7 7-7 17q0 11 8 19t20 9q10 0 17-7t7-17q0-11-8-19t-20-9q-10 0-17 7z"/><glyph unicode="k" glyph-name="k" horiz-adv-x="557" d="M312 311L500 0h-24L296 298 115 159 83 0H63l148 742h20L120 187l428 330h32L312 311z"/><glyph unicode="l" glyph-name="l" horiz-adv-x="250" d="M211 742h20L83 0H63l148 742z"/><glyph unicode="m" glyph-name="m" horiz-adv-x="1068" d="M885 520l44-42 45-117q0-26-6-56L907 0h-20l61 305q6 30 6 55 0 67-40 104t-117 37q-93 0-157-51t-84-146L495 0h-20l61 305q6 30 6 55 0 67-40 104t-117 37q-95 0-159-55t-86-159L83 0H63l103 517h20l-25-126q74 129 226 129 81 0 125-37t49-104q37 70 98 105t139 36q87 0 131-42z"/><glyph unicode="n" glyph-name="n" horiz-adv-x="668" d="M482 520l46-43 46-117q0-26-6-55L507 0h-20l61 305q6 29 6 53 0 68-41 105t-122 38q-99 0-164-55t-87-159L83 0H63l103 517h20l-25-126q73 129 232 129 89 0 135-43z"/><glyph unicode="o" glyph-name="o" horiz-adv-x="610" d="M168-3l-59 56-60 154q0 89 37 160t104 112 151 41q101 0 160-56t60-154q0-89-37-160T420 38 269-3Q168-3 109 53zm180 19l61 38 97 105 35 150q0 91-53 141t-150 51q-76 0-137-38t-97-105-35-150q0-91 53-141t150-51q76 0 137 38z"/><glyph unicode="p" glyph-name="p" horiz-adv-x="671" d="M503 520l59-56 60-154q0-89-37-160T481 38 330-3q-92 0-147 44t-66 127L44-194H24l142 711h20l-27-135q37 65 100 101t143 37q101 0 160-56zM409 16l61 38 97 105 35 150q0 91-53 141t-150 51q-76 0-137-38t-97-105-35-150q0-91 53-141t150-51q76 0 137 38z"/><glyph unicode="q" glyph-name="q" horiz-adv-x="671" d="M608 517L466-194h-20l66 328Q475 70 412 34T269-3Q168-3 109 53T49 207q0 89 37 160t104 112 151 41q92 0 147-44t66-127l34 168h20zM348 16l61 38 97 105 35 150q0 91-53 141t-150 51q-76 0-137-38t-97-105-35-150q0-91 53-141t150-51q76 0 137 38z"/><glyph unicode="r" glyph-name="r" horiz-adv-x="383" d="M230 520h160l-4-20h-9q-95 0-156-58t-84-172L83 0H63l103 517h20l-27-133q71 136 231 136z"/><glyph unicode="s" glyph-name="s" horiz-adv-x="463" d="M131-3L78 16-3 66l15 16q29-31 77-48t101-18q89 0 140 34t51 94q0 34-19 54t-48 29-79 21q-52 11-84 22t-55 35-22 66q0 67 56 108t148 41q48 0 93-14t71-39l-14-15q-27 24-67 36t-84 13q-83 0-133-35t-50-94q0-35 20-55t49-30 78-20q53-11 84-22t54-35 22-65q0-69-57-108T189-3Q131-3 78 16z"/><glyph unicode="t" glyph-name="t" horiz-adv-x="388" d="M119 139q-5-27-5-43 0-80 88-80 51 0 91 32l11-14q-20-18-48-27T200-3q-52 0-79 25T94 95q0 20 4 39l73 364H71l3 19h100l23 113h20l-23-113h175l-3-19H191l-72-359z"/><glyph unicode="u" glyph-name="u" horiz-adv-x="664" d="M601 517L498 0h-20l25 126Q430-3 273-3q-88 0-133 43T94 157q0 27 6 55l61 305h20l-61-305q-6-28-6-54 0-68 41-105t120-37q98 0 163 55t86 159l57 287h20z"/><glyph unicode="v" glyph-name="v" horiz-adv-x="508" d="M554 517L213 0h-20L58 517h21L207 23l323 494h24z"/><glyph unicode="w" glyph-name="w" horiz-adv-x="835" d="M880 517L586 0h-18L464 488 184 0h-18L59 517h19L178 23l282 494h17L581 24l277 493h22z"/><glyph unicode="x" glyph-name="x" horiz-adv-x="498" d="M261 265L418 0h-24L248 251 3 0h-27l262 267L91 517h23l138-235 228 235h26L261 265z"/><glyph unicode="y" glyph-name="y" horiz-adv-x="508" d="M554 517L155-90q-40-60-75-83t-83-24q-34 0-63 12t-46 34l16 15q33-42 96-42 38 0 70 21t67 76l55 84L58 517h21L207 23l323 494h24z"/><glyph unicode="z" glyph-name="z" horiz-adv-x="491" d="M486 502L29 19h366l-4-19H-6l3 15 457 483H99l3 19h387l-3-15z"/><glyph unicode="{" glyph-name="braceleft" horiz-adv-x="300" d="M371 742l-4-19h-32q-39 0-62-19t-30-54l-63-314q-5-28-15-42t-29-21q21-10 21-40 0-13-2-21L96-82q-3-17-3-31 0-62 63-62h32l-4-19h-25q-40 0-63 19t-24 60q0 9 4 33l59 294q2 14 2 19 0 34-36 34H66l4 19h35q25 0 37 12t18 40l63 314q9 46 39 69t84 23h25z"/><glyph unicode="|" glyph-name="bar" horiz-adv-x="286" d="M230 742h20L63-194H43l187 936z"/><glyph unicode="}" glyph-name="braceright" horiz-adv-x="300" d="M240 283l-4-19h-35q-25 0-37-12t-18-40L83-102q-9-46-39-69t-84-23h-25l4 19h32q39 0 62 19t30 54l63 314q6 30 16 44t28 19q-21 11-21 40 0 13 2 21l59 294q3 17 3 31 0 62-63 62h-32l4 19h25q40 0 63-19t24-60q0-9-4-33l-59-294q-2-14-2-19 0-34 36-34h35z"/><glyph unicode="~" glyph-name="asciitilde" horiz-adv-x="560" d="M357 286l-21 15-47 44q-22 25-40 38t-44 13q-41 0-70-29t-41-78H75q14 59 48 92t83 33q33 0 54-15t47-44q22-25 40-38t44-13q41 0 70 29t41 78h19q-14-59-48-92t-83-33q-33 0-54 15z"/><glyph glyph-name="uni00A0" horiz-adv-x="250"/><glyph unicode="¡" glyph-name="exclamdown" horiz-adv-x="242" d="M158 468l-8 8-8 18q0 11 8 18t18 8q11 0 18-7t8-19q0-10-7-18t-19-8q-10 0-18 8zm-30-139h14L49-154H27l101 483z"/><glyph unicode="¢" glyph-name="cent" horiz-adv-x="545" d="M420 516l42-22 65-61-15-12q-48 74-152 79L263 16h14q55 0 103 20t80 58l12-14q-32-39-84-61T274-3h-15l-23-117h-19L241-1q-90 9-141 64T49 207q0 89 37 160t105 112 151 41h3l23 117h19l-23-118q56-3 98-25zM69 124l45-49 130-58 97 484q-78 0-140-38t-97-105-35-150q0-84 45-133z"/><glyph unicode="£" glyph-name="sterling" horiz-adv-x="618" d="M255 684l-41-205-24-120h299l-4-18H186L122 19h420l-4-19H-22l4 19h120l64 322H46l4 18h120l24 123q22 110 95 165t189 56q62 0 113-15t83-46l-15-16q-61 58-181 58-223 0-264-205z"/><glyph unicode="¤" glyph-name="currency" horiz-adv-x="700" d="M644 263l-21-49-59-85L672 20 658 6 549 115q-38-33-86-51T361 46q-53 0-100 18t-87 52L64 6 50 20l109 110q-37 37-57 85T81 316q0 54 20 102t58 87L50 615l14 14 110-110q39 33 86 51t101 19q53 0 101-18t87-51l109 109 14-14-108-109q38-38 59-87t21-103q0-53-21-102zm-543-14l35-57 95-92 130-34q71 0 131 34t96 91 36 125q0 68-35 126t-96 93-132 34q-70 0-130-34t-95-92-35-127q0-67 35-124z"/><glyph unicode="¥" glyph-name="yen" horiz-adv-x="670" d="M370 313h226l-4-18H353l-1-1-24-119h240l-4-18H325L293 0h-20l32 157H64l4 18h240l24 120H92l4 18h229L98 700h22l226-387 378 387h24L370 313z"/><glyph unicode="¦" glyph-name="brokenbar" horiz-adv-x="286" d="M230 742h20l-70-350h-20l70 350zM113 156h20L63-194H43l70 350z"/><glyph unicode="§" glyph-name="section" horiz-adv-x="471" d="M281 684l-43-18-67-49-24-70q0-36 18-57t47-33 74-24q50-13 80-26t51-38 21-69q0-55-35-94t-97-54q58-32 58-97 0-46-26-82t-74-56-113-20q-57 0-102 18t-75 51l15 16q63-66 163-66 88 0 140 38t52 100q0 35-19 56t-46 33-74 26q-50 14-80 27t-51 38-21 67q0 52 35 91t98 56q-59 32-59 98 0 44 26 80t75 56 111 21q52 0 99-14t73-39l-14-15q-27 24-69 36t-90 13q-57 0-100-18zm137-349l-19 22-46 34-75 24q-10 3-31 9t-36 12q-64-11-101-47t-37-87q0-35 19-56t47-34 74-25q48-14 69-23 64 11 100 47t36 88q0 36-19 58z"/><glyph unicode="¨" glyph-name="dieresis" horiz-adv-x="600" d="M288 641l-7 7-8 17q0 11 8 19t19 9q10 0 17-7t8-17q0-11-8-19t-19-9q-10 0-17 7zm164 0l-7 7-8 17q0 11 8 19t19 9q10 0 17-7t8-17q0-11-8-19t-19-9q-10 0-17 7z"/><glyph unicode="©" glyph-name="copyright" horiz-adv-x="824" d="M331-3l-80 47-127 128-47 178q0 97 46 178t128 128 180 47q99 0 179-46t127-126 46-179q0-98-47-179T608 44 429-3q-98 0-178 47zm191 19l76 44 121 122 45 170q0 93-43 169T601 640t-170 44q-93 0-170-44T140 519 96 350q0-92 44-168T260 61t169-45q93 0 169 44zM379 139l-47 27-73 75-27 109q0 61 26 109t74 75 105 27q46 0 85-17t66-51l-15-15q-24 32-59 48t-78 16q-53 0-94-24t-66-68-24-100q0-56 24-99t65-68 95-25q42 0 77 16t60 48l15-15q-27-33-66-50t-85-18q-58 0-105 27z"/><glyph unicode="ª" glyph-name="ordfeminine" horiz-adv-x="394" d="M332 744l28-22 29-65q0-13-3-28l-39-195h-20l12 59q-22-29-56-45t-78-16q-50 0-77 19t-28 55q0 45 34 70t94 26h132l6 28q3 15 3 27 0 69-92 69-33 0-66-10t-57-31l-10 15q25 20 61 32t74 12q53 0 81-22zm-37-296l49 74 13 65H225q-49 0-77-21t-29-58q0-29 22-44t66-16q88 0 137 74z"/><glyph unicode="«" glyph-name="guillemotleft" horiz-adv-x="423" d="M81 258L190 74h-22L58 259l184 185h24L81 258zm150 0L340 74h-22L208 259l184 185h24L231 258z"/><glyph unicode="¬" glyph-name="logicalnot" horiz-adv-x="560" d="M466 159h-20l36 181H91l4 19h411l-40-200z"/><glyph unicode="­" glyph-name="uni00AD" horiz-adv-x="380" d="M68 274h250l-4-19H64l4 19z"/><glyph unicode="®" glyph-name="registered" horiz-adv-x="824" d="M530 703l80-46 127-126 46-179q0-98-47-179T608 44 429-3q-98 0-178 47T124 172 77 350q0 97 46 178t128 128 180 47q99 0 179-46zm-8-687l76 44 121 122 45 170q0 93-43 169T601 640t-170 44q-93 0-170-44T140 519 96 350q0-92 44-168T260 61t169-45q93 0 169 44zm82 361l-26-33-75-46 101-156h-24l-98 152q-20-2-31-2H321V142h-20v416h150q70 0 111-36t42-97q0-48-26-81zm-91-66l35 30 36 84q0 54-35 84t-100 30H320V311h129q64 0 99 30z"/><glyph unicode="¯" glyph-name="overscore" horiz-adv-x="600" d="M246 672h272l-4-20H242l4 20z"/><glyph unicode="°" glyph-name="degree" horiz-adv-x="420" d="M228 403l-34 20-55 54-20 76q0 41 20 75t54 55 76 20q41 0 75-20t55-54 20-76q0-41-20-75t-54-55-76-20q-41 0-75 20zm77 18l30 17 47 48 18 67q0 36-17 66t-48 48-66 18q-36 0-66-17t-47-48-18-67q0-36 17-66t48-48 66-18q36 0 66 17z"/><glyph unicode="±" glyph-name="plusminus" horiz-adv-x="560" d="M506 359l-4-19H306l-38-190h-20l38 190H91l4 19h195l38 191h20l-38-191h196zM27 19h410l-4-19H23l4 19z"/><glyph unicode="²" glyph-name="uni00B2" horiz-adv-x="430" d="M103 345h282l-4-18H65l3 14 231 170q61 46 82 75t21 61q0 38-30 58t-87 21q-93 0-149-50l-11 14q29 27 70 40t91 14q65 0 100-26t35-71q0-36-23-68t-85-79L103 345z"/><glyph unicode="³" glyph-name="uni00B3" horiz-adv-x="430" d="M437 728L256 558h7q65 0 100-27t36-75q0-62-47-96t-130-35q-53 0-95 16t-63 42l14 13q21-24 58-38t87-15q74 0 115 29t42 84q0 40-29 62t-88 23h-37l3 15 179 168H137l4 18h299l-3-14z"/><glyph unicode="´" glyph-name="acute" horiz-adv-x="600" d="M475 717h42L355 607h-32l152 110z"/><glyph unicode="µ" glyph-name="uni00B5" horiz-adv-x="670" d="M607 517L504 0h-20l25 126Q436-3 279-3q-69 0-113 28t-60 84L45-194H25l142 711h20l-61-305q-6-28-6-54 0-68 41-105t120-37q98 0 163 55t86 159l57 287h20z"/><glyph unicode="¶" glyph-name="paragraph" horiz-adv-x="600" d="M257 419q-76 0-123 36T87 558q0 89 64 136t170 48h242L395-100h-20l164 823H337L173-100h-20l104 519z"/><glyph unicode="·" glyph-name="middot" horiz-adv-x="222" d="M102 238l-8 8-8 18q0 11 8 18t18 8q11 0 18-7t8-19q0-10-7-18t-19-8q-10 0-18 8z"/><glyph unicode="¸" glyph-name="cedilla" horiz-adv-x="600" d="M149-213l-28 27 14 15q25-23 65-23 35 0 56 19t21 51q0 23-16 36t-46 14h-14l38 79h19l-29-61q32-3 50-21t19-47q0-38-28-63t-71-26q-50 0-78 27z"/><glyph unicode="¹" glyph-name="uni00B9" horiz-adv-x="430" d="M379 345l-4-18H103l4 18h133l75 379H189l4 18h145l-79-397h120z"/><glyph unicode="º" glyph-name="ordmasculine" horiz-adv-x="407" d="M182 432l-39 36-39 96q0 50 24 91t67 65 97 24q64 0 103-36t39-96q0-50-24-91t-67-65-96-24q-65 0-104 36zm114 18l38 22 59 59 22 81q0 51-34 82t-91 32q-48 0-86-22t-59-59-22-81q0-52 35-83t91-31q47 0 85 22z"/><glyph unicode="»" glyph-name="guillemotright" horiz-adv-x="423" d="M215 259L31 74H7l185 186L83 444h22l110-185zm150 0L181 74h-24l185 186-109 184h22l110-185z"/><glyph unicode="¼" glyph-name="onequarter" horiz-adv-x="1020" d="M371 303l-4-18H95l4 18h133l75 379H181l4 18h145l-79-397h120zm452 397h25L233 0h-25l615 700zm133-580H855L831 0h-19l24 120H598l3 14 270 281h25L629 138h211l21 105h19l-21-105h101l-4-18z"/><glyph unicode="½" glyph-name="onehalf" horiz-adv-x="1020" d="M371 303l-4-18H95l4 18h133l75 379H181l4 18h145l-79-397h120zm452 397h25L233 0h-25l615 700zM628 18h282l-4-18H590l3 14 231 170q61 46 82 75t21 61q0 38-30 58t-87 21q-93 0-149-50l-11 14q29 27 70 40t91 14q65 0 100-26t35-71q0-36-23-68t-85-79L628 18z"/><glyph unicode="¾" glyph-name="threequarters" horiz-adv-x="1020" d="M429 686L248 516h7q65 0 100-27t36-75q0-62-47-96t-130-35q-53 0-95 16t-63 42l14 13q21-24 58-38t87-15q74 0 115 29t42 84q0 40-29 62t-88 23h-37l3 15 179 168H129l4 18h299l-3-14zm394 14h25L233 0h-25l615 700zm133-580H855L831 0h-19l24 120H598l3 14 270 281h25L629 138h211l21 105h19l-21-105h101l-4-18z"/><glyph unicode="¿" glyph-name="questiondown" horiz-adv-x="554" d="M331 468l-8 8-8 18q0 11 8 18t18 8q11 0 18-7t8-19q0-10-7-18t-19-8q-10 0-18 8zM136-157l-49 37L38-12q0 46 18 80t45 58 71 54q57 40 87 71t39 78h20q-7-39-26-68t-44-49-65-47q-43-29-67-50T74 62 57-12q0-60 44-93t125-33q76 0 132 21t99 64l13-15q-91-89-244-89-90 0-139 37z"/><glyph unicode="À" glyph-name="Agrave" horiz-adv-x="688" d="M550 211H121L-19 0h-24l465 700h20L627 0h-21l-56 211zm-5 19L429 674 134 230h411zM330 867h40l118-110h-30L330 867z"/><glyph unicode="Á" glyph-name="Aacute" horiz-adv-x="688" d="M550 211H121L-19 0h-24l465 700h20L627 0h-21l-56 211zm-5 19L429 674 134 230h411zm4 637h42L429 757h-32l152 110z"/><glyph unicode="Â" glyph-name="Acircumflex" horiz-adv-x="688" d="M550 211H121L-19 0h-24l465 700h20L627 0h-21l-56 211zm-5 19L429 674 134 230h411zm11 527l-102 93-120-93h-29l134 110h32l110-110h-25z"/><glyph unicode="Ã" glyph-name="Atilde" horiz-adv-x="688" d="M550 211H121L-19 0h-24l465 700h20L627 0h-21l-56 211zm-5 19L429 674 134 230h411zm-49 539l-15 9-34 28q-16 16-28 24t-28 8q-23 0-39-18t-21-49h-19q5 39 27 62t53 24q21 0 36-9t33-28q17-16 29-24t27-8q23 0 39 18t22 47h19q-6-38-27-61t-53-23q-21 0-36 9z"/><glyph unicode="Ä" glyph-name="Adieresis" horiz-adv-x="688" d="M550 211H121L-19 0h-24l465 700h20L627 0h-21l-56 211zm-5 19L429 674 134 230h411zM362 791l-7 7-8 17q0 11 8 19t19 9q10 0 17-7t8-17q0-11-8-19t-19-9q-10 0-17 7zm164 0l-7 7-8 17q0 11 8 19t19 9q10 0 17-7t8-17q0-11-8-19t-19-9q-10 0-17 7z"/><glyph unicode="Å" glyph-name="Aring" horiz-adv-x="688" d="M550 211H121L-19 0h-24l465 700h20L627 0h-21l-56 211zm-5 19L429 674 134 230h411zM427 780l-26 26-26 64q0 38 26 65t66 28q39 0 66-27t27-66q0-37-26-63t-67-27q-40 0-66 26zm72 19l20 20 21 51q0 30-21 52t-52 22q-31 0-51-21t-21-53q0-30 20-50t52-21q32 0 52 20z"/><glyph unicode="Æ" glyph-name="AE" horiz-adv-x="1005" d="M574 681l-63-316h386l-4-19H507L442 19h446l-4-19H418l42 211H158L-18 0h-25l583 700h469l-4-19H574zM464 230l90 451h-4L174 230h290z"/><glyph unicode="Ç" glyph-name="Ccedilla" horiz-adv-x="711" d="M286-3l-71 35-107 99-37 149q0 113 51 210t147 155 223 58q78 0 139-23t96-65l-14-13q-73 82-223 82-119 0-209-54T141 483 91 280q0-121 76-192t221-72q152 0 244 86l12-16q-44-41-112-65T386-3Q286-3 215 32zm-19-210l-28 27 14 15q25-23 65-23 35 0 56 19t21 51q0 23-16 36t-46 14h-14l38 79h19l-29-61q32-3 50-21t19-47q0-38-28-63t-71-26q-50 0-78 27z"/><glyph unicode="È" glyph-name="Egrave" horiz-adv-x="668" d="M237 681l-63-316h386l-4-19H170L105 19h446l-4-19H81l140 700h451l-4-19H237zm108 186h40l118-110h-30L345 867z"/><glyph unicode="É" glyph-name="Eacute" horiz-adv-x="668" d="M237 681l-63-316h386l-4-19H170L105 19h446l-4-19H81l140 700h451l-4-19H237zm327 186h42L444 757h-32l152 110z"/><glyph unicode="Ê" glyph-name="Ecircumflex" horiz-adv-x="668" d="M237 681l-63-316h386l-4-19H170L105 19h446l-4-19H81l140 700h451l-4-19H237zm334 76l-102 93-120-93h-29l134 110h32l110-110h-25z"/><glyph unicode="Ë" glyph-name="Edieresis" horiz-adv-x="668" d="M237 681l-63-316h386l-4-19H170L105 19h446l-4-19H81l140 700h451l-4-19H237zm140 110l-7 7-8 17q0 11 8 19t19 9q10 0 17-7t8-17q0-11-8-19t-19-9q-10 0-17 7zm164 0l-7 7-8 17q0 11 8 19t19 9q10 0 17-7t8-17q0-11-8-19t-19-9q-10 0-17 7z"/><glyph unicode="Ì" glyph-name="Igrave" horiz-adv-x="286" d="M221 700h20L101 0H81l140 700zm-92 167h40l118-110h-30L129 867z"/><glyph unicode="Í" glyph-name="Iacute" horiz-adv-x="286" d="M221 700h20L101 0H81l140 700zm127 167h42L228 757h-32l152 110z"/><glyph unicode="Î" glyph-name="Icircumflex" horiz-adv-x="286" d="M221 700h20L101 0H81l140 700zm134 57l-102 93-120-93h-29l134 110h32l110-110h-25z"/><glyph unicode="Ï" glyph-name="Idieresis" horiz-adv-x="286" d="M221 700h20L101 0H81l140 700zm-60 91l-7 7-8 17q0 11 8 19t19 9q10 0 17-7t8-17q0-11-8-19t-19-9q-10 0-17 7zm164 0l-7 7-8 17q0 11 8 19t19 9q10 0 17-7t8-17q0-11-8-19t-19-9q-10 0-17 7z"/><glyph unicode="Ð" glyph-name="Eth" horiz-adv-x="826" d="M221 700h251q103 0 175-35t109-98 37-147q0-121-53-216T587 54 357 0H81l140 700zM359 19q124 0 218 51t145 142 51 208q0 121-77 191t-226 70H237L105 19h254zM41 365h360l-4-19H37l4 19z"/><glyph unicode="Ñ" glyph-name="Ntilde" horiz-adv-x="816" d="M771 700L631 0h-17L234 667 101 0H81l140 700h17L618 33l133 667h20zm-211 69l-15 9-34 28q-16 16-28 24t-28 8q-23 0-39-18t-21-49h-19q5 39 27 62t53 24q21 0 36-9t33-28q17-16 29-24t27-8q23 0 39 18t22 47h19q-6-38-27-61t-53-23q-21 0-36 9z"/><glyph unicode="Ò" glyph-name="Ograve" horiz-adv-x="836" d="M286-3l-71 35-107 99-37 149q0 113 51 210t145 155 220 58q100 0 171-35t107-99 37-149q0-113-51-210T606 55 386-3Q286-3 215 32zm218 19l90 54 139 147 49 203q0 121-76 192t-221 72q-116 0-206-54T140 483 91 280q0-121 76-192t221-72q116 0 206 54zM404 867h40l118-110h-30L404 867z"/><glyph unicode="Ó" glyph-name="Oacute" horiz-adv-x="836" d="M286-3l-71 35-107 99-37 149q0 113 51 210t145 155 220 58q100 0 171-35t107-99 37-149q0-113-51-210T606 55 386-3Q286-3 215 32zm218 19l90 54 139 147 49 203q0 121-76 192t-221 72q-116 0-206-54T140 483 91 280q0-121 76-192t221-72q116 0 206 54zm119 851h42L503 757h-32l152 110z"/><glyph unicode="Ô" glyph-name="Ocircumflex" horiz-adv-x="836" d="M286-3l-71 35-107 99-37 149q0 113 51 210t145 155 220 58q100 0 171-35t107-99 37-149q0-113-51-210T606 55 386-3Q286-3 215 32zm218 19l90 54 139 147 49 203q0 121-76 192t-221 72q-116 0-206-54T140 483 91 280q0-121 76-192t221-72q116 0 206 54zm126 741l-102 93-120-93h-29l134 110h32l110-110h-25z"/><glyph unicode="Õ" glyph-name="Otilde" horiz-adv-x="836" d="M286-3l-71 35-107 99-37 149q0 113 51 210t145 155 220 58q100 0 171-35t107-99 37-149q0-113-51-210T606 55 386-3Q286-3 215 32zm218 19l90 54 139 147 49 203q0 121-76 192t-221 72q-116 0-206-54T140 483 91 280q0-121 76-192t221-72q116 0 206 54zm66 753l-15 9-34 28q-16 16-28 24t-28 8q-23 0-39-18t-21-49h-19q5 39 27 62t53 24q21 0 36-9t33-28q17-16 29-24t27-8q23 0 39 18t22 47h19q-6-38-27-61t-53-23q-21 0-36 9z"/><glyph unicode="Ö" glyph-name="Odieresis" horiz-adv-x="836" d="M286-3l-71 35-107 99-37 149q0 113 51 210t145 155 220 58q100 0 171-35t107-99 37-149q0-113-51-210T606 55 386-3Q286-3 215 32zm218 19l90 54 139 147 49 203q0 121-76 192t-221 72q-116 0-206-54T140 483 91 280q0-121 76-192t221-72q116 0 206 54zm-68 775l-7 7-8 17q0 11 8 19t19 9q10 0 17-7t8-17q0-11-8-19t-19-9q-10 0-17 7zm164 0l-7 7-8 17q0 11 8 19t19 9q10 0 17-7t8-17q0-11-8-19t-19-9q-10 0-17 7z"/><glyph unicode="×" glyph-name="multiply" horiz-adv-x="560" d="M311 349l120-138-14-13-120 139-151-139-12 14 151 139-120 138 14 13 120-139 151 139 12-14-151-139z"/><glyph unicode="Ø" glyph-name="Oslash" horiz-adv-x="836" d="M286-3l-71 35-107 99-37 149q0 113 51 210t145 155 220 58q100 0 171-35t107-99 37-149q0-113-51-210T606 55 386-3Q286-3 215 32zm218 19l90 54 139 147 49 203q0 121-76 192t-221 72q-116 0-206-54T140 483 91 280q0-121 76-192t221-72q116 0 206 54zm309 754h25L57-70H32l781 840z"/><glyph unicode="Ù" glyph-name="Ugrave" horiz-adv-x="794" d="M248-3l-61 56-61 160q0 41 8 80l81 407h20l-81-405q-9-43-9-81 0-96 55-147t160-51q120 0 193 68t101 210l81 406h20l-81-407Q615-3 360-3 248-3 187 53zm135 870h40l118-110h-30L383 867z"/><glyph unicode="Ú" glyph-name="Uacute" horiz-adv-x="794" d="M248-3l-61 56-61 160q0 41 8 80l81 407h20l-81-405q-9-43-9-81 0-96 55-147t160-51q120 0 193 68t101 210l81 406h20l-81-407Q615-3 360-3 248-3 187 53zm354 870h42L482 757h-32l152 110z"/><glyph unicode="Û" glyph-name="Ucircumflex" horiz-adv-x="794" d="M248-3l-61 56-61 160q0 41 8 80l81 407h20l-81-405q-9-43-9-81 0-96 55-147t160-51q120 0 193 68t101 210l81 406h20l-81-407Q615-3 360-3 248-3 187 53zm361 760l-102 93-120-93h-29l134 110h32l110-110h-25z"/><glyph unicode="Ü" glyph-name="Udieresis" horiz-adv-x="794" d="M248-3l-61 56-61 160q0 41 8 80l81 407h20l-81-405q-9-43-9-81 0-96 55-147t160-51q120 0 193 68t101 210l81 406h20l-81-407Q615-3 360-3 248-3 187 53zm167 794l-7 7-8 17q0 11 8 19t19 9q10 0 17-7t8-17q0-11-8-19t-19-9q-10 0-17 7zm164 0l-7 7-8 17q0 11 8 19t19 9q10 0 17-7t8-17q0-11-8-19t-19-9q-10 0-17 7z"/><glyph unicode="Ý" glyph-name="Yacute" horiz-adv-x="610" d="M310 235L263 0h-20l48 238L98 700h22l184-442 359 442h25L310 235zm200 632h42L390 757h-32l152 110z"/><glyph unicode="Þ" glyph-name="Thorn" horiz-adv-x="710" d="M547 599l61-48 62-138q0-133-84-203t-233-71H129L101 0H81l140 700h20l-20-101h215q111 0 172-48zm-52-441l77 65 78 190q0 80-55 123t-158 44H217l-84-422h219q143 0 220 65z"/><glyph unicode="ß" glyph-name="germandbls" horiz-adv-x="651" d="M502 378l43-39 43-106q0-71-34-124t-94-83T322-3q-26 0-57 4t-50 13l8 19q44-17 99-17 74 0 129 26t86 76 31 115q0 68-48 103t-129 35h-59l4 19q72 0 128 25t87 72 32 110q0 61-40 95t-115 34q-201 0-245-220L82 0H62l101 507q25 122 94 180t172 58q81 0 127-39t47-109q0-77-49-135t-127-76q75-8 118-47z"/><glyph unicode="à" glyph-name="agrave" horiz-adv-x="671" d="M608 517L505 0h-20l27 135Q475 70 412 34T269-3Q168-3 109 53T49 207q0 89 37 160t104 112 151 41q92 0 147-44t66-127l34 168h20zM348 16l61 38 97 105 35 150q0 91-53 141t-150 51q-76 0-137-38t-97-105-35-150q0-91 53-141t150-51q76 0 137 38zm-75 701h40l118-110h-30L273 717z"/><glyph unicode="á" glyph-name="aacute" horiz-adv-x="671" d="M608 517L505 0h-20l27 135Q475 70 412 34T269-3Q168-3 109 53T49 207q0 89 37 160t104 112 151 41q92 0 147-44t66-127l34 168h20zM348 16l61 38 97 105 35 150q0 91-53 141t-150 51q-76 0-137-38t-97-105-35-150q0-91 53-141t150-51q76 0 137 38zm144 701h42L372 607h-32l152 110z"/><glyph unicode="â" glyph-name="acircumflex" horiz-adv-x="671" d="M608 517L505 0h-20l27 135Q475 70 412 34T269-3Q168-3 109 53T49 207q0 89 37 160t104 112 151 41q92 0 147-44t66-127l34 168h20zM348 16l61 38 97 105 35 150q0 91-53 141t-150 51q-76 0-137-38t-97-105-35-150q0-91 53-141t150-51q76 0 137 38zm151 591l-102 93-120-93h-29l134 110h32l110-110h-25z"/><glyph unicode="ã" glyph-name="atilde" horiz-adv-x="671" d="M608 517L505 0h-20l27 135Q475 70 412 34T269-3Q168-3 109 53T49 207q0 89 37 160t104 112 151 41q92 0 147-44t66-127l34 168h20zM348 16l61 38 97 105 35 150q0 91-53 141t-150 51q-76 0-137-38t-97-105-35-150q0-91 53-141t150-51q76 0 137 38zm91 603l-15 9-34 28q-16 16-28 24t-28 8q-23 0-39-18t-21-49h-19q5 39 27 62t53 24q21 0 36-9t33-28q17-16 29-24t27-8q23 0 39 18t22 47h19q-6-38-27-61t-53-23q-21 0-36 9z"/><glyph unicode="ä" glyph-name="adieresis" horiz-adv-x="671" d="M608 517L505 0h-20l27 135Q475 70 412 34T269-3Q168-3 109 53T49 207q0 89 37 160t104 112 151 41q92 0 147-44t66-127l34 168h20zM348 16l61 38 97 105 35 150q0 91-53 141t-150 51q-76 0-137-38t-97-105-35-150q0-91 53-141t150-51q76 0 137 38zm-43 625l-7 7-8 17q0 11 8 19t19 9q10 0 17-7t8-17q0-11-8-19t-19-9q-10 0-17 7zm164 0l-7 7-8 17q0 11 8 19t19 9q10 0 17-7t8-17q0-11-8-19t-19-9q-10 0-17 7z"/><glyph unicode="å" glyph-name="aring" horiz-adv-x="671" d="M608 517L505 0h-20l27 135Q475 70 412 34T269-3Q168-3 109 53T49 207q0 89 37 160t104 112 151 41q92 0 147-44t66-127l34 168h20zM348 16l61 38 97 105 35 150q0 91-53 141t-150 51q-76 0-137-38t-97-105-35-150q0-91 53-141t150-51q76 0 137 38zm15 581l-26 26-26 64q0 38 26 65t66 28q39 0 66-27t27-66q0-37-26-63t-67-27q-40 0-66 26zm72 19l20 20 21 51q0 30-21 52t-52 22q-31 0-51-21t-21-53q0-30 20-50t52-21q32 0 52 20z"/><glyph unicode="æ" glyph-name="ae" horiz-adv-x="983" d="M466 261q-4-21-4-51 0-94 54-144t157-50q57 0 105 20t81 57l13-13q-34-38-86-60T671-3q-96 0-155 45t-71 130q-28-87-93-131T206-3Q128-3 84 30t-44 92q0 74 56 116t156 42h197l10 51q6 29 6 52 0 118-143 118-54 0-105-19t-89-52l-12 14q39 35 94 55t113 21q83 0 123-38t38-106q37 68 99 106t137 38q99 0 155-56t57-154q0-23-6-49H466zm192 240l-52-28-88-78-49-115h442q2 24 2 36 0 88-53 136t-141 49q-61 0-113-28zM291 16l62 49 80 137 12 59H252q-91 0-141-36T60 123q0-52 38-79t110-28q83 0 145 49z"/><glyph unicode="ç" glyph-name="ccedilla" horiz-adv-x="545" d="M169-3l-60 56-60 154q0 89 37 160t105 112 151 41q65 0 112-22t73-65l-15-12q-52 80-171 80-78 0-140-38t-97-105-35-150q0-92 54-142t154-50q55 0 103 20t80 58l12-14q-32-39-84-61T274-3Q169-3 109 53zm16-213l-28 27 14 15q25-23 65-23 35 0 56 19t21 51q0 23-16 36t-46 14h-14l38 79h19l-29-61q32-3 50-21t19-47q0-38-28-63t-71-26q-50 0-78 27z"/><glyph unicode="è" glyph-name="egrave" horiz-adv-x="589" d="M72 259q-3-24-3-49 0-94 54-144t156-50q58 0 107 20t81 57l12-13q-32-38-85-60T278-3Q170-3 110 52T50 210q0 87 36 158t99 111 141 41q98 0 154-56t57-154q0-26-5-51H72zm160 242l-68-61-89-162h441q2 13 2 38 0 88-52 136t-140 49q-94 0-162-61zm12 216h40l118-110h-30L244 717z"/><glyph unicode="é" glyph-name="eacute" horiz-adv-x="589" d="M72 259q-3-24-3-49 0-94 54-144t156-50q58 0 107 20t81 57l12-13q-32-38-85-60T278-3Q170-3 110 52T50 210q0 87 36 158t99 111 141 41q98 0 154-56t57-154q0-26-5-51H72zm160 242l-68-61-89-162h441q2 13 2 38 0 88-52 136t-140 49q-94 0-162-61zm231 216h42L343 607h-32l152 110z"/><glyph unicode="ê" glyph-name="ecircumflex" horiz-adv-x="589" d="M72 259q-3-24-3-49 0-94 54-144t156-50q58 0 107 20t81 57l12-13q-32-38-85-60T278-3Q170-3 110 52T50 210q0 87 36 158t99 111 141 41q98 0 154-56t57-154q0-26-5-51H72zm160 242l-68-61-89-162h441q2 13 2 38 0 88-52 136t-140 49q-94 0-162-61zm238 106l-102 93-120-93h-29l134 110h32l110-110h-25z"/><glyph unicode="ë" glyph-name="edieresis" horiz-adv-x="589" d="M72 259q-3-24-3-49 0-94 54-144t156-50q58 0 107 20t81 57l12-13q-32-38-85-60T278-3Q170-3 110 52T50 210q0 87 36 158t99 111 141 41q98 0 154-56t57-154q0-26-5-51H72zm160 242l-68-61-89-162h441q2 13 2 38 0 88-52 136t-140 49q-94 0-162-61zm44 140l-7 7-8 17q0 11 8 19t19 9q10 0 17-7t8-17q0-11-8-19t-19-9q-10 0-17 7zm164 0l-7 7-8 17q0 11 8 19t19 9q10 0 17-7t8-17q0-11-8-19t-19-9q-10 0-17 7z"/><glyph unicode="ì" glyph-name="igrave" horiz-adv-x="250" d="M166 517h20L83 0H63l103 517zM81 717h40l118-110h-30L81 717z"/><glyph unicode="í" glyph-name="iacute" horiz-adv-x="250" d="M166 517h20L83 0H63l103 517zm134 200h42L180 607h-32l152 110z"/><glyph unicode="î" glyph-name="icircumflex" horiz-adv-x="250" d="M166 517h20L83 0H63l103 517zm115 90l-76 94-96-94H81l110 110h30l86-110h-26z"/><glyph unicode="ï" glyph-name="idieresis" horiz-adv-x="250" d="M166 517h20L83 0H63l103 517zm-28 124l-6 7-7 17q0 11 8 19t19 9q10 0 16-7t7-17q0-11-8-19t-19-9q-10 0-16 7zm112 0l-6 7-7 17q0 11 8 19t19 9q10 0 16-7t7-17q0-11-8-19t-19-9q-10 0-16 7z"/><glyph unicode="ð" glyph-name="eth" horiz-adv-x="618" d="M592 582V450q0-105-39-210T435 66 248-3Q153-3 98 46T42 180q0 75 36 131t98 88 142 31q93 0 149-50t57-133q0-9-2-27 26 50 38 110t12 118q0 134-80 192L201 521l-7 18 278 114q-56 31-139 31-38 0-76-6t-67-17l-4 18q26 11 66 17t80 7q97 0 161-41l98 40 8-18-87-36q80-66 80-198zM314 16l59 31 96 84 37 115q0 76-50 120t-138 45q-75 0-133-29t-90-81-33-120q0-78 49-121t140-44q63 0 122 31z"/><glyph unicode="ñ" glyph-name="ntilde" horiz-adv-x="668" d="M482 520l46-43 46-117q0-26-6-55L507 0h-20l61 305q6 29 6 53 0 68-41 105t-122 38q-99 0-164-55t-87-159L83 0H63l103 517h20l-25-126q73 129 232 129 89 0 135-43zm-25 99l-15 9-34 28q-16 16-28 24t-28 8q-23 0-39-18t-21-49h-19q5 39 27 62t53 24q21 0 36-9t33-28q17-16 29-24t27-8q23 0 39 18t22 47h19q-6-38-27-61t-53-23q-21 0-36 9z"/><glyph unicode="ò" glyph-name="ograve" horiz-adv-x="610" d="M168-3l-59 56-60 154q0 89 37 160t104 112 151 41q101 0 160-56t60-154q0-89-37-160T420 38 269-3Q168-3 109 53zm180 19l61 38 97 105 35 150q0 91-53 141t-150 51q-76 0-137-38t-97-105-35-150q0-91 53-141t150-51q76 0 137 38zm-87 701h40l118-110h-30L261 717z"/><glyph unicode="ó" glyph-name="oacute" horiz-adv-x="610" d="M168-3l-59 56-60 154q0 89 37 160t104 112 151 41q101 0 160-56t60-154q0-89-37-160T420 38 269-3Q168-3 109 53zm180 19l61 38 97 105 35 150q0 91-53 141t-150 51q-76 0-137-38t-97-105-35-150q0-91 53-141t150-51q76 0 137 38zm132 701h42L360 607h-32l152 110z"/><glyph unicode="ô" glyph-name="ocircumflex" horiz-adv-x="610" d="M168-3l-59 56-60 154q0 89 37 160t104 112 151 41q101 0 160-56t60-154q0-89-37-160T420 38 269-3Q168-3 109 53zm180 19l61 38 97 105 35 150q0 91-53 141t-150 51q-76 0-137-38t-97-105-35-150q0-91 53-141t150-51q76 0 137 38zm139 591l-102 93-120-93h-29l134 110h32l110-110h-25z"/><glyph unicode="õ" glyph-name="otilde" horiz-adv-x="610" d="M168-3l-59 56-60 154q0 89 37 160t104 112 151 41q101 0 160-56t60-154q0-89-37-160T420 38 269-3Q168-3 109 53zm180 19l61 38 97 105 35 150q0 91-53 141t-150 51q-76 0-137-38t-97-105-35-150q0-91 53-141t150-51q76 0 137 38zm79 603l-15 9-34 28q-16 16-28 24t-28 8q-23 0-39-18t-21-49h-19q5 39 27 62t53 24q21 0 36-9t33-28q17-16 29-24t27-8q23 0 39 18t22 47h19q-6-38-27-61t-53-23q-21 0-36 9z"/><glyph unicode="ö" glyph-name="odieresis" horiz-adv-x="610" d="M168-3l-59 56-60 154q0 89 37 160t104 112 151 41q101 0 160-56t60-154q0-89-37-160T420 38 269-3Q168-3 109 53zm180 19l61 38 97 105 35 150q0 91-53 141t-150 51q-76 0-137-38t-97-105-35-150q0-91 53-141t150-51q76 0 137 38zm-55 625l-7 7-8 17q0 11 8 19t19 9q10 0 17-7t8-17q0-11-8-19t-19-9q-10 0-17 7zm164 0l-7 7-8 17q0 11 8 19t19 9q10 0 17-7t8-17q0-11-8-19t-19-9q-10 0-17 7z"/><glyph unicode="÷" glyph-name="divide" horiz-adv-x="560" d="M324 504l-8 8-8 18q0 11 8 18t18 8q11 0 18-7t8-19q0-10-7-18t-19-8q-10 0-18 8zM95 359h411l-4-19H91l4 19zm157-215l-8 8-8 18q0 11 8 18t18 8q11 0 18-7t8-19q0-10-7-18t-19-8q-10 0-18 8z"/><glyph unicode="ø" glyph-name="oslash" horiz-adv-x="610" d="M168-3l-59 56-60 154q0 89 37 160t104 112 151 41q101 0 160-56t60-154q0-89-37-160T420 38 269-3Q168-3 109 53zm180 19l61 38 97 105 35 150q0 91-53 141t-150 51q-76 0-137-38t-97-105-35-150q0-91 53-141t150-51q76 0 137 38zm231 572h25L29-69H4l575 657z"/><glyph unicode="ù" glyph-name="ugrave" horiz-adv-x="664" d="M601 517L498 0h-20l25 126Q430-3 273-3q-88 0-133 43T94 157q0 27 6 55l61 305h20l-61-305q-6-28-6-54 0-68 41-105t120-37q98 0 163 55t86 159l57 287h20zM286 717h40l118-110h-30L286 717z"/><glyph unicode="ú" glyph-name="uacute" horiz-adv-x="664" d="M601 517L498 0h-20l25 126Q430-3 273-3q-88 0-133 43T94 157q0 27 6 55l61 305h20l-61-305q-6-28-6-54 0-68 41-105t120-37q98 0 163 55t86 159l57 287h20zm-96 200h42L385 607h-32l152 110z"/><glyph unicode="û" glyph-name="ucircumflex" horiz-adv-x="664" d="M601 517L498 0h-20l25 126Q430-3 273-3q-88 0-133 43T94 157q0 27 6 55l61 305h20l-61-305q-6-28-6-54 0-68 41-105t120-37q98 0 163 55t86 159l57 287h20zm-89 90l-102 93-120-93h-29l134 110h32l110-110h-25z"/><glyph unicode="ü" glyph-name="udieresis" horiz-adv-x="664" d="M601 517L498 0h-20l25 126Q430-3 273-3q-88 0-133 43T94 157q0 27 6 55l61 305h20l-61-305q-6-28-6-54 0-68 41-105t120-37q98 0 163 55t86 159l57 287h20zM318 641l-7 7-8 17q0 11 8 19t19 9q10 0 17-7t8-17q0-11-8-19t-19-9q-10 0-17 7zm164 0l-7 7-8 17q0 11 8 19t19 9q10 0 17-7t8-17q0-11-8-19t-19-9q-10 0-17 7z"/><glyph unicode="ý" glyph-name="yacute" horiz-adv-x="508" d="M554 517L155-90q-40-60-75-83t-83-24q-34 0-63 12t-46 34l16 15q33-42 96-42 38 0 70 21t67 76l55 84L58 517h21L207 23l323 494h24zM414 717h42L294 607h-32l152 110z"/><glyph unicode="þ" glyph-name="thorn" horiz-adv-x="671" d="M503 520l59-56 60-154q0-89-37-160T481 38 330-3q-92 0-147 44t-66 127L44-194H24l187 936h20l-72-360q37 65 100 101t143 37q101 0 160-56zM409 16l61 38 97 105 35 150q0 91-53 141t-150 51q-76 0-137-38t-97-105-35-150q0-91 53-141t150-51q76 0 137 38z"/><glyph unicode="ÿ" glyph-name="ydieresis" horiz-adv-x="508" d="M554 517L155-90q-40-60-75-83t-83-24q-34 0-63 12t-46 34l16 15q33-42 96-42 38 0 70 21t67 76l55 84L58 517h21L207 23l323 494h24zM227 641l-7 7-8 17q0 11 8 19t19 9q10 0 17-7t8-17q0-11-8-19t-19-9q-10 0-17 7zm164 0l-7 7-8 17q0 11 8 19t19 9q10 0 17-7t8-17q0-11-8-19t-19-9q-10 0-17 7z"/><glyph unicode="–" glyph-name="endash" horiz-adv-x="500" d="M3 274h500l-4-19H-1l4 19z"/><glyph unicode="—" glyph-name="emdash" horiz-adv-x="1000" d="M3 274h1000l-4-19H-1l4 19z"/><glyph unicode="‘" glyph-name="quoteleft" horiz-adv-x="182" d="M169 603l6-7 6-17q0-10-7-18t-19-8q-10 0-18 8t-8 18q0 10 4 18t5 11l61 134h18l-57-138q9-1 15-8z"/><glyph unicode="’" glyph-name="quoteright" horiz-adv-x="182" d="M194 745l7-7 8-19q0-10-4-18t-5-11l-61-134h-18l57 138q-9 1-15 8t-6 17q0 11 8 18t18 8q11 0 18-7z"/><glyph unicode="‚" glyph-name="quotesinglbase" horiz-adv-x="182" d="M55 49l7-7 8-19q0-10-4-18T61-6L0-140h-18L39-2q-9 1-15 8t-6 17q0 11 8 18t18 8q11 0 18-7z"/><glyph unicode="“" glyph-name="quotedblleft" horiz-adv-x="312" d="M169 603l6-7 6-17q0-10-7-18t-19-8q-10 0-18 8t-8 18q0 10 4 18t5 11l61 134h18l-57-138q9-1 15-8zm130 0l6-7 6-17q0-10-7-18t-19-8q-10 0-18 8t-8 18q0 10 4 18t5 11l61 134h18l-57-138q9-1 15-8z"/><glyph unicode="”" glyph-name="quotedblright" horiz-adv-x="312" d="M194 745l7-7 8-19q0-10-4-18t-5-11l-61-134h-18l57 138q-9 1-15 8t-6 17q0 11 8 18t18 8q11 0 18-7zm130 0l7-7 8-19q0-10-4-18t-5-11l-61-134h-18l57 138q-9 1-15 8t-6 17q0 11 8 18t18 8q11 0 18-7z"/><glyph unicode="„" glyph-name="quotedblbase" horiz-adv-x="312" d="M55 49l7-7 8-19q0-10-4-18T61-6L0-140h-18L39-2q-9 1-15 8t-6 17q0 11 8 18t18 8q11 0 18-7zm130 0l7-7 8-19q0-10-4-18t-5-11l-61-134h-18L169-2q-9 1-15 8t-6 17q0 11 8 18t18 8q11 0 18-7z"/><glyph unicode="•" glyph-name="bullet" horiz-adv-x="258" d="M112 225l-12 12-13 30q0 19 13 32t33 14q17 0 29-12t13-30q0-19-13-32t-33-14q-17 0-29 12z"/><glyph unicode="‹" glyph-name="guilsinglleft" horiz-adv-x="273" d="M81 258L190 74h-22L58 259l184 185h24L81 258z"/><glyph unicode="›" glyph-name="guilsinglright" horiz-adv-x="273" d="M215 259L31 74H7l185 186L83 444h22l110-185z"/></font>
</defs>
</svg>
