<svg xmlns="http://www.w3.org/2000/svg"><defs><font id="Montserrat" horiz-adv-x="657"><font-face font-family="Montserrat SemiBold" panose-1="0 0 7 0 0 0 0 0 0 0" ascent="968" descent="-251" alphabetic="0"/><glyph glyph-name="space" horiz-adv-x="276"/><glyph unicode="!" glyph-name="exclam" horiz-adv-x="278" d="M151 700h149L182 232H83l68 468zM63-7L42 14 20 65q0 36 24 59t59 24q33 0 54-20t22-52q0-35-24-59T96-7Q63-7 42 14z"/><glyph unicode="&quot;" glyph-name="quotedbl" horiz-adv-x="413" d="M143 700h107l-62-277H97l46 277zm193 0h107l-62-277h-91l46 277z"/><glyph unicode="#" glyph-name="numbersign" horiz-adv-x="711" d="M577 439l-56-178h133l-18-91H491L437 0h-94l54 170H231L177 0H84l54 170H5l18 91h145l56 178H92l17 91h145l54 170h93l-54-170h166l54 170h94l-54-170h134l-18-91H577zm-94 0H317l-56-178h166l56 178z"/><glyph unicode="$" glyph-name="dollar" horiz-adv-x="629" d="M519 592l-90 8-41-207q58-17 98-36t66-53 27-87q0-97-74-157T307-9l-22-111h-81L226-8Q156-2 96 19T-1 72l55 102q37-31 88-50t106-24l40 200q-58 18-98 37t-66 55-27 92q0 64 34 113t95 78 144 34l22 111h81l-22-112q111-9 185-57l-50-103q-67 44-157 52zM226 468l22-18 63-33 37 182q-57-8-89-35t-33-67q0-29 22-47zm224-242l-22 18-64 33-35-176q57 8 89 32t32 64q0 29-22 47z"/><glyph unicode="%" glyph-name="percent" horiz-adv-x="860" d="M158 323l-39 41-40 115q0 63 24 115t68 82 104 31q67 0 106-41t40-115q0-63-23-115t-68-82-105-31q-67 0-106 41zm543 377h102L192 0H89l612 700zM266 393l24 23 37 58 12 72q0 44-19 67t-52 24q-34 0-58-23t-37-58-12-72q0-44 19-67t52-24q34 0 58 23zM551-7l-39 41-40 114q0 63 24 115t68 82 104 31q67 0 106-41t40-115q0-63-23-114t-68-82T618-7q-67 0-106 41zm108 69l24 23 37 58 12 72q0 44-19 67t-52 24q-34 0-58-23t-37-58-12-72q0-44 19-67t52-24q34 0 58 23z"/><glyph unicode="&amp;" glyph-name="ampersand" horiz-adv-x="706" d="M634 215l-54-66 67-80-83-80-67 79Q391-10 261-10q-71 0-125 21T52 70t-30 91q0 72 50 127t153 104q-48 63-48 126 0 58 29 101t79 66 112 23q79 0 127-36t49-101q0-63-44-110t-137-91l121-143q36 50 64 120l96-33q-39-99-93-165zM347 619l-27-24-28-65q0-20 9-41t33-50q76 34 104 60t28 62q0 25-19 41t-54 17q-46 0-73-24zm11-527l74 53-149 177q-72-34-104-66t-32-74q0-41 32-65t94-25q85 0 159 53z"/><glyph unicode="'" glyph-name="quotesingle" horiz-adv-x="220" d="M143 700h107l-62-277H97l46 277z"/><glyph unicode="(" glyph-name="parenleft" horiz-adv-x="347" d="M96-140L82-64 68 87q0 181 60 355t166 300h126Q309 598 249 427T188 80q0-133 45-274H118Q96-140 82-64z"/><glyph unicode=")" glyph-name="parenright" horiz-adv-x="347" d="M73-50l60 171 61 347q0 133-45 274h115q22-54 36-130t14-151q0-181-60-355T88-194H-38Q73-50 133 121z"/><glyph unicode="*" glyph-name="asterisk" horiz-adv-x="416" d="M342 548l99-61-46-68-105 71-24-132h-78l27 127-125-66-31 66 132 65-101 62 46 70 104-71 24 131h77l-27-129 127 68 31-69-130-64z"/><glyph unicode="+" glyph-name="plus" horiz-adv-x="591" d="M533 300H356l-35-175H214l35 175H71l20 100h177l35 175h107l-35-175h178l-20-100z"/><glyph unicode="," glyph-name="comma" horiz-adv-x="244" d="M122 159l22-22 22-56q0-18-6-33T137 4L45-151h-80L37 5Q21 16 12 33T2 71q0 38 25 63t62 25q33 0 55-22z"/><glyph unicode="-" glyph-name="hyphen" horiz-adv-x="385" d="M68 330h275l-21-104H48l20 104z"/><glyph unicode="." glyph-name="period" horiz-adv-x="244" d="M47-7L25 15 2 71q0 38 25 63t62 25q33 0 55-22t22-56q0-39-25-63T80-7Q47-7 25 15z"/><glyph unicode="/" glyph-name="slash" horiz-adv-x="371" d="M409 842h118L13-100h-118l514 942z"/><glyph unicode="0" glyph-name="zero" horiz-adv-x="672" d="M182-10l-65 69-66 192q0 124 45 229t126 168 188 62q114 0 179-69t65-192q0-124-45-229T483 52 296-10q-114 0-179 69zm191 113l49 53 75 133 26 157q0 74-32 112t-92 39q-66 0-116-53t-76-133-26-157q0-75 33-113t93-38q66 0 115 53z"/><glyph unicode="1" glyph-name="one" horiz-adv-x="381" d="M373 700L233 0H103l118 591H72l22 109h279z"/><glyph unicode="2" glyph-name="two" horiz-adv-x="582" d="M198 110h322L497 0H-18l17 87 330 261q64 51 88 87t25 75q0 42-30 65t-90 24q-47 0-90-19t-76-56l-88 70q44 53 116 84t156 32q72 0 125-23t81-64 28-95q0-64-35-121T416 281L198 110z"/><glyph unicode="3" glyph-name="three" horiz-adv-x="582" d="M582 613L370 408q77-14 119-60t42-118q0-69-39-123T383 21 221-10q-78 0-144 22T-30 74l65 99q32-32 83-51t111-19q81 0 126 31t45 89q0 90-135 90h-63l18 89 195 189H100l22 109h476l-16-87z"/><glyph unicode="4" glyph-name="four" horiz-adv-x="679" d="M647 159H523L491 0H364l33 159H14l17 90 429 451h144L199 269h224l29 141h121l-28-141h124l-22-110z"/><glyph unicode="5" glyph-name="five" horiz-adv-x="584" d="M278 591l-49-162h53q131 0 197-50t66-140q0-74-39-130T397 21 235-10q-79 0-144 22T-16 74l65 99q32-32 83-51t111-19q82 0 126 32t45 90q0 94-157 94H77l111 381h411l-22-109H278z"/><glyph unicode="6" glyph-name="six" horiz-adv-x="627" d="M430 432l51-24 83-69 31-109q0-72-35-126t-96-84-137-30q-81 0-143 33t-97 98-35 157q0 105 43 204t135 163 229 65q55 0 104-11t81-33l-59-99q-50 34-134 34-111 0-176-66t-83-166q64 63 176 63 62 0 113-24zM387 92l39 34 40 95q0 51-36 80t-95 29q-66 0-106-34t-41-90q0-47 36-80t100-34q63 0 102 34z"/><glyph unicode="7" glyph-name="seven" horiz-adv-x="608" d="M659 700l-17-87L251 0H108l377 590H214l-24-119H69l46 229h544z"/><glyph unicode="8" glyph-name="eight" horiz-adv-x="652" d="M556 333l21-36 21-82q0-68-37-119T456 18 300-10q-83 0-145 23T60 81 26 184q0 71 39 121t112 74q-63 45-63 122 0 64 34 111t96 72 141 26q75 0 131-22t88-62 32-95q0-61-31-106t-89-68q40-24 61-60zM318 608l-37-28-38-80q0-41 33-65t92-24q64 0 102 28t38 78q0 42-34 66t-92 25q-64 0-101-28zm61-516l44 32 44 90q0 48-39 75t-108 28q-75 0-119-33t-44-89q0-48 39-75t107-28q76 0 120 32z"/><glyph unicode="9" glyph-name="nine" horiz-adv-x="627" d="M415 710l62-33 97-98 35-157q0-105-43-204T431 55 202-10Q147-10 98 1T17 34l59 99q50-34 134-34 111 0 176 66t82 166q-63-63-174-63-63 0-115 24t-82 69-31 109q0 72 35 126t96 84 137 30q81 0 143-33zm-23-340l40 34 41 90q0 47-36 80t-101 34q-63 0-102-34t-39-95q0-51 35-80t95-29q67 0 107 34z"/><glyph unicode=":" glyph-name="colon" horiz-adv-x="244" d="M123 374l-22 22-23 56q0 38 25 63t62 25q33 0 55-22t22-56q0-39-25-63t-61-25q-33 0-55 22zM47-7L25 15 2 71q0 38 25 63t62 25q33 0 55-22t22-56q0-39-25-63T80-7Q47-7 25 15z"/><glyph unicode=";" glyph-name="semicolon" horiz-adv-x="244" d="M123 374l-22 22-23 56q0 38 25 63t62 25q33 0 55-22t22-56q0-39-25-63t-61-25q-33 0-55 22zm-1-215l22-22 22-56q0-18-6-33T137 4L45-151h-80L37 5Q21 16 12 33T2 71q0 38 25 63t62 25q33 0 55-22z"/><glyph unicode="&lt;" glyph-name="less" horiz-adv-x="590" d="M567 474L194 345l322-130-20-98L70 296l22 108 497 179-22-109z"/><glyph unicode="=" glyph-name="equal" horiz-adv-x="590" d="M116 521h461l-21-101H96l20 101zM67 279h461l-20-100H47l20 100z"/><glyph unicode="&gt;" glyph-name="greater" horiz-adv-x="590" d="M554 404l-22-108L36 117l22 109 370 129-318 130 19 98 425-179z"/><glyph unicode="?" glyph-name="question" horiz-adv-x="581" d="M222 271l19 29 43 50 60 47q48 35 71 61t24 64q0 37-29 58t-85 22q-107 0-174-78l-83 69q44 56 116 86t164 31q102 0 162-44t61-121q0-47-17-81t-41-58-66-52q-46-33-71-59t-35-63H215q7 39 26 68zM209-7l-21 21-22 51q0 36 24 59t59 24q33 0 54-20t22-52q0-35-24-59T242-7q-33 0-54 21z"/><glyph unicode="@" glyph-name="at" horiz-adv-x="1034" d="M715 709l92-45 140-129 49-192q0-92-30-172T881 43 760-6q-48 0-79 18t-43 51Q571-6 459-6q-61 0-109 26t-76 74-28 113q0 81 35 148t99 107 142 40q119 0 168-83l15 77h112l-69-342q-3-13-3-23 0-43 45-43 37 0 65 37t43 96 15 117q0 135-86 212t-252 77q-132 0-233-58T185 409t-56-225q0-91 37-160T277-83t176-38q108 0 192 39l18-79q-45-20-102-31t-114-12q-126 0-219 48T86-22 37 177q0 150 69 271t194 191 287 70q128 0 220-45zM538 91l40 25 62 68 22 97q0 59-35 91t-97 33q-49 0-87-23t-61-67-22-99q0-60 33-92t95-33q50 0 90 25z"/><glyph unicode="A" glyph-name="A" horiz-adv-x="749" d="M534 162H182L81 0H-58l455 700h129L700 0H571l-37 162zm-24 102l-71 308-193-308h264z"/><glyph unicode="B" glyph-name="B" horiz-adv-x="761" d="M652 345l25-36 25-89q0-108-84-164T392 0H41l140 700h323q109 0 168-40t60-117q0-65-34-111t-91-70q45-17 70-53zM290 598l-39-193h185q74 0 117 29t43 87q0 77-121 77H290zm193-496l44 30 45 88q0 45-31 64t-95 20H231l-40-202h210q82 0 126 30z"/><glyph unicode="C" glyph-name="C" horiz-adv-x="727" d="M291-10l-76 37L97 133 56 289q0 118 54 214t152 151 225 56q91 0 160-30t106-87l-94-79q-59 82-181 82-87 0-153-40T223 448t-36-151q0-89 57-141t162-52q121 0 199 81l76-82q-50-57-123-85T396-10q-105 0-181 37z"/><glyph unicode="D" glyph-name="D" horiz-adv-x="826" d="M181 700h283q105 0 182-35t117-101 41-153q0-123-54-216T596 51 368 0H41l140 700zm191-590q92 0 160 38t104 104 37 151q0 88-57 137t-166 50H289l-96-480h179z"/><glyph unicode="E" glyph-name="E" horiz-adv-x="670" d="M288 591l-36-182h339l-21-107H230l-38-193h396L566 0H41l140 700h511l-22-109H288z"/><glyph unicode="F" glyph-name="F" horiz-adv-x="637" d="M289 591l-43-213h339l-22-110H225L171 0H41l140 700h511l-22-109H289z"/><glyph unicode="G" glyph-name="G" horiz-adv-x="772" d="M591 358h123L657 76q-53-41-120-63T396-10q-103 0-180 37T98 132 56 289q0 118 54 214t153 151 228 56q95 0 166-29t115-86l-94-78q-34 41-81 60t-112 19q-89 0-156-39T224 449t-37-152q0-89 58-141t166-52q73 0 136 33l44 221z"/><glyph unicode="H" glyph-name="H" horiz-adv-x="810" d="M802 700L662 0H533l59 297H230L171 0H41l140 700h130l-57-287h362l57 287h129z"/><glyph unicode="I" glyph-name="I" horiz-adv-x="319" d="M181 700h130L171 0H41l140 700z"/><glyph unicode="J" glyph-name="J" horiz-adv-x="527" d="M95-10L40 17l-85 77 88 84q42-78 130-78 53 0 84 29t45 93l74 369H126l22 109h377l-94-471q-26-129-89-184T171-10Q95-10 40 17z"/><glyph unicode="K" glyph-name="K" horiz-adv-x="729" d="M434 374L683 0H538L339 295 206 179 170 0H41l140 700h129l-71-354 407 354h164L436 375l-2-1z"/><glyph unicode="L" glyph-name="L" horiz-adv-x="599" d="M181 700h130L193 110h366L537 0H41l140 700z"/><glyph unicode="M" glyph-name="M" horiz-adv-x="955" d="M947 700L807 0H684l91 459L476 80h-58L258 468 165 0H41l140 700h106l185-466 363 466h112z"/><glyph unicode="N" glyph-name="N" horiz-adv-x="810" d="M802 700L662 0H555L268 490 170 0H41l140 700h107l288-490 97 490h129z"/><glyph unicode="O" glyph-name="O" horiz-adv-x="842" d="M287-10l-75 37L96 132 56 289q0 118 53 214t152 151 224 56q104 0 179-37t116-105 40-157q0-118-53-214T615 46 391-10q-104 0-179 37zm200 114l65 40 101 109 36 150q0 88-56 140t-160 53q-85 0-150-40T222 447t-35-150q0-88 56-140t159-53q85 0 150 40z"/><glyph unicode="P" glyph-name="P" horiz-adv-x="726" d="M578 700l69-55 70-156q0-89-40-153t-116-99-178-35H212L171 0H41l140 700h270q127 0 196-55zm-95-388l51 42 52 123q0 56-38 84t-111 29H289l-55-278h154q95 0 146 42z"/><glyph unicode="Q" glyph-name="Q" horiz-adv-x="842" d="M630-54l32 14 57 39 51-80q-31-36-78-54t-102-18Q426-153 332-7 202 9 129 88T56 289q0 118 53 214t152 151 224 56q104 0 179-37t116-105 40-157q0-102-40-188T664 78 489-1q21-28 46-40t60-13q35 0 67 14zM187 209l56-52 159-53q85 0 150 40t101 109 36 150q0 88-56 140t-160 53q-85 0-150-40T222 447t-35-150q0-88 56-140z"/><glyph unicode="R" glyph-name="R" horiz-adv-x="731" d="M719 388l-54-69-151-97L639 0H501L386 205H212L172 0H41l140 700h272q127 0 196-55t70-156q0-101-54-170zm-235-76l52 42 52 123q0 56-38 84t-111 29H290l-56-278h155q95 0 147 42z"/><glyph unicode="S" glyph-name="S" horiz-adv-x="629" d="M189-10l-74 23L-1 72l55 102q44-35 104-55t124-21q77 0 122 26t46 73q0 26-18 43t-46 29-77 25q-68 20-110 38t-72 56-30 96q0 68 38 119t108 79 159 28q68 0 129-15t105-44l-51-103q-39 26-88 40t-102 14q-78 0-123-28t-46-76q0-27 19-45t46-28 79-27q66-19 108-37t71-53 30-91q0-69-38-120T432 18 270-10q-81 0-155 23z"/><glyph unicode="T" glyph-name="T" horiz-adv-x="602" d="M301 590H69l22 110h594l-23-110H430L313 0H183l118 590z"/><glyph unicode="U" glyph-name="U" horiz-adv-x="789" d="M233-10l-72 64-73 176q0 33 8 75l79 395h130l-79-393q-7-40-7-62 0-70 40-105t115-36q84 0 134 49t73 155l78 392h128l-80-401Q676 145 589 68T361-10q-128 0-200 64z"/><glyph unicode="V" glyph-name="V" horiz-adv-x="729" d="M820 700L375 0H247L82 700h134l125-538 344 538h135z"/><glyph unicode="W" glyph-name="W" horiz-adv-x="1144" d="M1204 700L833 0H694l-70 513L344 0H205l-92 700h129l69-532 287 532h121l69-537 287 537h129z"/><glyph unicode="X" glyph-name="X" horiz-adv-x="693" d="M435 354L629 0H490L350 262 112 0H-44l338 364-183 336h138l132-245 226 245h148L435 354z"/><glyph unicode="Y" glyph-name="Y" horiz-adv-x="661" d="M389 239L341 0H212l49 248L78 700h129l138-342 276 342h136L389 239z"/><glyph unicode="Z" glyph-name="Z" horiz-adv-x="663" d="M695 613L187 110h420L584 0H-14L3 87l508 503H114l23 110h576l-18-87z"/><glyph unicode="[" glyph-name="bracketleft" horiz-adv-x="351" d="M188 742h239l-20-102H293L147-92h114l-20-102H1l187 936z"/><glyph unicode="\" glyph-name="backslash" horiz-adv-x="371" d="M221-100L74 842h108l146-942H221z"/><glyph unicode="]" glyph-name="bracketright" horiz-adv-x="350" d="M-73-194l19 102H59l146 732H92l20 102h240L165-194H-73z"/><glyph unicode="^" glyph-name="asciicircum" horiz-adv-x="591" d="M407 142l-67 317-196-317H42l261 416h102l95-416h-93z"/><glyph unicode="_" glyph-name="underscore" horiz-adv-x="500" d="M-53 0h500l-16-76H-69l16 76z"/><glyph unicode="`" glyph-name="grave" horiz-adv-x="600" d="M197 744h146l109-137H344L197 744z"/><glyph unicode="a" glyph-name="a" horiz-adv-x="686" d="M657 534L551 0H432l11 55Q373-7 269-7q-66 0-119 28t-85 81-31 126q0 89 39 160t108 112 154 40q128 0 182-85l15 79h125zM354 100l41 25 66 71 24 104q0 63-37 98t-104 36q-53 0-94-25t-66-71-24-104q0-63 37-98t104-36q53 0 94 25z"/><glyph unicode="b" glyph-name="b" horiz-adv-x="686" d="M483 540l53-28 85-81 31-125q0-89-39-160T505 34 352-7q-66 0-114 23t-73 69L148 0H29l148 742h125l-51-258q68 56 166 56 66 0 119-28zm-88-440l41 25 66 71 24 104q0 63-37 98t-104 36q-53 0-94-25t-66-71-24-104q0-63 37-98t104-36q53 0 94 25z"/><glyph unicode="c" glyph-name="c" horiz-adv-x="581" d="M217-7l-59 29-92 83-32 123q0 89 41 160t113 111 166 41q81 0 139-31t91-94l-107-55q-37 74-133 74-53 0-94-25t-66-71-24-104q0-63 37-98t105-36q46 0 83 18t63 56l92-62q-37-56-102-87T296-7q-79 0-138 29z"/><glyph unicode="d" glyph-name="d" horiz-adv-x="687" d="M699 742L551 0H432l11 55Q371-7 270-7q-66 0-119 28t-85 81-31 126q0 90 39 161t107 111 154 40q63 0 109-21t73-62l57 285h125zM354 100l42 25 65 71 24 104q0 63-37 98t-104 36q-52 0-94-25t-65-71-24-104q0-63 37-98t104-36q52 0 94 25z"/><glyph unicode="e" glyph-name="e" horiz-adv-x="619" d="M588 267l-8-37H156q3-131 154-131 46 0 86 14t68 41l52-87q-41-37-98-55T297-7q-80 0-139 29t-92 82-32 124q0 89 39 160t110 112 159 40q112 0 179-62t67-172q0-39-8-76zM273 440l-44-34-62-93h306q1 60-36 93t-101 34q-63 0-107-34z"/><glyph unicode="f" glyph-name="f" horiz-adv-x="369" d="M335 648l-23-22-33-67-6-29h146l-20-100H256L170 0H45l86 430H44l20 100h87l8 38q18 86 72 133t143 48q35 0 65-8t52-24l-51-91q-27 22-66 22t-62-22z"/><glyph unicode="g" glyph-name="g" horiz-adv-x="694" d="M666 534L575 81Q545-66 464-133t-219-68Q88-201-5-128l65 94q31-27 82-43t111-17q86 0 132 38t61 116l5 26q-72-62-175-62-69 0-123 27t-85 77-31 117q0 82 39 149t108 107 156 39q63 0 113-23t76-71l17 88h120zM357 130l41 23 65 65 24 94q0 57-37 89t-103 33q-53 0-95-23t-65-65-24-94q0-56 37-89t104-33q53 0 94 23z"/><glyph unicode="h" glyph-name="h" horiz-adv-x="685" d="M516 540l52-47 53-134q0-24-7-63L555 0H430l58 293q4 20 4 41 0 97-107 97-69 0-114-38t-61-116L154 0H29l148 742h125l-52-261q69 59 176 59 90 0 142-47z"/><glyph unicode="i" glyph-name="i" horiz-adv-x="289" d="M135 534h125L154 0H29l106 534zm58 88l-21 20-21 50q0 34 23 57t62 23q33 0 54-19t21-48q0-37-23-60t-62-23q-33 0-54 20z"/><glyph unicode="j" glyph-name="j" horiz-adv-x="295" d="M-132-201l-47 31 52 93q29-21 71-21 36 0 56 20t31 66l109 546h125L156-10Q118-201-56-201q-76 0-123 31zm329 823l-21 20-21 50q0 34 23 57t62 23q33 0 54-19t21-48q0-37-23-60t-62-23q-33 0-54 20z"/><glyph unicode="k" glyph-name="k" horiz-adv-x="625" d="M394 305L582 0H437L294 231l-112-90L154 0H29l148 742h125l-88-443 293 235h170L394 305z"/><glyph unicode="l" glyph-name="l" horiz-adv-x="289" d="M177 742h125L154 0H29l148 742z"/><glyph unicode="m" glyph-name="m" horiz-adv-x="1053" d="M885 540l51-46 52-132q0-32-7-66L922 0H797l59 293q4 20 4 42 0 96-102 96-133 0-164-153L538 0H413l59 293q4 20 4 42 0 96-102 96-133 0-164-154L154 0H29l106 534h119l-11-58q68 64 175 64 58 0 101-22t65-66q82 88 211 88 90 0 141-46z"/><glyph unicode="n" glyph-name="n" horiz-adv-x="685" d="M516 540l52-47 53-133q0-24-7-64L555 0H430l58 293q4 20 4 41 0 97-107 97-69 0-114-38t-61-116L154 0H29l106 534h119l-12-59q72 65 184 65 90 0 142-47z"/><glyph unicode="o" glyph-name="o" horiz-adv-x="645" d="M215-7l-58 29-91 83-32 123q0 89 40 160t113 111 164 41q78 0 137-29t91-82 32-123q0-89-41-160T457 34 293-7q-78 0-136 29zm139 107l41 25 66 71 24 104q0 63-37 98t-104 36q-53 0-94-25t-66-71-24-104q0-63 37-98t104-36q53 0 94 25z"/><glyph unicode="p" glyph-name="p" horiz-adv-x="686" d="M483 540l53-28 85-81 31-125q0-89-39-160T505 34 352-7q-63 0-110 22t-73 64l-54-273H-10l145 728h119l-11-56q70 62 174 62 66 0 119-28zm-88-440l41 25 66 71 24 104q0 63-37 98t-104 36q-53 0-94-25t-66-71-24-104q0-63 37-98t104-36q53 0 94 25z"/><glyph unicode="q" glyph-name="q" horiz-adv-x="686" d="M657 534L512-194H387l48 242Q366-7 269-7q-66 0-119 28t-85 81-31 126q0 89 39 160t108 112 154 40q65 0 113-23t73-69l17 86h119zM354 100l41 25 66 71 24 104q0 63-37 98t-104 36q-53 0-94-25t-66-71-24-104q0-63 37-98t104-36q53 0 94 25z"/><glyph unicode="r" glyph-name="r" horiz-adv-x="420" d="M275 506l50 17 121 17-23-119q-17 3-31 3-153 0-185-161L154 0H29l106 534h119l-14-69q35 41 85 58z"/><glyph unicode="s" glyph-name="s" horiz-adv-x="515" d="M143-7L82 9l-96 42 52 96q33-24 83-38t103-14q60 0 90 16t31 48q0 24-25 35t-81 23q-57 11-93 23t-63 41-27 79q0 83 69 131t185 49q55 0 107-12t85-34l-46-96q-33 21-74 31t-84 10q-59 0-89-18t-31-47q0-26 26-37t83-24q56-11 92-23t62-41 26-76q0-86-70-133T211-7Q143-7 82 9z"/><glyph unicode="t" glyph-name="t" horiz-adv-x="424" d="M205 179q-2-16-2-23 0-60 63-60 39 0 70 21l22-92Q307-7 229-7q-69 0-111 38T76 136q0 22 4 42l51 252H44l20 100h87l24 122h125l-25-122h144l-20-100H255l-50-251z"/><glyph unicode="u" glyph-name="u" horiz-adv-x="681" d="M653 534L546 0H427l12 59Q367-7 258-7q-88 0-140 47T65 174q0 32 7 64l59 296h125l-59-293q-4-20-4-41 0-47 26-72t80-25q68 0 113 38t60 116l56 277h125z"/><glyph unicode="v" glyph-name="v" horiz-adv-x="578" d="M636 534L301 0H172L49 534h123l89-397 249 397h126z"/><glyph unicode="w" glyph-name="w" horiz-adv-x="922" d="M975 534L677 0H554l-72 368L273 0H152L54 534h114l68-393 223 393h107l71-393 220 393h118z"/><glyph unicode="x" glyph-name="x" horiz-adv-x="573" d="M355 268L507 0H375L273 185 98 0H-46l268 276L77 534h130l96-175 168 175h140L355 268z"/><glyph unicode="y" glyph-name="y" horiz-adv-x="578" d="M636 534L268-47q-55-87-104-120T43-201q-40 0-79 13t-61 34l62 91Q2-97 53-97q32 0 56 16t49 57l17 26L49 534h125l90-396 247 396h125z"/><glyph unicode="z" glyph-name="z" horiz-adv-x="532" d="M528 455L169 100h296L445 0H-16l15 79 359 355H79l20 100h445l-16-79z"/><glyph unicode="{" glyph-name="braceleft" horiz-adv-x="371" d="M448 742l-20-102h-21q-40 0-60-17t-28-54l-39-193q-10-48-27-71t-53-33q43-17 43-68 0-8-4-32L203-10q-3-14-3-25 0-28 15-42t44-15h22l-20-102h-51q-66 0-102 33T71-67q0 22 4 42l40 200q2 12 2 15 0 33-36 33H46l20 102h34q44 0 54 48l42 210q17 83 64 121t137 38h51z"/><glyph unicode="|" glyph-name="bar" horiz-adv-x="303" d="M189 742h115L117-194H2l187 936z"/><glyph unicode="}" glyph-name="braceright" horiz-adv-x="371" d="M327 325l-20-102h-34q-44 0-53-48L177-35q-17-83-64-121t-137-38h-50l20 102h20q40 0 60 17t29 54l39 193q10 49 27 72t53 32q-43 18-43 67 0 17 4 33l36 182q3 14 3 25 0 28-15 42t-44 15H93l20 102h50q66 0 103-33t37-93q0-18-5-43l-39-200q-2-12-2-15 0-33 36-33h34z"/><glyph unicode="~" glyph-name="asciitilde" horiz-adv-x="590" d="M370 258l-26 14-56 41q-24 20-38 28t-33 9q-31 0-52-22t-30-62H55q11 86 56 132t105 46q39 0 64-14t57-41q23-20 37-29t33-9q32 0 53 23t30 62h80q-13-86-57-132t-103-46q-40 0-66 14z"/><glyph glyph-name="uni00A0" horiz-adv-x="276"/><glyph unicode="¡" glyph-name="exclamdown" horiz-adv-x="278" d="M142 386l-22 20-22 51q0 35 24 59t60 24q33 0 54-21t22-51q0-35-24-58t-59-24q-33 0-55 20zm-45-84h98l-66-456H-19L97 302z"/><glyph unicode="¢" glyph-name="cent" horiz-adv-x="581" d="M402 109l46 65 92-62q-37-55-99-86T303-7l-23-113h-81L223 0Q135 19 85 79T34 228q0 85 37 154t105 110 154 47l23 115h82l-24-118q121-20 173-121l-107-55q-27 55-87 69l-66-328q78 8 124 73zm-242 78l22-33 62-46 65 323q-67-12-108-66t-41-131q0-47 22-80z"/><glyph unicode="£" glyph-name="sterling" d="M419 596l-51-39-70-129-7-37h252l-17-82H274l-40-200h360L572 0H-23l22 109h105l40 200H37l17 82h106l9 46q27 136 121 204t225 69q132 0 202-51l-56-102q-60 39-154 39-88 0-139-39z"/><glyph unicode="¤" glyph-name="currency" horiz-adv-x="700" d="M628 239l-48-69L681 70 610-5 504 100q-65-41-144-41-80 0-144 42L109-5 38 70l102 102q-47 68-47 148 0 79 45 146L38 565l71 75 103-102q66 44 148 44 80 0 148-43l102 101 71-75-99-98q46-67 46-147 0-81-48-150zm-223-79l39 21 62 59 23 80q0 44-23 81t-62 58-84 22q-45 0-83-21t-61-59-23-81q0-43 22-80t61-58 84-22q45 0 84 21z"/><glyph unicode="¥" glyph-name="yen" horiz-adv-x="721" d="M470 312h163l-14-70H420l-13-68h198l-14-70H393L372 0H242l21 104H63l14 70h200l13 68H91l14 70h172L78 700h133l168-337 302 337h136L470 312z"/><glyph unicode="¦" glyph-name="brokenbar" horiz-adv-x="303" d="M189 742h115l-70-350H119l70 350zM72 156h115l-70-350H2l70 350z"/><glyph unicode="§" glyph-name="section" horiz-adv-x="511" d="M290 611l-36-22-37-57q0-29 25-42t80-29q52-14 85-27t56-43 24-78q0-48-27-86t-73-63q32-35 32-87 0-55-32-96t-89-64-132-23q-59 0-112 16t-89 46l48 90Q50 17 90 4t90-14q60 0 93 22t34 57q0 28-26 42t-80 29q-53 16-85 29t-55 42-24 76q0 46 27 85t74 65q-32 32-32 87t33 96 93 64 135 23q53 0 106-12t88-37l-49-91q-32 22-72 33t-84 11q-66 0-102-22zm88-290l-14 14-35 22-60 19-43 12q-39-13-59-36t-21-51q0-30 26-45t82-30q35-10 44-13 39 13 59 35t21 51q0 22-14 36z"/><glyph unicode="¨" glyph-name="dieresis" horiz-adv-x="600" d="M257 618l-16 15-16 39q0 29 18 48t45 19q25 0 41-15t16-40q0-28-19-47t-44-19q-25 0-41 15zm194 0l-16 15-16 39q0 29 18 48t46 19q24 0 40-15t17-40q0-28-19-47t-46-19q-24 0-40 15z"/><glyph unicode="©" glyph-name="copyright" horiz-adv-x="794" d="M315-3l-80 47-127 128-47 178q0 97 46 178t128 128 180 47q99 0 179-46t127-126 46-179q0-98-47-179T592 44 413-3q-98 0-178 47zm181 55l67 40 107 108 39 152q0 83-38 150T566 609t-151 39q-84 0-152-39T157 501t-39-151q0-83 38-151T262 92t151-40q83 0 150 40zm-133 94l-48 26-75 72-27 106q0 59 27 105t75 73 109 26q56 0 99-23t67-64l-72-48q-33 50-95 50-49 0-81-32t-33-87q0-54 32-86t82-33q62 0 95 50l72-46q-23-42-66-65t-100-24q-61 0-109 26z"/><glyph unicode="ª" glyph-name="ordfeminine" horiz-adv-x="409" d="M347 749l37-27 38-82q0-19-4-36l-36-178h-82l7 36q-18-19-44-29t-65-11q-54 0-85 24t-31 60q0 52 42 79t113 27h95v1q2 12 2 16 0 26-19 40t-53 14q-29 0-58-8t-51-23l-22 57q27 19 67 29t80 11q69 0 106-27zm-68-269l33 37 9 44h-80q-74 0-74-45 0-17 14-26t42-10q56 0 89 37z"/><glyph unicode="«" glyph-name="guillemotleft" horiz-adv-x="535" d="M161 263l94-189H145L42 267l180 194h116L161 263zm208 0l94-189H353L250 267l180 194h116L369 263z"/><glyph unicode="¬" glyph-name="logicalnot" horiz-adv-x="592" d="M499 124H392l35 177H71l20 100h462l-54-277z"/><glyph unicode="­" glyph-name="uni00AD" horiz-adv-x="385" d="M68 330h275l-21-104H48l20 104z"/><glyph unicode="®" glyph-name="registered" horiz-adv-x="794" d="M514 703l80-46 127-126 46-179q0-98-47-179T592 44 413-3q-98 0-178 47T108 172 61 350q0 97 46 178t128 128 180 47q99 0 179-46zM496 52l67 40 107 108 39 152q0 83-38 150T566 609t-151 39q-84 0-152-39T157 501t-39-151q0-83 38-151T262 92t151-40q83 0 150 40zm100 314l-20-31-59-47 88-135h-86l-78 120h-90V153h-85v394h164q77 0 121-37t45-100q0-44-20-75zm-245-26h74q41 0 64 18t24 52q0 33-23 51t-65 18h-74V340z"/><glyph unicode="¯" glyph-name="overscore" horiz-adv-x="600" d="M215 713h347l-14-75H201l14 75z"/><glyph unicode="°" glyph-name="degree" horiz-adv-x="418" d="M217 373l-38 22-61 61-23 84q0 46 22 84t61 61 86 23q47 0 86-22t61-61 23-85q0-46-22-84t-62-60-86-23q-47 0-85 22zm90 66l29 29 29 72q0 43-29 72t-72 30q-43 0-71-29t-29-73q0-43 28-72t72-29q43 0 72 29z"/><glyph unicode="±" glyph-name="plusminus" horiz-adv-x="590" d="M564 464l-20-99H368l-34-168H227l34 168H83l20 99h177l34 169h107l-34-169h177zM31 102h462L473 0H11l20 102z"/><glyph unicode="²" glyph-name="uni00B2" horiz-adv-x="430" d="M207 398h203l-14-71H55l11 56 210 151q41 29 56 49t16 41q0 24-20 37t-58 13q-66 0-111-42l-55 45q29 34 75 53t105 19q71 0 113-31t42-84q0-37-20-67t-85-77l-127-92z"/><glyph unicode="³" glyph-name="uni00B3" horiz-adv-x="430" d="M451 686L321 572q51-7 78-35t28-71q0-66-56-106t-149-40q-53 0-100 14t-72 37l37 67q25-20 63-31t79-12q51 0 79 17t29 49q0 48-77 48h-59l12 58 117 104H119l14 71h329l-11-56z"/><glyph unicode="´" glyph-name="acute" horiz-adv-x="600" d="M433 744h150L394 607H282l151 137z"/><glyph unicode="µ" glyph-name="uni00B5" horiz-adv-x="686" d="M657 534L551 0H434l12 60q-33-33-74-50T290-7q-84 0-128 42l-47-229H-10l145 728h125l-58-293q-4-20-4-41 0-47 26-72t80-25q68 0 113 38t60 116l55 277h125z"/><glyph unicode="¶" glyph-name="paragraph" horiz-adv-x="666" d="M247 371q-78 4-126 44T72 528q0 107 74 160t201 54h320L499-100H396l149 748H405L256-100H153l94 471z"/><glyph unicode="·" glyph-name="middot" horiz-adv-x="284" d="M107 195l-22 22-23 55q0 39 25 64t61 25q35 0 56-21t22-57q0-38-25-63t-61-25q-33 0-55 22z"/><glyph unicode="¸" glyph-name="cedilla" horiz-adv-x="600" d="M124-228l-36 21 30 59q31-16 69-16 29 0 43 10t16 28q0 31-47 31h-31L214 7h68l-24-56q35-5 53-24t19-48q0-50-41-78t-110-29q-55 0-91 21z"/><glyph unicode="¹" glyph-name="uni00B9" horiz-adv-x="430" d="M399 396l-13-69H88l13 69h111l55 277H167l13 69h192l-69-346h96z"/><glyph unicode="º" glyph-name="ordmasculine" horiz-adv-x="423" d="M181 422l-45 40-46 104q0 53 27 94t74 65 105 24q73 0 118-40t46-104q0-53-26-94t-74-65-105-24q-74 0-119 40zm130 71l31 30 31 78q0 35-23 56t-61 21q-50 0-81-31t-31-77q0-35 23-56t62-21q49 0 80 30z"/><glyph unicode="»" glyph-name="guillemotright" horiz-adv-x="536" d="M286 267L105 74H-11l178 198-95 189h111l103-194zm208 0L313 74H197l178 198-95 189h111l103-194z"/><glyph unicode="¼" glyph-name="onequarter" horiz-adv-x="1039" d="M391 354l-13-69H80l13 69h111l55 277H159l13 69h192l-69-346h96zm399 346h103L281 0H179l611 700zM982 92h-77L887 0h-87l19 92H591l11 58 245 265h102L715 163h126l15 77h79l-15-77h76l-14-71z"/><glyph unicode="½" glyph-name="onehalf" horiz-adv-x="1039" d="M391 354l-13-69H80l13 69h111l55 277H159l13 69h192l-69-346h96zm399 346h103L281 0H179l611 700zM751 71h203L940 0H599l11 56 210 151q41 29 56 49t16 41q0 24-20 37t-58 13q-66 0-111-42l-55 45q29 34 75 53t105 19q71 0 113-31t42-84q0-37-20-67t-85-77L751 71z"/><glyph unicode="¾" glyph-name="threequarters" horiz-adv-x="1039" d="M443 644L313 530q51-7 78-35t28-71q0-66-56-106t-149-40q-53 0-100 14t-72 37l37 67q25-20 63-31t79-12q51 0 79 17t29 49q0 48-77 48h-59l12 58 117 104H111l14 71h329l-11-56zm347 56h103L281 0H179l611 700zM982 92h-77L887 0h-87l19 92H591l11 58 245 265h102L715 163h126l15 77h79l-15-77h76l-14-71z"/><glyph unicode="¿" glyph-name="questiondown" horiz-adv-x="581" d="M300 386l-21 20-22 51q0 35 24 59t59 24q33 0 55-20t22-51q0-36-24-59t-60-24q-33 0-54 20zM133-164l-60 44L12-3q0 46 17 80t42 56 67 54q44 32 69 56t34 59h127q-10-51-42-86t-86-74q-49-35-72-61t-24-63q0-33 30-53t84-21q107 0 173 78l84-69q-45-56-117-86t-163-31q-102 0-162 44z"/><glyph unicode="À" glyph-name="Agrave" horiz-adv-x="749" d="M534 162H182L81 0H-58l455 700h129L700 0H571l-37 162zm-24 102l-71 308-193-308h264zM301 894h146l109-137H448L301 894z"/><glyph unicode="Á" glyph-name="Aacute" horiz-adv-x="749" d="M534 162H182L81 0H-58l455 700h129L700 0H571l-37 162zm-24 102l-71 308-193-308h264zm27 630h150L498 757H386l151 137z"/><glyph unicode="Â" glyph-name="Acircumflex" horiz-adv-x="749" d="M534 162H182L81 0H-58l455 700h129L700 0H571l-37 162zm-24 102l-71 308-193-308h264zm53 493l-79 74-97-74H282l151 137h114l116-137H563z"/><glyph unicode="Ã" glyph-name="Atilde" horiz-adv-x="749" d="M534 162H182L81 0H-58l455 700h129L700 0H571l-37 162zm-24 102l-71 308-193-308h264zm19 493l-18 10-41 28q-17 14-28 21t-25 7q-21 0-35-16t-19-44h-67q10 64 42 99t80 35q24 0 42-10t42-29q19-15 29-21t23-6q21 0 35 15t19 42h67q-10-62-42-96t-79-35q-25 0-43 10z"/><glyph unicode="Ä" glyph-name="Adieresis" horiz-adv-x="749" d="M534 162H182L81 0H-58l455 700h129L700 0H571l-37 162zm-24 102l-71 308-193-308h264zM361 768l-16 15-16 39q0 29 18 48t45 19q25 0 41-15t16-40q0-28-19-47t-44-19q-25 0-41 15zm194 0l-16 15-16 39q0 29 18 48t46 19q24 0 40-15t17-40q0-28-19-47t-46-19q-24 0-40 15z"/><glyph unicode="Å" glyph-name="Aring" horiz-adv-x="749" d="M534 162H182L81 0H-58l455 700h129L700 0H571l-37 162zm-24 102l-71 308-193-308h264zm-64 495l-33 33-34 81q0 48 33 82t83 34q50 0 84-34t34-82q0-48-34-81t-84-33q-49 0-82 33zm77 51l18 18 18 45q0 28-18 46t-46 19q-26 0-44-18t-18-47q0-27 17-45t45-18q28 0 46 18z"/><glyph unicode="Æ" glyph-name="AE" horiz-adv-x="1064" d="M682 591l-36-182h339l-22-107H624l-38-193h395L959 0H436l32 162H209L85 0H-59l541 700h603l-22-109H682zM489 264l66 329h-17L287 264h202z"/><glyph unicode="Ç" glyph-name="Ccedilla" horiz-adv-x="727" d="M291-10l-76 37L97 133 56 289q0 118 54 214t152 151 225 56q91 0 160-30t106-87l-94-79q-59 82-181 82-87 0-153-40T223 448t-36-151q0-89 57-141t162-52q121 0 199 81l76-82q-50-57-123-85T396-10q-105 0-181 37zm-57-218l-36 21 30 59q31-16 69-16 29 0 43 10t16 28q0 31-47 31h-31L324 7h68l-24-56q35-5 53-24t19-48q0-50-41-78t-110-29q-55 0-91 21z"/><glyph unicode="È" glyph-name="Egrave" horiz-adv-x="670" d="M288 591l-36-182h339l-21-107H230l-38-193h396L566 0H41l140 700h511l-22-109H288zm-11 303h146l109-137H424L277 894z"/><glyph unicode="É" glyph-name="Eacute" horiz-adv-x="670" d="M288 591l-36-182h339l-21-107H230l-38-193h396L566 0H41l140 700h511l-22-109H288zm225 303h150L474 757H362l151 137z"/><glyph unicode="Ê" glyph-name="Ecircumflex" horiz-adv-x="670" d="M288 591l-36-182h339l-21-107H230l-38-193h396L566 0H41l140 700h511l-22-109H288zm251 166l-79 74-97-74H258l151 137h114l116-137H539z"/><glyph unicode="Ë" glyph-name="Edieresis" horiz-adv-x="670" d="M288 591l-36-182h339l-21-107H230l-38-193h396L566 0H41l140 700h511l-22-109H288zm49 177l-16 15-16 39q0 29 18 48t45 19q25 0 41-15t16-40q0-28-19-47t-44-19q-25 0-41 15zm194 0l-16 15-16 39q0 29 18 48t46 19q24 0 40-15t17-40q0-28-19-47t-46-19q-24 0-40 15z"/><glyph unicode="Ì" glyph-name="Igrave" horiz-adv-x="319" d="M181 700h130L171 0H41l140 700zM86 894h146l109-137H233L86 894z"/><glyph unicode="Í" glyph-name="Iacute" horiz-adv-x="319" d="M181 700h130L171 0H41l140 700zm141 194h150L283 757H171l151 137z"/><glyph unicode="Î" glyph-name="Icircumflex" horiz-adv-x="319" d="M181 700h130L171 0H41l140 700zm167 57l-79 74-97-74H67l151 137h114l116-137H348z"/><glyph unicode="Ï" glyph-name="Idieresis" horiz-adv-x="319" d="M181 700h130L171 0H41l140 700zm-35 68l-16 15-16 39q0 29 18 48t45 19q25 0 41-15t16-40q0-28-19-47t-44-19q-25 0-41 15zm194 0l-16 15-16 39q0 29 18 48t46 19q24 0 40-15t17-40q0-28-19-47t-46-19q-24 0-40 15z"/><glyph unicode="Ð" glyph-name="Eth" horiz-adv-x="836" d="M191 700h283q105 0 182-35t117-101 41-153q0-123-54-216T606 51 378 0H51l140 700zm191-590q92 0 160 38t104 104 37 151q0 88-57 137t-166 50H299l-96-480h179zM32 404h416l-20-96H12l20 96z"/><glyph unicode="Ñ" glyph-name="Ntilde" horiz-adv-x="810" d="M802 700L662 0H555L268 490 170 0H41l140 700h107l288-490 97 490h129zm-242 57l-18 10-41 28q-17 14-28 21t-25 7q-21 0-35-16t-19-44h-67q10 64 42 99t80 35q24 0 42-10t42-29q19-15 29-21t23-6q21 0 35 15t19 42h67q-10-62-42-96t-79-35q-25 0-43 10z"/><glyph unicode="Ò" glyph-name="Ograve" horiz-adv-x="842" d="M287-10l-75 37L96 132 56 289q0 118 53 214t152 151 224 56q104 0 179-37t116-105 40-157q0-118-53-214T615 46 391-10q-104 0-179 37zm200 114l65 40 101 109 36 150q0 88-56 140t-160 53q-85 0-150-40T222 447t-35-150q0-88 56-140t159-53q85 0 150 40zM347 894h146l109-137H494L347 894z"/><glyph unicode="Ó" glyph-name="Oacute" horiz-adv-x="842" d="M287-10l-75 37L96 132 56 289q0 118 53 214t152 151 224 56q104 0 179-37t116-105 40-157q0-118-53-214T615 46 391-10q-104 0-179 37zm200 114l65 40 101 109 36 150q0 88-56 140t-160 53q-85 0-150-40T222 447t-35-150q0-88 56-140t159-53q85 0 150 40zm96 790h150L544 757H432l151 137z"/><glyph unicode="Ô" glyph-name="Ocircumflex" horiz-adv-x="842" d="M287-10l-75 37L96 132 56 289q0 118 53 214t152 151 224 56q104 0 179-37t116-105 40-157q0-118-53-214T615 46 391-10q-104 0-179 37zm200 114l65 40 101 109 36 150q0 88-56 140t-160 53q-85 0-150-40T222 447t-35-150q0-88 56-140t159-53q85 0 150 40zm122 653l-79 74-97-74H328l151 137h114l116-137H609z"/><glyph unicode="Õ" glyph-name="Otilde" horiz-adv-x="842" d="M287-10l-75 37L96 132 56 289q0 118 53 214t152 151 224 56q104 0 179-37t116-105 40-157q0-118-53-214T615 46 391-10q-104 0-179 37zm200 114l65 40 101 109 36 150q0 88-56 140t-160 53q-85 0-150-40T222 447t-35-150q0-88 56-140t159-53q85 0 150 40zm88 653l-18 10-41 28q-17 14-28 21t-25 7q-21 0-35-16t-19-44h-67q10 64 42 99t80 35q24 0 42-10t42-29q19-15 29-21t23-6q21 0 35 15t19 42h67q-10-62-42-96t-79-35q-25 0-43 10z"/><glyph unicode="Ö" glyph-name="Odieresis" horiz-adv-x="842" d="M287-10l-75 37L96 132 56 289q0 118 53 214t152 151 224 56q104 0 179-37t116-105 40-157q0-118-53-214T615 46 391-10q-104 0-179 37zm200 114l65 40 101 109 36 150q0 88-56 140t-160 53q-85 0-150-40T222 447t-35-150q0-88 56-140t159-53q85 0 150 40zm-80 664l-16 15-16 39q0 29 18 48t45 19q25 0 41-15t16-40q0-28-19-47t-44-19q-25 0-41 15zm194 0l-16 15-16 39q0 29 18 48t46 19q24 0 40-15t17-40q0-28-19-47t-46-19q-24 0-40 15z"/><glyph unicode="×" glyph-name="multiply" horiz-adv-x="590" d="M382 347l110-128-75-70-111 129-144-129-63 76 143 128-110 128 75 70 111-129 144 129 63-76-143-128z"/><glyph unicode="Ø" glyph-name="Oslash" horiz-adv-x="842" d="M287-10l-75 37L96 132 56 289q0 118 53 214t152 151 224 56q104 0 179-37t116-105 40-157q0-118-53-214T615 46 391-10q-104 0-179 37zm200 114l65 40 101 109 36 150q0 88-56 140t-160 53q-85 0-150-40T222 447t-35-150q0-88 56-140t159-53q85 0 150 40zm286 666h96L103-70H6l767 840z"/><glyph unicode="Ù" glyph-name="Ugrave" horiz-adv-x="789" d="M233-10l-72 64-73 176q0 33 8 75l79 395h130l-79-393q-7-40-7-62 0-70 40-105t115-36q84 0 134 49t73 155l78 392h128l-80-401Q676 145 589 68T361-10q-128 0-200 64zm89 904h146l109-137H469L322 894z"/><glyph unicode="Ú" glyph-name="Uacute" horiz-adv-x="789" d="M233-10l-72 64-73 176q0 33 8 75l79 395h130l-79-393q-7-40-7-62 0-70 40-105t115-36q84 0 134 49t73 155l78 392h128l-80-401Q676 145 589 68T361-10q-128 0-200 64zm325 904h150L519 757H407l151 137z"/><glyph unicode="Û" glyph-name="Ucircumflex" horiz-adv-x="789" d="M233-10l-72 64-73 176q0 33 8 75l79 395h130l-79-393q-7-40-7-62 0-70 40-105t115-36q84 0 134 49t73 155l78 392h128l-80-401Q676 145 589 68T361-10q-128 0-200 64zm351 767l-79 74-97-74H303l151 137h114l116-137H584z"/><glyph unicode="Ü" glyph-name="Udieresis" horiz-adv-x="789" d="M233-10l-72 64-73 176q0 33 8 75l79 395h130l-79-393q-7-40-7-62 0-70 40-105t115-36q84 0 134 49t73 155l78 392h128l-80-401Q676 145 589 68T361-10q-128 0-200 64zm149 778l-16 15-16 39q0 29 18 48t45 19q25 0 41-15t16-40q0-28-19-47t-44-19q-25 0-41 15zm194 0l-16 15-16 39q0 29 18 48t46 19q24 0 40-15t17-40q0-28-19-47t-46-19q-24 0-40 15z"/><glyph unicode="Ý" glyph-name="Yacute" horiz-adv-x="661" d="M389 239L341 0H212l49 248L78 700h129l138-342 276 342h136L389 239zm104 655h150L454 757H342l151 137z"/><glyph unicode="Þ" glyph-name="Thorn" horiz-adv-x="726" d="M564 618l69-55 69-156q0-88-40-152t-116-99-178-35H195L171 0H41l140 700h130l-16-82h144q125 0 194-55zm-97-388l52 42 52 123q0 56-38 84t-111 29H273l-56-278h155q95 0 147 42z"/><glyph unicode="ß" glyph-name="germandbls" horiz-adv-x="684" d="M581 363l27-39 27-93q0-71-35-125t-98-83T360-7q-36 0-70 5t-55 15l32 101q39-15 91-15 69 0 110 33t41 93q0 45-32 67t-89 23h-55l21 103q75 1 121 38t46 101q0 41-27 63t-77 23q-64 0-106-34t-57-105L153 0H28l99 493q25 129 104 192t196 64q98 0 156-48t59-131q0-60-29-109t-80-78q48-20 75-59z"/><glyph unicode="à" glyph-name="agrave" horiz-adv-x="686" d="M657 534L551 0H432l11 55Q373-7 269-7q-66 0-119 28t-85 81-31 126q0 89 39 160t108 112 154 40q128 0 182-85l15 79h125zM354 100l41 25 66 71 24 104q0 63-37 98t-104 36q-53 0-94-25t-66-71-24-104q0-63 37-98t104-36q53 0 94 25zM239 744h146l109-137H386L239 744z"/><glyph unicode="á" glyph-name="aacute" horiz-adv-x="686" d="M657 534L551 0H432l11 55Q373-7 269-7q-66 0-119 28t-85 81-31 126q0 89 39 160t108 112 154 40q128 0 182-85l15 79h125zM354 100l41 25 66 71 24 104q0 63-37 98t-104 36q-53 0-94-25t-66-71-24-104q0-63 37-98t104-36q53 0 94 25zm121 644h150L436 607H324l151 137z"/><glyph unicode="â" glyph-name="acircumflex" horiz-adv-x="686" d="M657 534L551 0H432l11 55Q373-7 269-7q-66 0-119 28t-85 81-31 126q0 89 39 160t108 112 154 40q128 0 182-85l15 79h125zM354 100l41 25 66 71 24 104q0 63-37 98t-104 36q-53 0-94-25t-66-71-24-104q0-63 37-98t104-36q53 0 94 25zm147 507l-79 74-97-74H220l151 137h114l116-137H501z"/><glyph unicode="ã" glyph-name="atilde" horiz-adv-x="686" d="M657 534L551 0H432l11 55Q373-7 269-7q-66 0-119 28t-85 81-31 126q0 89 39 160t108 112 154 40q128 0 182-85l15 79h125zM354 100l41 25 66 71 24 104q0 63-37 98t-104 36q-53 0-94-25t-66-71-24-104q0-63 37-98t104-36q53 0 94 25zm113 507l-18 10-41 28q-17 14-28 21t-25 7q-21 0-35-16t-19-44h-67q10 64 42 99t80 35q24 0 42-10t42-29q19-15 29-21t23-6q21 0 35 15t19 42h67q-10-62-42-96t-79-35q-25 0-43 10z"/><glyph unicode="ä" glyph-name="adieresis" horiz-adv-x="686" d="M657 534L551 0H432l11 55Q373-7 269-7q-66 0-119 28t-85 81-31 126q0 89 39 160t108 112 154 40q128 0 182-85l15 79h125zM354 100l41 25 66 71 24 104q0 63-37 98t-104 36q-53 0-94-25t-66-71-24-104q0-63 37-98t104-36q53 0 94 25zm-55 518l-16 15-16 39q0 29 18 48t45 19q25 0 41-15t16-40q0-28-19-47t-44-19q-25 0-41 15zm194 0l-16 15-16 39q0 29 18 48t46 19q24 0 40-15t17-40q0-28-19-47t-46-19q-24 0-40 15z"/><glyph unicode="å" glyph-name="aring" horiz-adv-x="686" d="M657 534L551 0H432l11 55Q373-7 269-7q-66 0-119 28t-85 81-31 126q0 89 39 160t108 112 154 40q128 0 182-85l15 79h125zM354 100l41 25 66 71 24 104q0 63-37 98t-104 36q-53 0-94-25t-66-71-24-104q0-63 37-98t104-36q53 0 94 25zm26 493l-33 33-34 81q0 48 33 82t83 34q50 0 84-34t34-82q0-48-34-81t-84-33q-49 0-82 33zm77 51l18 18 18 45q0 28-18 46t-46 19q-26 0-44-18t-18-47q0-27 17-45t45-18q28 0 46 18z"/><glyph unicode="æ" glyph-name="ae" horiz-adv-x="992" d="M961 272l-9-43H524q1-67 39-98t115-32q95 0 155 55l54-87q-43-37-100-55T666-7q-70 0-126 25t-90 76Q379-7 229-7 132-7 77 34T22 144q0 78 60 123t177 45h152l1 5q3 17 3 31 0 42-30 64t-87 23q-45 0-89-13t-76-36l-36 95q43 29 103 44t118 15q143 0 190-79 40 38 92 58t111 21q74 0 131-28t88-81 31-125q0-34-9-77zM643 440l-45-34-63-94h307q1 61-36 94t-101 34q-62 0-107-34zM299 84l39 29 51 88 6 28H253q-51 0-79-20t-29-57q0-32 24-50t75-18q55 0 94 29z"/><glyph unicode="ç" glyph-name="ccedilla" horiz-adv-x="581" d="M217-7l-59 29-92 83-32 123q0 89 41 160t113 111 166 41q81 0 139-31t91-94l-107-55q-37 74-133 74-53 0-94-25t-66-71-24-104q0-63 37-98t105-36q46 0 83 18t63 56l92-62q-37-56-102-87T296-7q-79 0-138 29zm-62-221l-36 21 30 59q31-16 69-16 29 0 43 10t16 28q0 31-47 31h-31L245 7h68l-24-56q35-5 53-24t19-48q0-50-41-78t-110-29q-55 0-91 21z"/><glyph unicode="è" glyph-name="egrave" horiz-adv-x="619" d="M588 267l-8-37H156q3-131 154-131 46 0 86 14t68 41l52-87q-41-37-98-55T297-7q-80 0-139 29t-92 82-32 124q0 89 39 160t110 112 159 40q112 0 179-62t67-172q0-39-8-76zM273 440l-44-34-62-93h306q1 60-36 93t-101 34q-63 0-107-34zm-69 303h146l109-137H351L204 743z"/><glyph unicode="é" glyph-name="eacute" horiz-adv-x="619" d="M588 267l-8-37H156q3-131 154-131 46 0 86 14t68 41l52-87q-41-37-98-55T297-7q-80 0-139 29t-92 82-32 124q0 89 39 160t110 112 159 40q112 0 179-62t67-172q0-39-8-76zM273 440l-44-34-62-93h306q1 60-36 93t-101 34q-63 0-107-34zm167 303h150L401 606H289l151 137z"/><glyph unicode="ê" glyph-name="ecircumflex" horiz-adv-x="619" d="M588 267l-8-37H156q3-131 154-131 46 0 86 14t68 41l52-87q-41-37-98-55T297-7q-80 0-139 29t-92 82-32 124q0 89 39 160t110 112 159 40q112 0 179-62t67-172q0-39-8-76zM273 440l-44-34-62-93h306q1 60-36 93t-101 34q-63 0-107-34zm193 166l-79 74-97-74H185l151 137h114l116-137H466z"/><glyph unicode="ë" glyph-name="edieresis" horiz-adv-x="619" d="M588 267l-8-37H156q3-131 154-131 46 0 86 14t68 41l52-87q-41-37-98-55T297-7q-80 0-139 29t-92 82-32 124q0 89 39 160t110 112 159 40q112 0 179-62t67-172q0-39-8-76zM273 440l-44-34-62-93h306q1 60-36 93t-101 34q-63 0-107-34zm-9 177l-16 15-16 39q0 29 18 48t45 19q25 0 41-15t16-40q0-28-19-47t-44-19q-25 0-41 15zm194 0l-16 15-16 39q0 29 18 48t46 19q24 0 40-15t17-40q0-28-19-47t-46-19q-24 0-40 15z"/><glyph unicode="ì" glyph-name="igrave" horiz-adv-x="289" d="M135 534h125L154 0H29l106 534zM42 744h146l109-137H189L42 744z"/><glyph unicode="í" glyph-name="iacute" horiz-adv-x="289" d="M135 534h125L154 0H29l106 534zm143 210h150L239 607H127l151 137z"/><glyph unicode="î" glyph-name="icircumflex" horiz-adv-x="289" d="M135 534h125L154 0H29l106 534zm149 73l-59 71-77-71H48l128 137h110l93-137h-95z"/><glyph unicode="ï" glyph-name="idieresis" horiz-adv-x="289" d="M135 534h125L154 0H29l106 534zm-12 84l-15 15-16 39q0 29 17 48t45 19q23 0 38-16t15-40q0-28-17-46t-44-19q-23 0-38 15zm154 0l-15 15-16 39q0 29 18 48t44 19q23 0 38-15t15-40q0-28-17-47t-44-19q-23 0-38 15z"/><glyph unicode="ð" glyph-name="eth" horiz-adv-x="648" d="M587 612q47-70 47-169 0-123-44-226T463 52 269-10q-70 0-125 25T59 87 28 194q0 72 36 129t102 88 147 32q62 0 110-22t75-64q8 48 8 87 0 78-36 124l-261-98-27 75 204 77q-31 10-77 10-72 0-135-20l3 102q66 19 148 19 121 0 202-58l109 41 27-75-76-29zM326 92l38 18 62 49 23 72q0 51-34 80t-95 30q-75 0-121-38t-46-100q0-51 34-81t94-30q45 0 83 18z"/><glyph unicode="ñ" glyph-name="ntilde" horiz-adv-x="685" d="M516 540l52-47 53-133q0-24-7-64L555 0H430l58 293q4 20 4 41 0 97-107 97-69 0-114-38t-61-116L154 0H29l106 534h119l-12-59q72 65 184 65 90 0 142-47zm-45 67l-18 10-41 28q-17 14-28 21t-25 7q-21 0-35-16t-19-44h-67q10 64 42 99t80 35q24 0 42-10t42-29q19-15 29-21t23-6q21 0 35 15t19 42h67q-10-62-42-96t-79-35q-25 0-43 10z"/><glyph unicode="ò" glyph-name="ograve" horiz-adv-x="645" d="M215-7l-58 29-91 83-32 123q0 89 40 160t113 111 164 41q78 0 137-29t91-82 32-123q0-89-41-160T457 34 293-7q-78 0-136 29zm139 107l41 25 66 71 24 104q0 63-37 98t-104 36q-53 0-94-25t-66-71-24-104q0-63 37-98t104-36q53 0 94 25zM216 744h146l109-137H363L216 744z"/><glyph unicode="ó" glyph-name="oacute" horiz-adv-x="645" d="M215-7l-58 29-91 83-32 123q0 89 40 160t113 111 164 41q78 0 137-29t91-82 32-123q0-89-41-160T457 34 293-7q-78 0-136 29zm139 107l41 25 66 71 24 104q0 63-37 98t-104 36q-53 0-94-25t-66-71-24-104q0-63 37-98t104-36q53 0 94 25zm98 644h150L413 607H301l151 137z"/><glyph unicode="ô" glyph-name="ocircumflex" horiz-adv-x="645" d="M215-7l-58 29-91 83-32 123q0 89 40 160t113 111 164 41q78 0 137-29t91-82 32-123q0-89-41-160T457 34 293-7q-78 0-136 29zm139 107l41 25 66 71 24 104q0 63-37 98t-104 36q-53 0-94-25t-66-71-24-104q0-63 37-98t104-36q53 0 94 25zm124 507l-79 74-97-74H197l151 137h114l116-137H478z"/><glyph unicode="õ" glyph-name="otilde" horiz-adv-x="645" d="M215-7l-58 29-91 83-32 123q0 89 40 160t113 111 164 41q78 0 137-29t91-82 32-123q0-89-41-160T457 34 293-7q-78 0-136 29zm139 107l41 25 66 71 24 104q0 63-37 98t-104 36q-53 0-94-25t-66-71-24-104q0-63 37-98t104-36q53 0 94 25zm90 507l-18 10-41 28q-17 14-28 21t-25 7q-21 0-35-16t-19-44h-67q10 64 42 99t80 35q24 0 42-10t42-29q19-15 29-21t23-6q21 0 35 15t19 42h67q-10-62-42-96t-79-35q-25 0-43 10z"/><glyph unicode="ö" glyph-name="odieresis" horiz-adv-x="645" d="M215-7l-58 29-91 83-32 123q0 89 40 160t113 111 164 41q78 0 137-29t91-82 32-123q0-89-41-160T457 34 293-7q-78 0-136 29zm139 107l41 25 66 71 24 104q0 63-37 98t-104 36q-53 0-94-25t-66-71-24-104q0-63 37-98t104-36q53 0 94 25zm-78 518l-16 15-16 39q0 29 18 48t45 19q25 0 41-15t16-40q0-28-19-47t-44-19q-25 0-41 15zm194 0l-16 15-16 39q0 29 18 48t46 19q24 0 40-15t17-40q0-28-19-47t-46-19q-24 0-40 15z"/><glyph unicode="÷" glyph-name="divide" horiz-adv-x="590" d="M320 481l-19 19-20 47q0 34 22 55t53 22q28 0 47-18t19-47q0-33-21-55t-54-23q-27 0-46 19zM91 400h462l-20-100H71l20 100zM239 76l-19 19-19 47q0 33 22 55t53 22q28 0 47-18t19-47q0-33-22-55t-53-23q-28 0-47 19z"/><glyph unicode="ø" glyph-name="oslash" horiz-adv-x="645" d="M215-7l-58 29-91 83-32 123q0 89 40 160t113 111 164 41q78 0 137-29t91-82 32-123q0-89-41-160T457 34 293-7q-78 0-136 29zm139 107l41 25 66 71 24 104q0 63-37 98t-104 36q-53 0-94-25t-66-71-24-104q0-63 37-98t104-36q53 0 94 25zm214 502h74L71-70H-3l571 672z"/><glyph unicode="ù" glyph-name="ugrave" horiz-adv-x="681" d="M653 534L546 0H427l12 59Q367-7 258-7q-88 0-140 47T65 174q0 32 7 64l59 296h125l-59-293q-4-20-4-41 0-47 26-72t80-25q68 0 113 38t60 116l56 277h125zM236 744h146l109-137H383L236 744z"/><glyph unicode="ú" glyph-name="uacute" horiz-adv-x="681" d="M653 534L546 0H427l12 59Q367-7 258-7q-88 0-140 47T65 174q0 32 7 64l59 296h125l-59-293q-4-20-4-41 0-47 26-72t80-25q68 0 113 38t60 116l56 277h125zM472 744h150L433 607H321l151 137z"/><glyph unicode="û" glyph-name="ucircumflex" horiz-adv-x="681" d="M653 534L546 0H427l12 59Q367-7 258-7q-88 0-140 47T65 174q0 32 7 64l59 296h125l-59-293q-4-20-4-41 0-47 26-72t80-25q68 0 113 38t60 116l56 277h125zm-155 73l-79 74-97-74H217l151 137h114l116-137H498z"/><glyph unicode="ü" glyph-name="udieresis" horiz-adv-x="681" d="M653 534L546 0H427l12 59Q367-7 258-7q-88 0-140 47T65 174q0 32 7 64l59 296h125l-59-293q-4-20-4-41 0-47 26-72t80-25q68 0 113 38t60 116l56 277h125zm-357 84l-16 15-16 39q0 29 18 48t45 19q25 0 41-15t16-40q0-28-19-47t-44-19q-25 0-41 15zm194 0l-16 15-16 39q0 29 18 48t46 19q24 0 40-15t17-40q0-28-19-47t-46-19q-24 0-40 15z"/><glyph unicode="ý" glyph-name="yacute" horiz-adv-x="578" d="M636 534L268-47q-55-87-104-120T43-201q-40 0-79 13t-61 34l62 91Q2-97 53-97q32 0 56 16t49 57l17 26L49 534h125l90-396 247 396h125zM410 744h150L371 607H259l151 137z"/><glyph unicode="þ" glyph-name="thorn" horiz-adv-x="686" d="M483 540l53-28 85-81 31-125q0-89-39-160T505 34 352-7q-63 0-109 21t-73 64l-55-272H-10l187 936h125l-51-257q69 55 166 55 66 0 119-28zm-88-440l41 25 66 71 24 104q0 63-37 98t-104 36q-53 0-94-25t-66-71-24-104q0-63 37-98t104-36q53 0 94 25z"/><glyph unicode="ÿ" glyph-name="ydieresis" horiz-adv-x="578" d="M636 534L268-47q-55-87-104-120T43-201q-40 0-79 13t-61 34l62 91Q2-97 53-97q32 0 56 16t49 57l17 26L49 534h125l90-396 247 396h125zm-402 84l-16 15-16 39q0 29 18 48t45 19q25 0 41-15t16-40q0-28-19-47t-44-19q-25 0-41 15zm194 0l-16 15-16 39q0 29 18 48t46 19q24 0 40-15t17-40q0-28-19-47t-46-19q-24 0-40 15z"/><glyph unicode="–" glyph-name="endash" horiz-adv-x="500" d="M11 319h500l-17-82H-6l17 82z"/><glyph unicode="—" glyph-name="emdash" horiz-adv-x="1000" d="M11 319h1000l-17-82H-6l17 82z"/><glyph unicode="‘" glyph-name="quoteleft" horiz-adv-x="244" d="M235 576l9-17 9-38q0-39-25-64t-62-25q-33 0-55 22t-22 56q0 17 6 33t22 43l92 156h80l-71-156q17-10 26-27z"/><glyph unicode="’" glyph-name="quoteright" horiz-adv-x="244" d="M240 749l21-22 22-56q0-17-6-34t-21-43l-92-155H84l71 156q-17 10-26 27t-10 39q0 39 26 63t62 25q33 0 54-22z"/><glyph unicode="‚" glyph-name="quotesinglbase" horiz-adv-x="244" d="M122 159l22-22 22-56q0-18-6-33T137 4L45-151h-80L37 5Q21 16 12 33T2 71q0 38 25 63t62 25q33 0 55-22z"/><glyph unicode="“" glyph-name="quotedblleft" horiz-adv-x="456" d="M235 576l9-17 9-38q0-39-25-64t-62-25q-33 0-55 22t-22 56q0 17 6 33t22 43l92 156h80l-71-156q17-10 26-27zm212 0l9-17 9-38q0-39-25-64t-62-25q-33 0-55 22t-22 56q0 17 6 33t22 43l92 156h80l-71-156q17-10 26-27z"/><glyph unicode="”" glyph-name="quotedblright" horiz-adv-x="456" d="M240 749l21-22 22-56q0-17-6-34t-21-43l-92-155H84l71 156q-17 10-26 27t-10 39q0 39 26 63t62 25q33 0 54-22zm212 0l21-22 22-56q0-17-6-34t-21-43l-92-155h-80l71 156q-17 10-26 27t-10 39q0 39 26 63t62 25q33 0 54-22z"/><glyph unicode="„" glyph-name="quotedblbase" horiz-adv-x="456" d="M122 159l22-22 22-56q0-18-6-33T137 4L45-151h-80L37 5Q21 16 12 33T2 71q0 38 25 63t62 25q33 0 55-22zm212 0l22-22 22-56q0-18-6-33T349 4l-92-155h-80L249 5q-16 11-25 28t-10 38q0 38 25 63t62 25q33 0 55-22z"/><glyph unicode="•" glyph-name="bullet" horiz-adv-x="335" d="M120 168l-29 29-29 72q0 51 33 83t81 33q42 0 71-28t30-72q0-50-33-83t-81-34q-43 0-72 29z"/><glyph unicode="‹" glyph-name="guilsinglleft" horiz-adv-x="327" d="M161 263l94-189H145L42 267l180 194h116L161 263z"/><glyph unicode="›" glyph-name="guilsinglright" horiz-adv-x="328" d="M286 267L105 74H-11l178 198-95 189h111l103-194z"/></font>
</defs>
</svg>
